G75*
%MOIN*%
%OFA0B0*%
%FSLAX25Y25*%
%IPPOS*%
%LPD*%
%AMOC8*
5,1,8,0,0,1.08239X$1,22.5*
%
%ADD10R,0.27500X0.13750*%
%ADD11C,0.06000*%
%ADD12C,0.09900*%
%ADD13C,0.10000*%
%ADD14C,0.10000*%
%ADD15OC8,0.10000*%
%ADD16OC8,0.08500*%
%ADD17C,0.01600*%
%ADD18OC8,0.04750*%
%ADD19C,0.04000*%
%ADD20OC8,0.03962*%
D10*
X0029306Y0139931D03*
X0029700Y0199931D03*
D11*
X0027802Y0078775D02*
X0033802Y0078775D01*
X0033802Y0063775D02*
X0027802Y0063775D01*
X0027802Y0048775D02*
X0033802Y0048775D01*
X0033802Y0033775D02*
X0027802Y0033775D01*
X0127950Y0053450D02*
X0133950Y0053450D01*
X0133950Y0070950D02*
X0127950Y0070950D01*
D12*
X0184400Y0028400D02*
X0184400Y0018500D01*
X0200000Y0018500D02*
X0200000Y0028400D01*
X0082500Y0206000D02*
X0082500Y0215900D01*
X0066900Y0215900D02*
X0066900Y0206000D01*
D13*
X0034700Y0199700D02*
X0024700Y0199700D01*
X0024700Y0139700D02*
X0034700Y0139700D01*
D14*
X0063450Y0077200D03*
X0063450Y0033450D03*
D15*
X0083450Y0033450D03*
X0083450Y0077200D03*
D16*
X0113450Y0192200D03*
X0113450Y0203450D03*
X0113450Y0214700D03*
X0244700Y0127200D03*
X0259700Y0127200D03*
X0239700Y0079700D03*
X0239700Y0057200D03*
D17*
X0014756Y0008703D02*
X0013606Y0011480D01*
X0011480Y0013606D01*
X0008703Y0014756D01*
X0008200Y0014756D01*
X0008200Y0047477D01*
X0010633Y0045045D01*
X0012250Y0044375D01*
X0024566Y0044375D01*
X0024744Y0044197D01*
X0026728Y0043375D01*
X0034876Y0043375D01*
X0036861Y0044197D01*
X0038380Y0045716D01*
X0039202Y0047701D01*
X0039202Y0049849D01*
X0038380Y0051834D01*
X0036861Y0053353D01*
X0034876Y0054175D01*
X0026728Y0054175D01*
X0024744Y0053353D01*
X0024566Y0053175D01*
X0014948Y0053175D01*
X0014100Y0054023D01*
X0014100Y0131119D01*
X0014197Y0131022D01*
X0015079Y0130656D01*
X0025300Y0130656D01*
X0025300Y0125075D01*
X0025970Y0123458D01*
X0027208Y0122220D01*
X0030958Y0118470D01*
X0032575Y0117800D01*
X0040377Y0117800D01*
X0041550Y0116627D01*
X0041550Y0068175D01*
X0037039Y0068175D01*
X0036861Y0068353D01*
X0034876Y0069175D01*
X0026728Y0069175D01*
X0024744Y0068353D01*
X0023224Y0066834D01*
X0022402Y0064849D01*
X0022402Y0062701D01*
X0023224Y0060716D01*
X0024744Y0059197D01*
X0026728Y0058375D01*
X0034876Y0058375D01*
X0036861Y0059197D01*
X0037039Y0059375D01*
X0044650Y0059375D01*
X0046267Y0060045D01*
X0048442Y0062220D01*
X0049680Y0063458D01*
X0050350Y0065075D01*
X0050350Y0119325D01*
X0049680Y0120942D01*
X0045930Y0124692D01*
X0044692Y0125930D01*
X0043075Y0126600D01*
X0035273Y0126600D01*
X0034100Y0127773D01*
X0034100Y0130656D01*
X0043534Y0130656D01*
X0044416Y0131022D01*
X0045091Y0131697D01*
X0045456Y0132579D01*
X0045456Y0147284D01*
X0045091Y0148166D01*
X0044416Y0148841D01*
X0043534Y0149206D01*
X0015079Y0149206D01*
X0014197Y0148841D01*
X0014100Y0148744D01*
X0014100Y0175377D01*
X0016523Y0177800D01*
X0079325Y0177800D01*
X0080942Y0178470D01*
X0082180Y0179708D01*
X0086230Y0183758D01*
X0086900Y0185375D01*
X0086900Y0200006D01*
X0088731Y0201837D01*
X0089850Y0204538D01*
X0089850Y0217362D01*
X0088731Y0220063D01*
X0086663Y0222131D01*
X0083962Y0223250D01*
X0081038Y0223250D01*
X0078337Y0222131D01*
X0076269Y0220063D01*
X0075150Y0217362D01*
X0075150Y0204538D01*
X0076269Y0201837D01*
X0078100Y0200006D01*
X0078100Y0188073D01*
X0076627Y0186600D01*
X0013825Y0186600D01*
X0012208Y0185930D01*
X0008200Y0181923D01*
X0008200Y0217144D01*
X0008703Y0217144D01*
X0011480Y0218294D01*
X0013606Y0220420D01*
X0014756Y0223197D01*
X0014756Y0223719D01*
X0182051Y0224497D01*
X0181704Y0224150D01*
X0170313Y0224150D01*
X0169137Y0223663D01*
X0168237Y0222763D01*
X0165737Y0220263D01*
X0165250Y0219087D01*
X0165250Y0181446D01*
X0164069Y0180265D01*
X0164069Y0176635D01*
X0166635Y0174069D01*
X0170265Y0174069D01*
X0172831Y0176635D01*
X0172831Y0180265D01*
X0171650Y0181446D01*
X0171650Y0217125D01*
X0172275Y0217750D01*
X0181704Y0217750D01*
X0182885Y0216569D01*
X0186515Y0216569D01*
X0189081Y0219135D01*
X0189081Y0222765D01*
X0187324Y0224522D01*
X0258394Y0224852D01*
X0258394Y0224447D01*
X0259544Y0221670D01*
X0261670Y0219544D01*
X0264447Y0218394D01*
X0264901Y0218394D01*
X0264901Y0131404D01*
X0262455Y0133850D01*
X0256945Y0133850D01*
X0253050Y0129955D01*
X0253050Y0124445D01*
X0256945Y0120550D01*
X0262455Y0120550D01*
X0264901Y0122996D01*
X0264901Y0016006D01*
X0264447Y0016006D01*
X0261670Y0014856D01*
X0259544Y0012730D01*
X0258394Y0009953D01*
X0258394Y0009392D01*
X0014756Y0008258D01*
X0014756Y0008703D01*
X0014756Y0008594D02*
X0086895Y0008594D01*
X0086267Y0026650D02*
X0083650Y0026650D01*
X0083650Y0033250D01*
X0083650Y0033650D01*
X0090250Y0033650D01*
X0090250Y0036267D01*
X0086267Y0040250D01*
X0083650Y0040250D01*
X0083650Y0033650D01*
X0083250Y0033650D01*
X0083250Y0040250D01*
X0080633Y0040250D01*
X0076650Y0036267D01*
X0076650Y0033650D01*
X0083250Y0033650D01*
X0083250Y0033250D01*
X0083650Y0033250D01*
X0090250Y0033250D01*
X0090250Y0030633D01*
X0086267Y0026650D01*
X0087393Y0027776D02*
X0177050Y0027776D01*
X0177050Y0026178D02*
X0065230Y0026178D01*
X0064922Y0026050D02*
X0067642Y0027177D01*
X0069723Y0029258D01*
X0070850Y0031978D01*
X0070850Y0034922D01*
X0069723Y0037642D01*
X0067850Y0039515D01*
X0067850Y0071135D01*
X0069723Y0073008D01*
X0070850Y0075728D01*
X0070850Y0078672D01*
X0069723Y0081392D01*
X0067642Y0083473D01*
X0064922Y0084600D01*
X0061978Y0084600D01*
X0059258Y0083473D01*
X0057177Y0081392D01*
X0056050Y0078672D01*
X0056050Y0075728D01*
X0057177Y0073008D01*
X0059050Y0071135D01*
X0059050Y0039515D01*
X0057710Y0038175D01*
X0037039Y0038175D01*
X0036861Y0038353D01*
X0034876Y0039175D01*
X0026728Y0039175D01*
X0024744Y0038353D01*
X0023224Y0036834D01*
X0022402Y0034849D01*
X0022402Y0032701D01*
X0023224Y0030716D01*
X0024744Y0029197D01*
X0026728Y0028375D01*
X0034876Y0028375D01*
X0036861Y0029197D01*
X0037039Y0029375D01*
X0057128Y0029375D01*
X0057177Y0029258D01*
X0059258Y0027177D01*
X0061978Y0026050D01*
X0064922Y0026050D01*
X0061670Y0026178D02*
X0008200Y0026178D01*
X0008200Y0027776D02*
X0058659Y0027776D01*
X0057128Y0029375D02*
X0037039Y0029375D01*
X0035381Y0038966D02*
X0058501Y0038966D01*
X0059050Y0040564D02*
X0008200Y0040564D01*
X0008200Y0038966D02*
X0026224Y0038966D01*
X0023758Y0037367D02*
X0008200Y0037367D01*
X0008200Y0035769D02*
X0022783Y0035769D01*
X0022402Y0034170D02*
X0008200Y0034170D01*
X0008200Y0032572D02*
X0022456Y0032572D01*
X0023118Y0030973D02*
X0008200Y0030973D01*
X0008200Y0029375D02*
X0024566Y0029375D01*
X0008200Y0024579D02*
X0177050Y0024579D01*
X0177050Y0022981D02*
X0008200Y0022981D01*
X0008200Y0021382D02*
X0177050Y0021382D01*
X0177050Y0019784D02*
X0008200Y0019784D01*
X0008200Y0018185D02*
X0177050Y0018185D01*
X0177050Y0017038D02*
X0178169Y0014337D01*
X0180237Y0012269D01*
X0182938Y0011150D01*
X0185862Y0011150D01*
X0188563Y0012269D01*
X0190631Y0014337D01*
X0191750Y0017038D01*
X0191750Y0029862D01*
X0190631Y0032563D01*
X0188563Y0034631D01*
X0185862Y0035750D01*
X0182938Y0035750D01*
X0180237Y0034631D01*
X0178169Y0032563D01*
X0177050Y0029862D01*
X0177050Y0017038D01*
X0177237Y0016587D02*
X0008200Y0016587D01*
X0008200Y0014988D02*
X0177899Y0014988D01*
X0179116Y0013390D02*
X0011696Y0013390D01*
X0013295Y0011791D02*
X0181390Y0011791D01*
X0187410Y0011791D02*
X0196990Y0011791D01*
X0195837Y0012269D02*
X0198538Y0011150D01*
X0201462Y0011150D01*
X0204163Y0012269D01*
X0206231Y0014337D01*
X0207350Y0017038D01*
X0207350Y0029862D01*
X0206231Y0032563D01*
X0204163Y0034631D01*
X0201462Y0035750D01*
X0198538Y0035750D01*
X0195837Y0034631D01*
X0193769Y0032563D01*
X0192650Y0029862D01*
X0192650Y0017038D01*
X0193769Y0014337D01*
X0195837Y0012269D01*
X0194716Y0013390D02*
X0189684Y0013390D01*
X0190901Y0014988D02*
X0193499Y0014988D01*
X0192837Y0016587D02*
X0191563Y0016587D01*
X0191750Y0018185D02*
X0192650Y0018185D01*
X0192650Y0019784D02*
X0191750Y0019784D01*
X0191750Y0021382D02*
X0192650Y0021382D01*
X0192650Y0022981D02*
X0191750Y0022981D01*
X0191750Y0024579D02*
X0192650Y0024579D01*
X0192650Y0026178D02*
X0191750Y0026178D01*
X0191750Y0027776D02*
X0192650Y0027776D01*
X0192650Y0029375D02*
X0191750Y0029375D01*
X0191290Y0030973D02*
X0193110Y0030973D01*
X0193777Y0032572D02*
X0190623Y0032572D01*
X0189024Y0034170D02*
X0195376Y0034170D01*
X0204624Y0034170D02*
X0264901Y0034170D01*
X0264901Y0032572D02*
X0206223Y0032572D01*
X0206890Y0030973D02*
X0264901Y0030973D01*
X0264901Y0029375D02*
X0207350Y0029375D01*
X0207350Y0027776D02*
X0264901Y0027776D01*
X0264901Y0026178D02*
X0207350Y0026178D01*
X0207350Y0024579D02*
X0264901Y0024579D01*
X0264901Y0022981D02*
X0207350Y0022981D01*
X0207350Y0021382D02*
X0264901Y0021382D01*
X0264901Y0019784D02*
X0207350Y0019784D01*
X0207350Y0018185D02*
X0264901Y0018185D01*
X0264901Y0016587D02*
X0207163Y0016587D01*
X0206501Y0014988D02*
X0261990Y0014988D01*
X0260204Y0013390D02*
X0205284Y0013390D01*
X0203010Y0011791D02*
X0259155Y0011791D01*
X0258493Y0010193D02*
X0014139Y0010193D01*
X0008200Y0042163D02*
X0059050Y0042163D01*
X0059050Y0043761D02*
X0035810Y0043761D01*
X0038024Y0045360D02*
X0059050Y0045360D01*
X0059050Y0046958D02*
X0038895Y0046958D01*
X0039202Y0048557D02*
X0059050Y0048557D01*
X0059050Y0050155D02*
X0039075Y0050155D01*
X0038413Y0051754D02*
X0059050Y0051754D01*
X0059050Y0053352D02*
X0036862Y0053352D01*
X0045547Y0059746D02*
X0059050Y0059746D01*
X0059050Y0058148D02*
X0014100Y0058148D01*
X0014100Y0059746D02*
X0024194Y0059746D01*
X0022964Y0061345D02*
X0014100Y0061345D01*
X0014100Y0062943D02*
X0022402Y0062943D01*
X0022402Y0064542D02*
X0014100Y0064542D01*
X0014100Y0066140D02*
X0022937Y0066140D01*
X0024130Y0067739D02*
X0014100Y0067739D01*
X0014100Y0069337D02*
X0041550Y0069337D01*
X0041550Y0070936D02*
X0014100Y0070936D01*
X0014100Y0072534D02*
X0041550Y0072534D01*
X0041550Y0074133D02*
X0035049Y0074133D01*
X0034926Y0074093D02*
X0035645Y0074326D01*
X0036318Y0074669D01*
X0036929Y0075114D01*
X0037464Y0075648D01*
X0037908Y0076259D01*
X0038251Y0076932D01*
X0038484Y0077651D01*
X0038602Y0078397D01*
X0038602Y0078575D01*
X0031002Y0078575D01*
X0031002Y0073975D01*
X0034180Y0073975D01*
X0034926Y0074093D01*
X0037524Y0075732D02*
X0041550Y0075732D01*
X0041550Y0077330D02*
X0038380Y0077330D01*
X0038602Y0078975D02*
X0038602Y0079153D01*
X0038484Y0079899D01*
X0038251Y0080617D01*
X0037908Y0081291D01*
X0037464Y0081902D01*
X0036929Y0082436D01*
X0036318Y0082880D01*
X0035645Y0083223D01*
X0034926Y0083457D01*
X0034180Y0083575D01*
X0031002Y0083575D01*
X0031002Y0078975D01*
X0030602Y0078975D01*
X0030602Y0078575D01*
X0023002Y0078575D01*
X0023002Y0078397D01*
X0023121Y0077651D01*
X0023354Y0076932D01*
X0023697Y0076259D01*
X0024141Y0075648D01*
X0024675Y0075114D01*
X0025287Y0074669D01*
X0025960Y0074326D01*
X0026678Y0074093D01*
X0027425Y0073975D01*
X0030602Y0073975D01*
X0030602Y0078575D01*
X0031002Y0078575D01*
X0031002Y0078975D01*
X0038602Y0078975D01*
X0038280Y0080527D02*
X0041550Y0080527D01*
X0041550Y0078929D02*
X0031002Y0078929D01*
X0030602Y0078929D02*
X0014100Y0078929D01*
X0014100Y0080527D02*
X0023325Y0080527D01*
X0023354Y0080617D02*
X0023121Y0079899D01*
X0023002Y0079153D01*
X0023002Y0078975D01*
X0030602Y0078975D01*
X0030602Y0083575D01*
X0027425Y0083575D01*
X0026678Y0083457D01*
X0025960Y0083223D01*
X0025287Y0082880D01*
X0024675Y0082436D01*
X0024141Y0081902D01*
X0023697Y0081291D01*
X0023354Y0080617D01*
X0024365Y0082126D02*
X0014100Y0082126D01*
X0014100Y0083724D02*
X0041550Y0083724D01*
X0041550Y0082126D02*
X0037240Y0082126D01*
X0041550Y0085323D02*
X0014100Y0085323D01*
X0014100Y0086921D02*
X0041550Y0086921D01*
X0041550Y0088520D02*
X0014100Y0088520D01*
X0014100Y0090118D02*
X0041550Y0090118D01*
X0041550Y0091717D02*
X0014100Y0091717D01*
X0014100Y0093315D02*
X0041550Y0093315D01*
X0041550Y0094914D02*
X0014100Y0094914D01*
X0014100Y0096512D02*
X0041550Y0096512D01*
X0041550Y0098111D02*
X0014100Y0098111D01*
X0014100Y0099709D02*
X0041550Y0099709D01*
X0041550Y0101308D02*
X0014100Y0101308D01*
X0014100Y0102906D02*
X0041550Y0102906D01*
X0041550Y0104505D02*
X0014100Y0104505D01*
X0014100Y0106103D02*
X0041550Y0106103D01*
X0041550Y0107702D02*
X0014100Y0107702D01*
X0014100Y0109300D02*
X0041550Y0109300D01*
X0041550Y0110899D02*
X0014100Y0110899D01*
X0014100Y0112497D02*
X0041550Y0112497D01*
X0041550Y0114096D02*
X0014100Y0114096D01*
X0014100Y0115694D02*
X0041550Y0115694D01*
X0040885Y0117293D02*
X0014100Y0117293D01*
X0014100Y0118891D02*
X0030536Y0118891D01*
X0028938Y0120490D02*
X0014100Y0120490D01*
X0014100Y0122088D02*
X0027339Y0122088D01*
X0025875Y0123687D02*
X0014100Y0123687D01*
X0014100Y0125285D02*
X0025300Y0125285D01*
X0025300Y0126884D02*
X0014100Y0126884D01*
X0014100Y0128482D02*
X0025300Y0128482D01*
X0025300Y0130081D02*
X0014100Y0130081D01*
X0034100Y0130081D02*
X0196500Y0130081D01*
X0196500Y0131679D02*
X0045074Y0131679D01*
X0045456Y0133278D02*
X0172426Y0133278D01*
X0172885Y0132819D02*
X0170319Y0135385D01*
X0170319Y0139015D01*
X0171500Y0140196D01*
X0171500Y0161587D01*
X0171987Y0162763D01*
X0176987Y0167763D01*
X0177887Y0168663D01*
X0179063Y0169150D01*
X0237954Y0169150D01*
X0239135Y0170331D01*
X0242765Y0170331D01*
X0245331Y0167765D01*
X0245331Y0164135D01*
X0242765Y0161569D01*
X0239135Y0161569D01*
X0237954Y0162750D01*
X0181025Y0162750D01*
X0177900Y0159625D01*
X0177900Y0140196D01*
X0179081Y0139015D01*
X0179081Y0135385D01*
X0176515Y0132819D01*
X0172885Y0132819D01*
X0170828Y0134876D02*
X0164694Y0134876D01*
X0164251Y0134433D02*
X0166817Y0136999D01*
X0166817Y0140629D01*
X0164251Y0143195D01*
X0160622Y0143195D01*
X0159440Y0142014D01*
X0092991Y0142014D01*
X0091810Y0143195D01*
X0088181Y0143195D01*
X0085614Y0140629D01*
X0085614Y0136999D01*
X0088181Y0134433D01*
X0091810Y0134433D01*
X0092991Y0135614D01*
X0159440Y0135614D01*
X0160622Y0134433D01*
X0164251Y0134433D01*
X0166293Y0136475D02*
X0170319Y0136475D01*
X0170319Y0138073D02*
X0166817Y0138073D01*
X0166817Y0139672D02*
X0170976Y0139672D01*
X0171500Y0141270D02*
X0166176Y0141270D01*
X0164577Y0142869D02*
X0171500Y0142869D01*
X0171500Y0144468D02*
X0045456Y0144468D01*
X0045456Y0146066D02*
X0171500Y0146066D01*
X0171500Y0147665D02*
X0045299Y0147665D01*
X0045456Y0142869D02*
X0087854Y0142869D01*
X0086256Y0141270D02*
X0045456Y0141270D01*
X0045456Y0139672D02*
X0085614Y0139672D01*
X0085614Y0138073D02*
X0045456Y0138073D01*
X0045456Y0136475D02*
X0086139Y0136475D01*
X0087737Y0134876D02*
X0045456Y0134876D01*
X0045337Y0125285D02*
X0196500Y0125285D01*
X0196500Y0123687D02*
X0046936Y0123687D01*
X0048534Y0122088D02*
X0196500Y0122088D01*
X0196500Y0120490D02*
X0049868Y0120490D01*
X0050350Y0118891D02*
X0196500Y0118891D01*
X0196500Y0117293D02*
X0050350Y0117293D01*
X0050350Y0115694D02*
X0196500Y0115694D01*
X0196500Y0114096D02*
X0050350Y0114096D01*
X0050350Y0112497D02*
X0196500Y0112497D01*
X0196500Y0110899D02*
X0050350Y0110899D01*
X0050350Y0109300D02*
X0196500Y0109300D01*
X0196500Y0107702D02*
X0050350Y0107702D01*
X0050350Y0106103D02*
X0196500Y0106103D01*
X0196500Y0104505D02*
X0050350Y0104505D01*
X0050350Y0102906D02*
X0196500Y0102906D01*
X0196500Y0101308D02*
X0050350Y0101308D01*
X0050350Y0099709D02*
X0196500Y0099709D01*
X0196500Y0098111D02*
X0050350Y0098111D01*
X0050350Y0096512D02*
X0196500Y0096512D01*
X0196500Y0094914D02*
X0050350Y0094914D01*
X0050350Y0093315D02*
X0196500Y0093315D01*
X0196500Y0091717D02*
X0050350Y0091717D01*
X0050350Y0090118D02*
X0196500Y0090118D01*
X0196500Y0088520D02*
X0050350Y0088520D01*
X0050350Y0086921D02*
X0196500Y0086921D01*
X0196500Y0085323D02*
X0050350Y0085323D01*
X0050350Y0083724D02*
X0059863Y0083724D01*
X0057910Y0082126D02*
X0050350Y0082126D01*
X0050350Y0080527D02*
X0056818Y0080527D01*
X0056156Y0078929D02*
X0050350Y0078929D01*
X0050350Y0077330D02*
X0056050Y0077330D01*
X0056050Y0075732D02*
X0050350Y0075732D01*
X0050350Y0074133D02*
X0056711Y0074133D01*
X0057650Y0072534D02*
X0050350Y0072534D01*
X0050350Y0070936D02*
X0059050Y0070936D01*
X0059050Y0069337D02*
X0050350Y0069337D01*
X0050350Y0067739D02*
X0059050Y0067739D01*
X0059050Y0066140D02*
X0050350Y0066140D01*
X0050129Y0064542D02*
X0059050Y0064542D01*
X0059050Y0062943D02*
X0049166Y0062943D01*
X0047567Y0061345D02*
X0059050Y0061345D01*
X0059050Y0056549D02*
X0014100Y0056549D01*
X0014100Y0054951D02*
X0059050Y0054951D01*
X0067850Y0054951D02*
X0122727Y0054951D01*
X0122550Y0054524D02*
X0122550Y0052376D01*
X0123372Y0050391D01*
X0124891Y0048872D01*
X0126876Y0048050D01*
X0135024Y0048050D01*
X0137009Y0048872D01*
X0138528Y0050391D01*
X0139350Y0052376D01*
X0139350Y0054524D01*
X0138528Y0056509D01*
X0137009Y0058028D01*
X0135024Y0058850D01*
X0126876Y0058850D01*
X0124891Y0058028D01*
X0123372Y0056509D01*
X0122550Y0054524D01*
X0122550Y0053352D02*
X0067850Y0053352D01*
X0067850Y0051754D02*
X0122808Y0051754D01*
X0123608Y0050155D02*
X0067850Y0050155D01*
X0067850Y0048557D02*
X0125652Y0048557D01*
X0136248Y0048557D02*
X0264901Y0048557D01*
X0264901Y0050155D02*
X0138292Y0050155D01*
X0139092Y0051754D02*
X0235742Y0051754D01*
X0236945Y0050550D02*
X0233050Y0054445D01*
X0233050Y0059955D01*
X0236945Y0063850D01*
X0242455Y0063850D01*
X0246350Y0059955D01*
X0246350Y0054445D01*
X0242455Y0050550D01*
X0236945Y0050550D01*
X0234143Y0053352D02*
X0202048Y0053352D01*
X0201515Y0052819D02*
X0204081Y0055385D01*
X0204081Y0059015D01*
X0202900Y0060196D01*
X0202900Y0132954D01*
X0204081Y0134135D01*
X0204081Y0137765D01*
X0201515Y0140331D01*
X0197885Y0140331D01*
X0195319Y0137765D01*
X0195319Y0134135D01*
X0196500Y0132954D01*
X0196500Y0060196D01*
X0195319Y0059015D01*
X0195319Y0055385D01*
X0197885Y0052819D01*
X0201515Y0052819D01*
X0203647Y0054951D02*
X0233050Y0054951D01*
X0233050Y0056549D02*
X0204081Y0056549D01*
X0204081Y0058148D02*
X0233050Y0058148D01*
X0233050Y0059746D02*
X0203349Y0059746D01*
X0202900Y0061345D02*
X0234440Y0061345D01*
X0236039Y0062943D02*
X0202900Y0062943D01*
X0202900Y0064542D02*
X0264901Y0064542D01*
X0264901Y0066140D02*
X0202900Y0066140D01*
X0202900Y0067739D02*
X0264901Y0067739D01*
X0264901Y0069337D02*
X0202900Y0069337D01*
X0202900Y0070936D02*
X0264901Y0070936D01*
X0264901Y0072534D02*
X0202900Y0072534D01*
X0202900Y0074133D02*
X0236711Y0074133D01*
X0237194Y0073650D02*
X0239500Y0073650D01*
X0239500Y0079500D01*
X0239900Y0079500D01*
X0239900Y0079900D01*
X0245750Y0079900D01*
X0245750Y0082206D01*
X0242206Y0085750D01*
X0239900Y0085750D01*
X0239900Y0079900D01*
X0239500Y0079900D01*
X0239500Y0085750D01*
X0237194Y0085750D01*
X0233650Y0082206D01*
X0233650Y0079900D01*
X0239500Y0079900D01*
X0239500Y0079500D01*
X0233650Y0079500D01*
X0233650Y0077194D01*
X0237194Y0073650D01*
X0239500Y0074133D02*
X0239900Y0074133D01*
X0239900Y0073650D02*
X0242206Y0073650D01*
X0245750Y0077194D01*
X0245750Y0079500D01*
X0239900Y0079500D01*
X0239900Y0073650D01*
X0239900Y0075732D02*
X0239500Y0075732D01*
X0239500Y0077330D02*
X0239900Y0077330D01*
X0239900Y0078929D02*
X0239500Y0078929D01*
X0239500Y0080527D02*
X0239900Y0080527D01*
X0239900Y0082126D02*
X0239500Y0082126D01*
X0239500Y0083724D02*
X0239900Y0083724D01*
X0239900Y0085323D02*
X0239500Y0085323D01*
X0236767Y0085323D02*
X0202900Y0085323D01*
X0202900Y0086921D02*
X0264901Y0086921D01*
X0264901Y0085323D02*
X0242633Y0085323D01*
X0244232Y0083724D02*
X0264901Y0083724D01*
X0264901Y0082126D02*
X0245750Y0082126D01*
X0245750Y0080527D02*
X0264901Y0080527D01*
X0264901Y0078929D02*
X0245750Y0078929D01*
X0245750Y0077330D02*
X0264901Y0077330D01*
X0264901Y0075732D02*
X0244287Y0075732D01*
X0242689Y0074133D02*
X0264901Y0074133D01*
X0264901Y0062943D02*
X0243361Y0062943D01*
X0244960Y0061345D02*
X0264901Y0061345D01*
X0264901Y0059746D02*
X0246350Y0059746D01*
X0246350Y0058148D02*
X0264901Y0058148D01*
X0264901Y0056549D02*
X0246350Y0056549D01*
X0246350Y0054951D02*
X0264901Y0054951D01*
X0264901Y0053352D02*
X0245257Y0053352D01*
X0243658Y0051754D02*
X0264901Y0051754D01*
X0264901Y0046958D02*
X0067850Y0046958D01*
X0067850Y0045360D02*
X0264901Y0045360D01*
X0264901Y0043761D02*
X0067850Y0043761D01*
X0067850Y0042163D02*
X0264901Y0042163D01*
X0264901Y0040564D02*
X0067850Y0040564D01*
X0068399Y0038966D02*
X0079349Y0038966D01*
X0077751Y0037367D02*
X0069837Y0037367D01*
X0070499Y0035769D02*
X0076650Y0035769D01*
X0076650Y0034170D02*
X0070850Y0034170D01*
X0070850Y0032572D02*
X0076650Y0032572D01*
X0076650Y0033250D02*
X0076650Y0030633D01*
X0080633Y0026650D01*
X0083250Y0026650D01*
X0083250Y0033250D01*
X0076650Y0033250D01*
X0076650Y0030973D02*
X0070434Y0030973D01*
X0069772Y0029375D02*
X0077909Y0029375D01*
X0079507Y0027776D02*
X0068241Y0027776D01*
X0083250Y0027776D02*
X0083650Y0027776D01*
X0083650Y0029375D02*
X0083250Y0029375D01*
X0083250Y0030973D02*
X0083650Y0030973D01*
X0083650Y0032572D02*
X0083250Y0032572D01*
X0083250Y0034170D02*
X0083650Y0034170D01*
X0083650Y0035769D02*
X0083250Y0035769D01*
X0083250Y0037367D02*
X0083650Y0037367D01*
X0083650Y0038966D02*
X0083250Y0038966D01*
X0087551Y0038966D02*
X0264901Y0038966D01*
X0264901Y0037367D02*
X0089149Y0037367D01*
X0090250Y0035769D02*
X0264901Y0035769D01*
X0235112Y0075732D02*
X0202900Y0075732D01*
X0202900Y0077330D02*
X0233650Y0077330D01*
X0233650Y0078929D02*
X0202900Y0078929D01*
X0202900Y0080527D02*
X0233650Y0080527D01*
X0233650Y0082126D02*
X0202900Y0082126D01*
X0202900Y0083724D02*
X0235168Y0083724D01*
X0264901Y0088520D02*
X0202900Y0088520D01*
X0202900Y0090118D02*
X0264901Y0090118D01*
X0264901Y0091717D02*
X0202900Y0091717D01*
X0202900Y0093315D02*
X0264901Y0093315D01*
X0264901Y0094914D02*
X0202900Y0094914D01*
X0202900Y0096512D02*
X0264901Y0096512D01*
X0264901Y0098111D02*
X0202900Y0098111D01*
X0202900Y0099709D02*
X0264901Y0099709D01*
X0264901Y0101308D02*
X0202900Y0101308D01*
X0202900Y0102906D02*
X0264901Y0102906D01*
X0264901Y0104505D02*
X0202900Y0104505D01*
X0202900Y0106103D02*
X0264901Y0106103D01*
X0264901Y0107702D02*
X0202900Y0107702D01*
X0202900Y0109300D02*
X0264901Y0109300D01*
X0264901Y0110899D02*
X0202900Y0110899D01*
X0202900Y0112497D02*
X0264901Y0112497D01*
X0264901Y0114096D02*
X0202900Y0114096D01*
X0202900Y0115694D02*
X0264901Y0115694D01*
X0264901Y0117293D02*
X0202900Y0117293D01*
X0202900Y0118891D02*
X0264901Y0118891D01*
X0264901Y0120490D02*
X0202900Y0120490D01*
X0202900Y0122088D02*
X0240407Y0122088D01*
X0241945Y0120550D02*
X0238050Y0124445D01*
X0238050Y0129955D01*
X0241945Y0133850D01*
X0247455Y0133850D01*
X0251350Y0129955D01*
X0251350Y0124445D01*
X0247455Y0120550D01*
X0241945Y0120550D01*
X0238809Y0123687D02*
X0202900Y0123687D01*
X0202900Y0125285D02*
X0238050Y0125285D01*
X0238050Y0126884D02*
X0202900Y0126884D01*
X0202900Y0128482D02*
X0238050Y0128482D01*
X0238176Y0130081D02*
X0202900Y0130081D01*
X0202900Y0131679D02*
X0239775Y0131679D01*
X0241373Y0133278D02*
X0203224Y0133278D01*
X0204081Y0134876D02*
X0264901Y0134876D01*
X0264901Y0133278D02*
X0263027Y0133278D01*
X0264625Y0131679D02*
X0264901Y0131679D01*
X0264901Y0136475D02*
X0204081Y0136475D01*
X0203772Y0138073D02*
X0264901Y0138073D01*
X0264901Y0139672D02*
X0202174Y0139672D01*
X0199700Y0135950D02*
X0199700Y0057200D01*
X0195319Y0056549D02*
X0138487Y0056549D01*
X0139173Y0054951D02*
X0195753Y0054951D01*
X0197352Y0053352D02*
X0139350Y0053352D01*
X0136719Y0058148D02*
X0195319Y0058148D01*
X0196051Y0059746D02*
X0067850Y0059746D01*
X0067850Y0058148D02*
X0125181Y0058148D01*
X0123413Y0056549D02*
X0067850Y0056549D01*
X0067850Y0061345D02*
X0196500Y0061345D01*
X0196500Y0062943D02*
X0067850Y0062943D01*
X0067850Y0064542D02*
X0196500Y0064542D01*
X0196500Y0066140D02*
X0136450Y0066140D01*
X0137009Y0066372D02*
X0135024Y0065550D01*
X0126876Y0065550D01*
X0124891Y0066372D01*
X0123372Y0067891D01*
X0122550Y0069876D01*
X0122550Y0072024D01*
X0123372Y0074009D01*
X0124891Y0075528D01*
X0126876Y0076350D01*
X0135024Y0076350D01*
X0137009Y0075528D01*
X0138528Y0074009D01*
X0139350Y0072024D01*
X0139350Y0069876D01*
X0138528Y0067891D01*
X0137009Y0066372D01*
X0138376Y0067739D02*
X0196500Y0067739D01*
X0196500Y0069337D02*
X0139127Y0069337D01*
X0139350Y0070936D02*
X0196500Y0070936D01*
X0196500Y0072534D02*
X0139139Y0072534D01*
X0138404Y0074133D02*
X0196500Y0074133D01*
X0196500Y0075732D02*
X0136517Y0075732D01*
X0125383Y0075732D02*
X0090250Y0075732D01*
X0090250Y0077000D02*
X0090250Y0074383D01*
X0086267Y0070400D01*
X0083650Y0070400D01*
X0083650Y0077000D01*
X0083650Y0077400D01*
X0090250Y0077400D01*
X0090250Y0080017D01*
X0086267Y0084000D01*
X0083650Y0084000D01*
X0083650Y0077400D01*
X0083250Y0077400D01*
X0083250Y0084000D01*
X0080633Y0084000D01*
X0076650Y0080017D01*
X0076650Y0077400D01*
X0083250Y0077400D01*
X0083250Y0077000D01*
X0083650Y0077000D01*
X0090250Y0077000D01*
X0090250Y0078929D02*
X0196500Y0078929D01*
X0196500Y0080527D02*
X0089740Y0080527D01*
X0088141Y0082126D02*
X0196500Y0082126D01*
X0196500Y0083724D02*
X0086543Y0083724D01*
X0083650Y0083724D02*
X0083250Y0083724D01*
X0083250Y0082126D02*
X0083650Y0082126D01*
X0083650Y0080527D02*
X0083250Y0080527D01*
X0083250Y0078929D02*
X0083650Y0078929D01*
X0083650Y0077330D02*
X0196500Y0077330D01*
X0179776Y0034170D02*
X0090250Y0034170D01*
X0090250Y0032572D02*
X0178177Y0032572D01*
X0177510Y0030973D02*
X0090250Y0030973D01*
X0088991Y0029375D02*
X0177050Y0029375D01*
X0125450Y0066140D02*
X0067850Y0066140D01*
X0067850Y0067739D02*
X0123524Y0067739D01*
X0122773Y0069337D02*
X0067850Y0069337D01*
X0067850Y0070936D02*
X0080097Y0070936D01*
X0080633Y0070400D02*
X0083250Y0070400D01*
X0083250Y0077000D01*
X0076650Y0077000D01*
X0076650Y0074383D01*
X0080633Y0070400D01*
X0083250Y0070936D02*
X0083650Y0070936D01*
X0083650Y0072534D02*
X0083250Y0072534D01*
X0083250Y0074133D02*
X0083650Y0074133D01*
X0083650Y0075732D02*
X0083250Y0075732D01*
X0083250Y0077330D02*
X0070850Y0077330D01*
X0070850Y0075732D02*
X0076650Y0075732D01*
X0076900Y0074133D02*
X0070189Y0074133D01*
X0069250Y0072534D02*
X0078499Y0072534D01*
X0076650Y0078929D02*
X0070744Y0078929D01*
X0070082Y0080527D02*
X0077160Y0080527D01*
X0078759Y0082126D02*
X0068990Y0082126D01*
X0067037Y0083724D02*
X0080357Y0083724D01*
X0090000Y0074133D02*
X0123496Y0074133D01*
X0122761Y0072534D02*
X0088401Y0072534D01*
X0086803Y0070936D02*
X0122550Y0070936D01*
X0092253Y0134876D02*
X0160178Y0134876D01*
X0162436Y0138814D02*
X0089995Y0138814D01*
X0092136Y0142869D02*
X0160295Y0142869D01*
X0171500Y0149263D02*
X0014100Y0149263D01*
X0014100Y0150862D02*
X0171500Y0150862D01*
X0171500Y0152460D02*
X0014100Y0152460D01*
X0014100Y0154059D02*
X0171500Y0154059D01*
X0171500Y0155657D02*
X0014100Y0155657D01*
X0014100Y0157256D02*
X0171500Y0157256D01*
X0171500Y0158854D02*
X0014100Y0158854D01*
X0014100Y0160453D02*
X0171500Y0160453D01*
X0171692Y0162051D02*
X0014100Y0162051D01*
X0014100Y0163650D02*
X0172874Y0163650D01*
X0174473Y0165248D02*
X0014100Y0165248D01*
X0014100Y0166847D02*
X0176071Y0166847D01*
X0177670Y0168445D02*
X0014100Y0168445D01*
X0014100Y0170044D02*
X0238848Y0170044D01*
X0243052Y0170044D02*
X0264901Y0170044D01*
X0264901Y0171642D02*
X0014100Y0171642D01*
X0014100Y0173241D02*
X0264901Y0173241D01*
X0264901Y0174839D02*
X0171035Y0174839D01*
X0172634Y0176438D02*
X0264901Y0176438D01*
X0264901Y0178036D02*
X0172831Y0178036D01*
X0172831Y0179635D02*
X0264901Y0179635D01*
X0264901Y0181233D02*
X0171863Y0181233D01*
X0171650Y0182832D02*
X0264901Y0182832D01*
X0264901Y0184430D02*
X0171650Y0184430D01*
X0171650Y0186029D02*
X0264901Y0186029D01*
X0264901Y0187627D02*
X0171650Y0187627D01*
X0171650Y0189226D02*
X0264901Y0189226D01*
X0264901Y0190824D02*
X0171650Y0190824D01*
X0171650Y0192423D02*
X0264901Y0192423D01*
X0264901Y0194021D02*
X0171650Y0194021D01*
X0171650Y0195620D02*
X0264901Y0195620D01*
X0264901Y0197218D02*
X0171650Y0197218D01*
X0171650Y0198817D02*
X0264901Y0198817D01*
X0264901Y0200415D02*
X0171650Y0200415D01*
X0171650Y0202014D02*
X0264901Y0202014D01*
X0264901Y0203612D02*
X0171650Y0203612D01*
X0171650Y0205211D02*
X0264901Y0205211D01*
X0264901Y0206809D02*
X0171650Y0206809D01*
X0171650Y0208408D02*
X0264901Y0208408D01*
X0264901Y0210006D02*
X0171650Y0210006D01*
X0171650Y0211605D02*
X0264901Y0211605D01*
X0264901Y0213203D02*
X0171650Y0213203D01*
X0171650Y0214802D02*
X0264901Y0214802D01*
X0264901Y0216401D02*
X0171650Y0216401D01*
X0168450Y0218450D02*
X0170950Y0220950D01*
X0184700Y0220950D01*
X0187945Y0217999D02*
X0264901Y0217999D01*
X0261617Y0219598D02*
X0189081Y0219598D01*
X0189081Y0221196D02*
X0260018Y0221196D01*
X0259079Y0222795D02*
X0189051Y0222795D01*
X0187453Y0224393D02*
X0258416Y0224393D01*
X0264901Y0168445D02*
X0244651Y0168445D01*
X0245331Y0166847D02*
X0264901Y0166847D01*
X0264901Y0165248D02*
X0245331Y0165248D01*
X0244845Y0163650D02*
X0264901Y0163650D01*
X0264901Y0162051D02*
X0243247Y0162051D01*
X0240950Y0165950D02*
X0179700Y0165950D01*
X0174700Y0160950D01*
X0174700Y0137200D01*
X0176974Y0133278D02*
X0196176Y0133278D01*
X0195319Y0134876D02*
X0178572Y0134876D01*
X0179081Y0136475D02*
X0195319Y0136475D01*
X0195628Y0138073D02*
X0179081Y0138073D01*
X0178424Y0139672D02*
X0197226Y0139672D01*
X0196500Y0128482D02*
X0034100Y0128482D01*
X0034989Y0126884D02*
X0196500Y0126884D01*
X0177900Y0141270D02*
X0264901Y0141270D01*
X0264901Y0142869D02*
X0177900Y0142869D01*
X0177900Y0144468D02*
X0264901Y0144468D01*
X0264901Y0146066D02*
X0177900Y0146066D01*
X0177900Y0147665D02*
X0264901Y0147665D01*
X0264901Y0149263D02*
X0177900Y0149263D01*
X0177900Y0150862D02*
X0264901Y0150862D01*
X0264901Y0152460D02*
X0177900Y0152460D01*
X0177900Y0154059D02*
X0264901Y0154059D01*
X0264901Y0155657D02*
X0177900Y0155657D01*
X0177900Y0157256D02*
X0264901Y0157256D01*
X0264901Y0158854D02*
X0177900Y0158854D01*
X0178728Y0160453D02*
X0264901Y0160453D01*
X0238653Y0162051D02*
X0180327Y0162051D01*
X0165865Y0174839D02*
X0014100Y0174839D01*
X0015160Y0176438D02*
X0164266Y0176438D01*
X0164069Y0178036D02*
X0079896Y0178036D01*
X0082107Y0179635D02*
X0164069Y0179635D01*
X0165037Y0181233D02*
X0083706Y0181233D01*
X0085304Y0182832D02*
X0165250Y0182832D01*
X0165250Y0184430D02*
X0086509Y0184430D01*
X0086900Y0186029D02*
X0110217Y0186029D01*
X0110695Y0185550D02*
X0116205Y0185550D01*
X0120100Y0189445D01*
X0120100Y0194955D01*
X0116805Y0198249D01*
X0119500Y0200944D01*
X0119500Y0203250D01*
X0113650Y0203250D01*
X0113650Y0203650D01*
X0119500Y0203650D01*
X0119500Y0205956D01*
X0116805Y0208651D01*
X0120100Y0211945D01*
X0120100Y0217455D01*
X0116205Y0221350D01*
X0110695Y0221350D01*
X0106800Y0217455D01*
X0106800Y0211945D01*
X0110095Y0208651D01*
X0107400Y0205956D01*
X0107400Y0203650D01*
X0113250Y0203650D01*
X0113250Y0203250D01*
X0107400Y0203250D01*
X0107400Y0200944D01*
X0110095Y0198249D01*
X0106800Y0194955D01*
X0106800Y0189445D01*
X0110695Y0185550D01*
X0108618Y0187627D02*
X0086900Y0187627D01*
X0086900Y0189226D02*
X0107020Y0189226D01*
X0106800Y0190824D02*
X0086900Y0190824D01*
X0086900Y0192423D02*
X0106800Y0192423D01*
X0106800Y0194021D02*
X0086900Y0194021D01*
X0086900Y0195620D02*
X0107465Y0195620D01*
X0109064Y0197218D02*
X0086900Y0197218D01*
X0086900Y0198817D02*
X0109527Y0198817D01*
X0107929Y0200415D02*
X0087310Y0200415D01*
X0088804Y0202014D02*
X0107400Y0202014D01*
X0107400Y0205211D02*
X0089850Y0205211D01*
X0089850Y0206809D02*
X0108253Y0206809D01*
X0109852Y0208408D02*
X0089850Y0208408D01*
X0089850Y0210006D02*
X0108739Y0210006D01*
X0107141Y0211605D02*
X0089850Y0211605D01*
X0089850Y0213203D02*
X0106800Y0213203D01*
X0106800Y0214802D02*
X0089850Y0214802D01*
X0089850Y0216401D02*
X0106800Y0216401D01*
X0107345Y0217999D02*
X0089586Y0217999D01*
X0088924Y0219598D02*
X0108943Y0219598D01*
X0110542Y0221196D02*
X0087598Y0221196D01*
X0085062Y0222795D02*
X0168269Y0222795D01*
X0166671Y0221196D02*
X0116358Y0221196D01*
X0117957Y0219598D02*
X0165462Y0219598D01*
X0165250Y0217999D02*
X0119555Y0217999D01*
X0120100Y0216401D02*
X0165250Y0216401D01*
X0165250Y0214802D02*
X0120100Y0214802D01*
X0120100Y0213203D02*
X0165250Y0213203D01*
X0165250Y0211605D02*
X0119759Y0211605D01*
X0118161Y0210006D02*
X0165250Y0210006D01*
X0165250Y0208408D02*
X0117048Y0208408D01*
X0118647Y0206809D02*
X0165250Y0206809D01*
X0165250Y0205211D02*
X0119500Y0205211D01*
X0119500Y0202014D02*
X0165250Y0202014D01*
X0165250Y0203612D02*
X0113650Y0203612D01*
X0113250Y0203612D02*
X0089467Y0203612D01*
X0077690Y0200415D02*
X0071710Y0200415D01*
X0071063Y0199769D02*
X0073131Y0201837D01*
X0074250Y0204538D01*
X0074250Y0217362D01*
X0073131Y0220063D01*
X0071063Y0222131D01*
X0068362Y0223250D01*
X0065438Y0223250D01*
X0062737Y0222131D01*
X0060669Y0220063D01*
X0059550Y0217362D01*
X0059550Y0204538D01*
X0059731Y0204100D01*
X0045850Y0204100D01*
X0045850Y0207284D01*
X0045485Y0208166D01*
X0044809Y0208841D01*
X0043927Y0209206D01*
X0015473Y0209206D01*
X0014591Y0208841D01*
X0013915Y0208166D01*
X0013550Y0207284D01*
X0013550Y0192579D01*
X0013915Y0191697D01*
X0014591Y0191022D01*
X0015473Y0190656D01*
X0043927Y0190656D01*
X0044809Y0191022D01*
X0045485Y0191697D01*
X0045850Y0192579D01*
X0045850Y0195300D01*
X0064325Y0195300D01*
X0065942Y0195970D01*
X0068807Y0198834D01*
X0071063Y0199769D01*
X0068789Y0198817D02*
X0078100Y0198817D01*
X0078100Y0197218D02*
X0067191Y0197218D01*
X0065097Y0195620D02*
X0078100Y0195620D01*
X0078100Y0194021D02*
X0045850Y0194021D01*
X0045785Y0192423D02*
X0078100Y0192423D01*
X0078100Y0190824D02*
X0044333Y0190824D01*
X0045850Y0205211D02*
X0059550Y0205211D01*
X0059550Y0206809D02*
X0045850Y0206809D01*
X0045242Y0208408D02*
X0059550Y0208408D01*
X0059550Y0210006D02*
X0008200Y0210006D01*
X0008200Y0208408D02*
X0014158Y0208408D01*
X0013550Y0206809D02*
X0008200Y0206809D01*
X0008200Y0205211D02*
X0013550Y0205211D01*
X0013550Y0203612D02*
X0008200Y0203612D01*
X0008200Y0202014D02*
X0013550Y0202014D01*
X0013550Y0200415D02*
X0008200Y0200415D01*
X0008200Y0198817D02*
X0013550Y0198817D01*
X0013550Y0197218D02*
X0008200Y0197218D01*
X0008200Y0195620D02*
X0013550Y0195620D01*
X0013550Y0194021D02*
X0008200Y0194021D01*
X0008200Y0192423D02*
X0013615Y0192423D01*
X0015067Y0190824D02*
X0008200Y0190824D01*
X0008200Y0189226D02*
X0078100Y0189226D01*
X0077655Y0187627D02*
X0008200Y0187627D01*
X0008200Y0186029D02*
X0012446Y0186029D01*
X0010708Y0184430D02*
X0008200Y0184430D01*
X0008200Y0182832D02*
X0009109Y0182832D01*
X0008200Y0211605D02*
X0059550Y0211605D01*
X0059550Y0213203D02*
X0008200Y0213203D01*
X0008200Y0214802D02*
X0059550Y0214802D01*
X0059550Y0216401D02*
X0008200Y0216401D01*
X0010767Y0217999D02*
X0059814Y0217999D01*
X0060476Y0219598D02*
X0012783Y0219598D01*
X0013927Y0221196D02*
X0061802Y0221196D01*
X0064338Y0222795D02*
X0014589Y0222795D01*
X0069462Y0222795D02*
X0079938Y0222795D01*
X0077402Y0221196D02*
X0071998Y0221196D01*
X0073324Y0219598D02*
X0076076Y0219598D01*
X0075414Y0217999D02*
X0073986Y0217999D01*
X0074250Y0216401D02*
X0075150Y0216401D01*
X0075150Y0214802D02*
X0074250Y0214802D01*
X0074250Y0213203D02*
X0075150Y0213203D01*
X0075150Y0211605D02*
X0074250Y0211605D01*
X0074250Y0210006D02*
X0075150Y0210006D01*
X0075150Y0208408D02*
X0074250Y0208408D01*
X0074250Y0206809D02*
X0075150Y0206809D01*
X0075150Y0205211D02*
X0074250Y0205211D01*
X0073867Y0203612D02*
X0075533Y0203612D01*
X0076195Y0202014D02*
X0073204Y0202014D01*
X0117373Y0198817D02*
X0165250Y0198817D01*
X0165250Y0200415D02*
X0118971Y0200415D01*
X0117836Y0197218D02*
X0165250Y0197218D01*
X0165250Y0195620D02*
X0119435Y0195620D01*
X0120100Y0194021D02*
X0165250Y0194021D01*
X0165250Y0192423D02*
X0120100Y0192423D01*
X0120100Y0190824D02*
X0165250Y0190824D01*
X0165250Y0189226D02*
X0119880Y0189226D01*
X0118282Y0187627D02*
X0165250Y0187627D01*
X0165250Y0186029D02*
X0116683Y0186029D01*
X0159659Y0224393D02*
X0181947Y0224393D01*
X0168450Y0218450D02*
X0168450Y0178450D01*
X0248027Y0133278D02*
X0256373Y0133278D01*
X0254775Y0131679D02*
X0249625Y0131679D01*
X0251224Y0130081D02*
X0253176Y0130081D01*
X0253050Y0128482D02*
X0251350Y0128482D01*
X0251350Y0126884D02*
X0253050Y0126884D01*
X0253050Y0125285D02*
X0251350Y0125285D01*
X0250591Y0123687D02*
X0253809Y0123687D01*
X0255407Y0122088D02*
X0248993Y0122088D01*
X0263993Y0122088D02*
X0264901Y0122088D01*
X0031002Y0082126D02*
X0030602Y0082126D01*
X0030602Y0080527D02*
X0031002Y0080527D01*
X0031002Y0077330D02*
X0030602Y0077330D01*
X0030602Y0075732D02*
X0031002Y0075732D01*
X0031002Y0074133D02*
X0030602Y0074133D01*
X0026555Y0074133D02*
X0014100Y0074133D01*
X0014100Y0075732D02*
X0024080Y0075732D01*
X0023225Y0077330D02*
X0014100Y0077330D01*
X0014770Y0053352D02*
X0024743Y0053352D01*
X0025795Y0043761D02*
X0008200Y0043761D01*
X0008200Y0045360D02*
X0010318Y0045360D01*
X0008719Y0046958D02*
X0008200Y0046958D01*
D18*
X0025950Y0097200D03*
X0025950Y0104700D03*
X0033450Y0104700D03*
X0033450Y0097200D03*
X0079700Y0104700D03*
X0097200Y0104700D03*
X0087200Y0065950D03*
X0079700Y0065950D03*
X0079700Y0058450D03*
X0087200Y0058450D03*
X0087200Y0050950D03*
X0079700Y0050950D03*
X0079700Y0043450D03*
X0087200Y0043450D03*
X0160950Y0100950D03*
X0160950Y0109700D03*
X0169700Y0109700D03*
X0169700Y0100950D03*
X0213450Y0103450D03*
X0227200Y0103450D03*
X0227200Y0089700D03*
X0213450Y0089700D03*
X0233450Y0118450D03*
X0208450Y0145950D03*
X0213450Y0177200D03*
X0222200Y0197200D03*
X0157200Y0160950D03*
X0139700Y0160950D03*
X0127200Y0163450D03*
X0127200Y0170950D03*
X0100950Y0162200D03*
X0092200Y0162200D03*
X0092200Y0153450D03*
X0100950Y0153450D03*
X0258450Y0080950D03*
D19*
X0082500Y0186250D02*
X0078450Y0182200D01*
X0014700Y0182200D01*
X0009700Y0177200D01*
X0009700Y0073450D01*
X0009700Y0070950D01*
X0009700Y0052200D01*
X0013125Y0048775D01*
X0030802Y0048775D01*
X0030802Y0033775D02*
X0063125Y0033775D01*
X0063450Y0033450D01*
X0063450Y0077200D01*
X0045950Y0065950D02*
X0043775Y0063775D01*
X0030802Y0063775D01*
X0045950Y0065950D02*
X0045950Y0118450D01*
X0042200Y0122200D01*
X0033450Y0122200D01*
X0029700Y0125950D01*
X0029700Y0139700D01*
X0082500Y0186250D02*
X0082500Y0210950D01*
X0067200Y0210650D02*
X0067200Y0203450D01*
X0063450Y0199700D01*
X0029700Y0199700D01*
X0066900Y0210950D02*
X0067200Y0210650D01*
D20*
X0089995Y0138814D03*
X0162436Y0138814D03*
X0174700Y0137200D03*
X0199700Y0135950D03*
X0240950Y0165950D03*
X0184700Y0220950D03*
X0168450Y0178450D03*
X0199700Y0057200D03*
M02*
