G75*
%MOIN*%
%OFA0B0*%
%FSLAX25Y25*%
%IPPOS*%
%LPD*%
%AMOC8*
5,1,8,0,0,1.08239X$1,22.5*
%
%ADD10C,0.01200*%
%ADD11C,0.00400*%
%ADD12C,0.00800*%
%ADD13C,0.00500*%
%ADD14C,0.00600*%
%ADD15R,0.00787X0.00787*%
%ADD16R,0.00984X0.00591*%
%ADD17R,0.00591X0.00984*%
%ADD18C,0.02400*%
%ADD19C,0.00700*%
%ADD20R,0.06600X0.03800*%
%ADD21C,0.01600*%
%ADD22R,0.04000X0.04000*%
%ADD23C,0.00200*%
%ADD24R,0.02000X0.40000*%
%ADD25R,0.06500X0.02500*%
%ADD26R,0.16000X0.01000*%
%ADD27R,0.04500X0.19000*%
%ADD28R,0.03000X0.04000*%
%ADD29R,0.00500X0.04000*%
%ADD30R,0.00500X0.07000*%
%ADD31R,0.02500X0.09000*%
D10*
X0160300Y0022206D02*
X0169508Y0022206D01*
X0164904Y0026810D02*
X0164904Y0017602D01*
X0175200Y0038450D02*
X0210200Y0038450D01*
X0215300Y0022206D02*
X0224508Y0022206D01*
X0091700Y0195950D02*
X0056700Y0195950D01*
D11*
X0111245Y0176318D02*
X0111245Y0174784D01*
X0112012Y0174017D01*
X0112012Y0172482D02*
X0111245Y0171715D01*
X0111245Y0170180D01*
X0112012Y0169413D01*
X0115081Y0169413D01*
X0115848Y0170180D01*
X0115848Y0171715D01*
X0115081Y0172482D01*
X0115081Y0174017D02*
X0115848Y0174784D01*
X0115848Y0176318D01*
X0115081Y0177086D01*
X0114314Y0177086D01*
X0113546Y0176318D01*
X0113546Y0175551D01*
X0113546Y0176318D02*
X0112779Y0177086D01*
X0112012Y0177086D01*
X0111245Y0176318D01*
X0137396Y0176877D02*
X0138163Y0176110D01*
X0137396Y0176877D02*
X0137396Y0178412D01*
X0138163Y0179179D01*
X0138931Y0179179D01*
X0142000Y0176110D01*
X0142000Y0179179D01*
X0141233Y0174575D02*
X0142000Y0173808D01*
X0142000Y0172273D01*
X0141233Y0171506D01*
X0138163Y0171506D01*
X0137396Y0172273D01*
X0137396Y0173808D01*
X0138163Y0174575D01*
X0137396Y0169971D02*
X0137396Y0168437D01*
X0137396Y0169204D02*
X0142000Y0169204D01*
X0142000Y0168437D02*
X0142000Y0169971D01*
X0152396Y0171917D02*
X0153163Y0171150D01*
X0156233Y0171150D01*
X0157000Y0171917D01*
X0157000Y0173452D01*
X0156233Y0174219D01*
X0154698Y0175754D02*
X0154698Y0178823D01*
X0152396Y0178056D02*
X0154698Y0175754D01*
X0153163Y0174219D02*
X0152396Y0173452D01*
X0152396Y0171917D01*
X0152396Y0178056D02*
X0157000Y0178056D01*
X0152108Y0159004D02*
X0152108Y0154400D01*
X0153642Y0154400D02*
X0150573Y0154400D01*
X0149039Y0155167D02*
X0148271Y0154400D01*
X0146737Y0154400D01*
X0145969Y0155167D01*
X0145969Y0158237D01*
X0146737Y0159004D01*
X0148271Y0159004D01*
X0149039Y0158237D01*
X0150573Y0157469D02*
X0152108Y0159004D01*
X0144435Y0159004D02*
X0142900Y0159004D01*
X0143667Y0159004D02*
X0143667Y0154400D01*
X0142900Y0154400D02*
X0144435Y0154400D01*
X0164896Y0133848D02*
X0165663Y0134615D01*
X0166431Y0134615D01*
X0167198Y0133848D01*
X0167965Y0134615D01*
X0168733Y0134615D01*
X0169500Y0133848D01*
X0169500Y0132313D01*
X0168733Y0131546D01*
X0168733Y0130011D02*
X0165663Y0130011D01*
X0164896Y0129244D01*
X0164896Y0126942D01*
X0169500Y0126942D01*
X0169500Y0129244D01*
X0168733Y0130011D01*
X0165663Y0131546D02*
X0164896Y0132313D01*
X0164896Y0133848D01*
X0167198Y0133848D02*
X0167198Y0133081D01*
X0164896Y0125407D02*
X0164896Y0122338D01*
X0169500Y0122338D01*
X0169500Y0125407D01*
X0167198Y0123873D02*
X0167198Y0122338D01*
X0169500Y0120804D02*
X0169500Y0117734D01*
X0164896Y0117734D01*
X0172732Y0121285D02*
X0172655Y0121358D01*
X0172580Y0121433D01*
X0172509Y0121511D01*
X0172440Y0121592D01*
X0172374Y0121675D01*
X0172311Y0121760D01*
X0172252Y0121848D01*
X0172195Y0121937D01*
X0172142Y0122029D01*
X0172092Y0122123D01*
X0172046Y0122218D01*
X0172003Y0122315D01*
X0171964Y0122413D01*
X0171928Y0122513D01*
X0171896Y0122614D01*
X0171868Y0122716D01*
X0171843Y0122819D01*
X0171822Y0122923D01*
X0171805Y0123028D01*
X0171791Y0123133D01*
X0171782Y0123238D01*
X0171776Y0123344D01*
X0171774Y0123450D01*
X0171776Y0123556D01*
X0171782Y0123662D01*
X0171791Y0123767D01*
X0171805Y0123872D01*
X0171822Y0123977D01*
X0171843Y0124081D01*
X0171868Y0124184D01*
X0171896Y0124286D01*
X0171928Y0124387D01*
X0171964Y0124487D01*
X0172003Y0124585D01*
X0172046Y0124682D01*
X0172092Y0124777D01*
X0172142Y0124871D01*
X0172195Y0124963D01*
X0172252Y0125052D01*
X0172311Y0125140D01*
X0172374Y0125225D01*
X0172440Y0125308D01*
X0172509Y0125389D01*
X0172580Y0125467D01*
X0172655Y0125542D01*
X0172732Y0125615D01*
X0176668Y0125615D02*
X0176745Y0125542D01*
X0176820Y0125467D01*
X0176891Y0125389D01*
X0176960Y0125308D01*
X0177026Y0125225D01*
X0177089Y0125140D01*
X0177148Y0125052D01*
X0177205Y0124963D01*
X0177258Y0124871D01*
X0177308Y0124777D01*
X0177354Y0124682D01*
X0177397Y0124585D01*
X0177436Y0124487D01*
X0177472Y0124387D01*
X0177504Y0124286D01*
X0177532Y0124184D01*
X0177557Y0124081D01*
X0177578Y0123977D01*
X0177595Y0123872D01*
X0177609Y0123767D01*
X0177618Y0123662D01*
X0177624Y0123556D01*
X0177626Y0123450D01*
X0177624Y0123344D01*
X0177618Y0123238D01*
X0177609Y0123133D01*
X0177595Y0123028D01*
X0177578Y0122923D01*
X0177557Y0122819D01*
X0177532Y0122716D01*
X0177504Y0122614D01*
X0177472Y0122513D01*
X0177436Y0122413D01*
X0177397Y0122315D01*
X0177354Y0122218D01*
X0177308Y0122123D01*
X0177258Y0122029D01*
X0177205Y0121937D01*
X0177148Y0121848D01*
X0177089Y0121760D01*
X0177026Y0121675D01*
X0176960Y0121592D01*
X0176891Y0121511D01*
X0176820Y0121433D01*
X0176745Y0121358D01*
X0176668Y0121285D01*
X0192396Y0120494D02*
X0192396Y0118192D01*
X0197000Y0118192D01*
X0195465Y0118192D02*
X0195465Y0120494D01*
X0194698Y0121261D01*
X0193163Y0121261D01*
X0192396Y0120494D01*
X0195465Y0119727D02*
X0197000Y0121261D01*
X0196233Y0122796D02*
X0197000Y0123563D01*
X0197000Y0125098D01*
X0196233Y0125865D01*
X0195465Y0125865D01*
X0194698Y0125098D01*
X0194698Y0122796D01*
X0196233Y0122796D01*
X0194698Y0122796D02*
X0193163Y0124331D01*
X0192396Y0125865D01*
X0212396Y0125098D02*
X0214698Y0122796D01*
X0214698Y0125865D01*
X0217000Y0125098D02*
X0212396Y0125098D01*
X0213163Y0121261D02*
X0214698Y0121261D01*
X0215465Y0120494D01*
X0215465Y0118192D01*
X0215465Y0119727D02*
X0217000Y0121261D01*
X0213163Y0121261D02*
X0212396Y0120494D01*
X0212396Y0118192D01*
X0217000Y0118192D01*
X0227396Y0118192D02*
X0227396Y0120494D01*
X0228163Y0121261D01*
X0229698Y0121261D01*
X0230465Y0120494D01*
X0230465Y0118192D01*
X0230465Y0119727D02*
X0232000Y0121261D01*
X0231233Y0122796D02*
X0232000Y0123563D01*
X0232000Y0125098D01*
X0231233Y0125865D01*
X0229698Y0125865D01*
X0228931Y0125098D01*
X0228931Y0124331D01*
X0229698Y0122796D01*
X0227396Y0122796D01*
X0227396Y0125865D01*
X0227396Y0118192D02*
X0232000Y0118192D01*
X0249339Y0098579D02*
X0251641Y0098579D01*
X0252408Y0097811D01*
X0252408Y0096277D01*
X0251641Y0095509D01*
X0249339Y0095509D01*
X0249339Y0093975D02*
X0249339Y0098579D01*
X0253943Y0097811D02*
X0254710Y0098579D01*
X0256245Y0098579D01*
X0257012Y0097811D01*
X0257012Y0097044D01*
X0253943Y0093975D01*
X0257012Y0093975D01*
X0212000Y0080098D02*
X0212000Y0078563D01*
X0211233Y0077796D01*
X0212000Y0076261D02*
X0210465Y0074727D01*
X0210465Y0075494D02*
X0210465Y0073192D01*
X0212000Y0073192D02*
X0207396Y0073192D01*
X0207396Y0075494D01*
X0208163Y0076261D01*
X0209698Y0076261D01*
X0210465Y0075494D01*
X0208931Y0077796D02*
X0209698Y0078563D01*
X0209698Y0080865D01*
X0208163Y0080865D02*
X0207396Y0080098D01*
X0207396Y0078563D01*
X0208163Y0077796D01*
X0208931Y0077796D01*
X0208163Y0080865D02*
X0211233Y0080865D01*
X0212000Y0080098D01*
X0191712Y0099801D02*
X0190944Y0099034D01*
X0189410Y0099034D01*
X0188643Y0099801D01*
X0188643Y0100568D01*
X0189410Y0101336D01*
X0190944Y0101336D01*
X0191712Y0100568D01*
X0191712Y0099801D01*
X0190944Y0101336D02*
X0191712Y0102103D01*
X0191712Y0102870D01*
X0190944Y0103638D01*
X0189410Y0103638D01*
X0188643Y0102870D01*
X0188643Y0102103D01*
X0189410Y0101336D01*
X0187108Y0102870D02*
X0186341Y0103638D01*
X0184806Y0103638D01*
X0184039Y0102870D01*
X0184039Y0099801D01*
X0184806Y0099034D01*
X0186341Y0099034D01*
X0187108Y0099801D01*
X0157212Y0094375D02*
X0139412Y0094375D01*
X0148762Y0095575D02*
X0151064Y0095575D01*
X0151831Y0096343D01*
X0151831Y0099412D01*
X0151064Y0100179D01*
X0148762Y0100179D01*
X0148762Y0095575D01*
X0153366Y0095575D02*
X0156435Y0095575D01*
X0154901Y0095575D02*
X0154901Y0100179D01*
X0153366Y0098644D01*
X0157212Y0079375D02*
X0139412Y0079375D01*
X0165959Y0067898D02*
X0165959Y0064829D01*
X0166726Y0063294D02*
X0165959Y0062527D01*
X0165959Y0060992D01*
X0166726Y0060225D01*
X0169796Y0060225D01*
X0170563Y0060992D01*
X0170563Y0062527D01*
X0169796Y0063294D01*
X0169796Y0064829D02*
X0170563Y0064829D01*
X0169796Y0064829D02*
X0166726Y0067898D01*
X0165959Y0067898D01*
X0078823Y0121917D02*
X0078056Y0121150D01*
X0076521Y0121150D01*
X0075754Y0121917D01*
X0075754Y0123452D01*
X0078056Y0123452D01*
X0078823Y0122685D01*
X0078823Y0121917D01*
X0077289Y0124987D02*
X0075754Y0123452D01*
X0077289Y0124987D02*
X0078823Y0125754D01*
X0074219Y0124987D02*
X0073452Y0125754D01*
X0071917Y0125754D01*
X0071150Y0124987D01*
X0071150Y0121917D01*
X0071917Y0121150D01*
X0073452Y0121150D01*
X0074219Y0121917D01*
X0124246Y0201716D02*
X0124246Y0204018D01*
X0125014Y0204785D01*
X0126548Y0204785D01*
X0127316Y0204018D01*
X0127316Y0201716D01*
X0128850Y0201716D02*
X0124246Y0201716D01*
X0125781Y0206320D02*
X0124246Y0207854D01*
X0128850Y0207854D01*
X0128850Y0206320D02*
X0128850Y0209389D01*
X0146146Y0209021D02*
X0146913Y0208254D01*
X0146146Y0209021D02*
X0146146Y0210556D01*
X0146913Y0211323D01*
X0147681Y0211323D01*
X0150750Y0208254D01*
X0150750Y0211323D01*
X0150750Y0206719D02*
X0149215Y0205185D01*
X0149215Y0205952D02*
X0149215Y0203650D01*
X0150750Y0203650D02*
X0146146Y0203650D01*
X0146146Y0205952D01*
X0146913Y0206719D01*
X0148448Y0206719D01*
X0149215Y0205952D01*
X0162396Y0205494D02*
X0162396Y0203959D01*
X0163163Y0203192D01*
X0166233Y0203192D01*
X0167000Y0203959D01*
X0167000Y0205494D01*
X0166233Y0206261D01*
X0166233Y0207796D02*
X0167000Y0208563D01*
X0167000Y0210098D01*
X0166233Y0210865D01*
X0164698Y0210865D01*
X0163931Y0210098D01*
X0163931Y0209331D01*
X0164698Y0207796D01*
X0162396Y0207796D01*
X0162396Y0210865D01*
X0163163Y0206261D02*
X0162396Y0205494D01*
X0176146Y0204900D02*
X0176146Y0207202D01*
X0176913Y0207969D01*
X0178448Y0207969D01*
X0179215Y0207202D01*
X0179215Y0204900D01*
X0179215Y0206435D02*
X0180750Y0207969D01*
X0180750Y0209504D02*
X0180750Y0212573D01*
X0180750Y0211039D02*
X0176146Y0211039D01*
X0177681Y0209504D01*
X0176146Y0204900D02*
X0180750Y0204900D01*
X0191146Y0204900D02*
X0191146Y0207202D01*
X0191913Y0207969D01*
X0193448Y0207969D01*
X0194215Y0207202D01*
X0194215Y0204900D01*
X0194215Y0206435D02*
X0195750Y0207969D01*
X0195750Y0209504D02*
X0194983Y0209504D01*
X0191913Y0212573D01*
X0191146Y0212573D01*
X0191146Y0209504D01*
X0191146Y0204900D02*
X0195750Y0204900D01*
X0209091Y0204827D02*
X0211055Y0204827D01*
X0211055Y0204500D02*
X0211055Y0205155D01*
X0210728Y0205950D02*
X0211055Y0206277D01*
X0211055Y0206932D01*
X0210728Y0207259D01*
X0210728Y0208125D02*
X0211055Y0208452D01*
X0211055Y0209107D01*
X0210728Y0209434D01*
X0210400Y0209434D01*
X0210073Y0209107D01*
X0210073Y0208780D01*
X0210073Y0209107D02*
X0209746Y0209434D01*
X0209419Y0209434D01*
X0209091Y0209107D01*
X0209091Y0208452D01*
X0209419Y0208125D01*
X0209419Y0207259D02*
X0209091Y0206932D01*
X0209091Y0206277D01*
X0209419Y0205950D01*
X0210728Y0205950D01*
X0209091Y0205155D02*
X0209091Y0204500D01*
X0221459Y0192004D02*
X0220692Y0191237D01*
X0220692Y0188167D01*
X0221459Y0187400D01*
X0222994Y0187400D01*
X0223761Y0188167D01*
X0225296Y0188167D02*
X0226063Y0187400D01*
X0227598Y0187400D01*
X0228365Y0188167D01*
X0228365Y0191237D01*
X0227598Y0192004D01*
X0226063Y0192004D01*
X0225296Y0191237D01*
X0225296Y0190469D01*
X0226063Y0189702D01*
X0228365Y0189702D01*
X0223761Y0191237D02*
X0222994Y0192004D01*
X0221459Y0192004D01*
X0220692Y0182004D02*
X0222994Y0182004D01*
X0223761Y0181237D01*
X0223761Y0179702D01*
X0222994Y0178935D01*
X0220692Y0178935D01*
X0222227Y0178935D02*
X0223761Y0177400D01*
X0225296Y0178167D02*
X0226063Y0177400D01*
X0227598Y0177400D01*
X0228365Y0178167D01*
X0228365Y0178935D01*
X0227598Y0179702D01*
X0226831Y0179702D01*
X0227598Y0179702D02*
X0228365Y0180469D01*
X0228365Y0181237D01*
X0227598Y0182004D01*
X0226063Y0182004D01*
X0225296Y0181237D01*
X0220692Y0182004D02*
X0220692Y0177400D01*
X0200504Y0168808D02*
X0200504Y0165739D01*
X0200504Y0167274D02*
X0195900Y0167274D01*
X0197435Y0165739D01*
X0196667Y0164204D02*
X0195900Y0163437D01*
X0195900Y0161135D01*
X0200504Y0161135D01*
X0200504Y0163437D01*
X0199737Y0164204D01*
X0196667Y0164204D01*
X0195900Y0159600D02*
X0195900Y0156531D01*
X0200504Y0156531D01*
X0200504Y0159600D01*
X0198202Y0158066D02*
X0198202Y0156531D01*
X0200504Y0154996D02*
X0200504Y0151927D01*
X0195900Y0151927D01*
X0187000Y0154442D02*
X0182396Y0154442D01*
X0182396Y0156744D01*
X0183163Y0157511D01*
X0184698Y0157511D01*
X0185465Y0156744D01*
X0185465Y0154442D01*
X0185465Y0155977D02*
X0187000Y0157511D01*
X0186233Y0159046D02*
X0185465Y0159046D01*
X0184698Y0159813D01*
X0184698Y0161348D01*
X0185465Y0162115D01*
X0186233Y0162115D01*
X0187000Y0161348D01*
X0187000Y0159813D01*
X0186233Y0159046D01*
X0184698Y0159813D02*
X0183931Y0159046D01*
X0183163Y0159046D01*
X0182396Y0159813D01*
X0182396Y0161348D01*
X0183163Y0162115D01*
X0183931Y0162115D01*
X0184698Y0161348D01*
X0202732Y0160035D02*
X0202655Y0160108D01*
X0202580Y0160183D01*
X0202509Y0160261D01*
X0202440Y0160342D01*
X0202374Y0160425D01*
X0202311Y0160510D01*
X0202252Y0160598D01*
X0202195Y0160687D01*
X0202142Y0160779D01*
X0202092Y0160873D01*
X0202046Y0160968D01*
X0202003Y0161065D01*
X0201964Y0161163D01*
X0201928Y0161263D01*
X0201896Y0161364D01*
X0201868Y0161466D01*
X0201843Y0161569D01*
X0201822Y0161673D01*
X0201805Y0161778D01*
X0201791Y0161883D01*
X0201782Y0161988D01*
X0201776Y0162094D01*
X0201774Y0162200D01*
X0201776Y0162306D01*
X0201782Y0162412D01*
X0201791Y0162517D01*
X0201805Y0162622D01*
X0201822Y0162727D01*
X0201843Y0162831D01*
X0201868Y0162934D01*
X0201896Y0163036D01*
X0201928Y0163137D01*
X0201964Y0163237D01*
X0202003Y0163335D01*
X0202046Y0163432D01*
X0202092Y0163527D01*
X0202142Y0163621D01*
X0202195Y0163713D01*
X0202252Y0163802D01*
X0202311Y0163890D01*
X0202374Y0163975D01*
X0202440Y0164058D01*
X0202509Y0164139D01*
X0202580Y0164217D01*
X0202655Y0164292D01*
X0202732Y0164365D01*
X0206668Y0164365D02*
X0206745Y0164292D01*
X0206820Y0164217D01*
X0206891Y0164139D01*
X0206960Y0164058D01*
X0207026Y0163975D01*
X0207089Y0163890D01*
X0207148Y0163802D01*
X0207205Y0163713D01*
X0207258Y0163621D01*
X0207308Y0163527D01*
X0207354Y0163432D01*
X0207397Y0163335D01*
X0207436Y0163237D01*
X0207472Y0163137D01*
X0207504Y0163036D01*
X0207532Y0162934D01*
X0207557Y0162831D01*
X0207578Y0162727D01*
X0207595Y0162622D01*
X0207609Y0162517D01*
X0207618Y0162412D01*
X0207624Y0162306D01*
X0207626Y0162200D01*
X0207624Y0162094D01*
X0207618Y0161988D01*
X0207609Y0161883D01*
X0207595Y0161778D01*
X0207578Y0161673D01*
X0207557Y0161569D01*
X0207532Y0161466D01*
X0207504Y0161364D01*
X0207472Y0161263D01*
X0207436Y0161163D01*
X0207397Y0161065D01*
X0207354Y0160968D01*
X0207308Y0160873D01*
X0207258Y0160779D01*
X0207205Y0160687D01*
X0207148Y0160598D01*
X0207089Y0160510D01*
X0207026Y0160425D01*
X0206960Y0160342D01*
X0206891Y0160261D01*
X0206820Y0160183D01*
X0206745Y0160108D01*
X0206668Y0160035D01*
X0235396Y0160098D02*
X0237698Y0157796D01*
X0237698Y0160865D01*
X0240000Y0160098D02*
X0235396Y0160098D01*
X0236163Y0156261D02*
X0235396Y0155494D01*
X0235396Y0153959D01*
X0236163Y0153192D01*
X0239233Y0153192D01*
X0240000Y0153959D01*
X0240000Y0155494D01*
X0239233Y0156261D01*
X0240000Y0151657D02*
X0240000Y0150123D01*
X0240000Y0150890D02*
X0235396Y0150890D01*
X0235396Y0150123D02*
X0235396Y0151657D01*
X0235035Y0202732D02*
X0235108Y0202655D01*
X0235183Y0202580D01*
X0235261Y0202509D01*
X0235342Y0202440D01*
X0235425Y0202374D01*
X0235510Y0202311D01*
X0235598Y0202252D01*
X0235687Y0202195D01*
X0235779Y0202142D01*
X0235873Y0202092D01*
X0235968Y0202046D01*
X0236065Y0202003D01*
X0236163Y0201964D01*
X0236263Y0201928D01*
X0236364Y0201896D01*
X0236466Y0201868D01*
X0236569Y0201843D01*
X0236673Y0201822D01*
X0236778Y0201805D01*
X0236883Y0201791D01*
X0236988Y0201782D01*
X0237094Y0201776D01*
X0237200Y0201774D01*
X0237306Y0201776D01*
X0237412Y0201782D01*
X0237517Y0201791D01*
X0237622Y0201805D01*
X0237727Y0201822D01*
X0237831Y0201843D01*
X0237934Y0201868D01*
X0238036Y0201896D01*
X0238137Y0201928D01*
X0238237Y0201964D01*
X0238335Y0202003D01*
X0238432Y0202046D01*
X0238527Y0202092D01*
X0238621Y0202142D01*
X0238713Y0202195D01*
X0238802Y0202252D01*
X0238890Y0202311D01*
X0238975Y0202374D01*
X0239058Y0202440D01*
X0239139Y0202509D01*
X0239217Y0202580D01*
X0239292Y0202655D01*
X0239365Y0202732D01*
X0239365Y0206668D02*
X0239292Y0206745D01*
X0239217Y0206820D01*
X0239139Y0206891D01*
X0239058Y0206960D01*
X0238975Y0207026D01*
X0238890Y0207089D01*
X0238802Y0207148D01*
X0238713Y0207205D01*
X0238621Y0207258D01*
X0238527Y0207308D01*
X0238432Y0207354D01*
X0238335Y0207397D01*
X0238237Y0207436D01*
X0238137Y0207472D01*
X0238036Y0207504D01*
X0237934Y0207532D01*
X0237831Y0207557D01*
X0237727Y0207578D01*
X0237622Y0207595D01*
X0237517Y0207609D01*
X0237412Y0207618D01*
X0237306Y0207624D01*
X0237200Y0207626D01*
X0237094Y0207624D01*
X0236988Y0207618D01*
X0236883Y0207609D01*
X0236778Y0207595D01*
X0236673Y0207578D01*
X0236569Y0207557D01*
X0236466Y0207532D01*
X0236364Y0207504D01*
X0236263Y0207472D01*
X0236163Y0207436D01*
X0236065Y0207397D01*
X0235968Y0207354D01*
X0235873Y0207308D01*
X0235779Y0207258D01*
X0235687Y0207205D01*
X0235598Y0207148D01*
X0235510Y0207089D01*
X0235425Y0207026D01*
X0235342Y0206960D01*
X0235261Y0206891D01*
X0235183Y0206820D01*
X0235108Y0206745D01*
X0235035Y0206668D01*
X0234504Y0209900D02*
X0237573Y0209900D01*
X0239108Y0209900D02*
X0241410Y0209900D01*
X0242177Y0210667D01*
X0242177Y0213737D01*
X0241410Y0214504D01*
X0239108Y0214504D01*
X0239108Y0209900D01*
X0236039Y0212202D02*
X0234504Y0212202D01*
X0234504Y0214504D02*
X0234504Y0209900D01*
X0232969Y0209900D02*
X0229900Y0209900D01*
X0229900Y0214504D01*
X0234504Y0214504D02*
X0237573Y0214504D01*
X0243712Y0213737D02*
X0244479Y0214504D01*
X0246014Y0214504D01*
X0246781Y0213737D01*
X0246781Y0212969D01*
X0243712Y0209900D01*
X0246781Y0209900D01*
D12*
X0145084Y0208007D02*
X0145084Y0197190D01*
X0141767Y0197190D01*
X0133834Y0197190D02*
X0130517Y0197190D01*
X0130517Y0208007D01*
X0135517Y0211757D02*
X0140084Y0211757D01*
X0110861Y0152255D02*
X0110861Y0112145D01*
X0145044Y0086875D02*
X0149072Y0082938D01*
X0149072Y0090812D01*
X0145044Y0086875D01*
X0170458Y0089356D02*
X0170458Y0098017D01*
X0192899Y0098017D01*
X0196442Y0094474D01*
X0196442Y0089356D01*
X0196442Y0080694D02*
X0196442Y0075576D01*
X0192899Y0072033D01*
X0170458Y0072033D01*
X0170458Y0080694D01*
X0171836Y0088765D02*
X0171930Y0089046D01*
X0172032Y0089325D01*
X0172140Y0089601D01*
X0172255Y0089874D01*
X0172376Y0090145D01*
X0172504Y0090412D01*
X0172639Y0090677D01*
X0172780Y0090938D01*
X0172927Y0091195D01*
X0173080Y0091449D01*
X0173240Y0091699D01*
X0173405Y0091945D01*
X0173577Y0092187D01*
X0173754Y0092424D01*
X0173937Y0092658D01*
X0174126Y0092886D01*
X0174321Y0093111D01*
X0174520Y0093330D01*
X0174725Y0093544D01*
X0174935Y0093753D01*
X0175150Y0093957D01*
X0175371Y0094156D01*
X0175595Y0094350D01*
X0175825Y0094537D01*
X0176059Y0094720D01*
X0176297Y0094896D01*
X0176540Y0095067D01*
X0176786Y0095231D01*
X0177037Y0095390D01*
X0177291Y0095542D01*
X0177550Y0095688D01*
X0177811Y0095828D01*
X0178076Y0095962D01*
X0178344Y0096089D01*
X0178615Y0096209D01*
X0178889Y0096323D01*
X0179165Y0096430D01*
X0179445Y0096530D01*
X0179726Y0096623D01*
X0180010Y0096710D01*
X0180295Y0096789D01*
X0180583Y0096862D01*
X0180872Y0096928D01*
X0181163Y0096986D01*
X0181455Y0097037D01*
X0181748Y0097082D01*
X0182042Y0097119D01*
X0182337Y0097149D01*
X0182633Y0097172D01*
X0182929Y0097187D01*
X0183226Y0097195D01*
X0183522Y0097197D01*
X0183819Y0097190D01*
X0184115Y0097177D01*
X0184411Y0097157D01*
X0184706Y0097129D01*
X0185000Y0097094D01*
X0185294Y0097052D01*
X0185586Y0097002D01*
X0185878Y0096946D01*
X0186167Y0096883D01*
X0186455Y0096812D01*
X0186742Y0096735D01*
X0187026Y0096650D01*
X0187308Y0096559D01*
X0187588Y0096461D01*
X0187865Y0096356D01*
X0188140Y0096244D01*
X0188412Y0096126D01*
X0188681Y0096001D01*
X0188947Y0095869D01*
X0189209Y0095732D01*
X0189468Y0095587D01*
X0189724Y0095437D01*
X0189976Y0095280D01*
X0190224Y0095117D01*
X0190467Y0094949D01*
X0190707Y0094774D01*
X0190942Y0094593D01*
X0191173Y0094407D01*
X0191400Y0094216D01*
X0191621Y0094019D01*
X0191838Y0093816D01*
X0192049Y0093608D01*
X0192256Y0093396D01*
X0192457Y0093178D01*
X0192653Y0092955D01*
X0192844Y0092728D01*
X0193029Y0092496D01*
X0193208Y0092260D01*
X0193381Y0092019D01*
X0193548Y0091774D01*
X0193710Y0091525D01*
X0193865Y0091273D01*
X0194014Y0091016D01*
X0194157Y0090757D01*
X0194294Y0090493D01*
X0194424Y0090227D01*
X0194547Y0089957D01*
X0194664Y0089685D01*
X0194774Y0089409D01*
X0194877Y0089131D01*
X0194974Y0088851D01*
X0195064Y0088568D01*
X0195064Y0081285D02*
X0194970Y0081004D01*
X0194868Y0080725D01*
X0194760Y0080449D01*
X0194645Y0080176D01*
X0194524Y0079905D01*
X0194396Y0079638D01*
X0194261Y0079373D01*
X0194120Y0079112D01*
X0193973Y0078855D01*
X0193820Y0078601D01*
X0193660Y0078351D01*
X0193495Y0078105D01*
X0193323Y0077863D01*
X0193146Y0077626D01*
X0192963Y0077392D01*
X0192774Y0077164D01*
X0192579Y0076939D01*
X0192380Y0076720D01*
X0192175Y0076506D01*
X0191965Y0076297D01*
X0191750Y0076093D01*
X0191529Y0075894D01*
X0191305Y0075700D01*
X0191075Y0075513D01*
X0190841Y0075330D01*
X0190603Y0075154D01*
X0190360Y0074983D01*
X0190114Y0074819D01*
X0189863Y0074660D01*
X0189609Y0074508D01*
X0189350Y0074362D01*
X0189089Y0074222D01*
X0188824Y0074088D01*
X0188556Y0073961D01*
X0188285Y0073841D01*
X0188011Y0073727D01*
X0187735Y0073620D01*
X0187455Y0073520D01*
X0187174Y0073427D01*
X0186890Y0073340D01*
X0186605Y0073261D01*
X0186317Y0073188D01*
X0186028Y0073122D01*
X0185737Y0073064D01*
X0185445Y0073013D01*
X0185152Y0072968D01*
X0184858Y0072931D01*
X0184563Y0072901D01*
X0184267Y0072878D01*
X0183971Y0072863D01*
X0183674Y0072855D01*
X0183378Y0072853D01*
X0183081Y0072860D01*
X0182785Y0072873D01*
X0182489Y0072893D01*
X0182194Y0072921D01*
X0181900Y0072956D01*
X0181606Y0072998D01*
X0181314Y0073048D01*
X0181022Y0073104D01*
X0180733Y0073167D01*
X0180445Y0073238D01*
X0180158Y0073315D01*
X0179874Y0073400D01*
X0179592Y0073491D01*
X0179312Y0073589D01*
X0179035Y0073694D01*
X0178760Y0073806D01*
X0178488Y0073924D01*
X0178219Y0074049D01*
X0177953Y0074181D01*
X0177691Y0074318D01*
X0177432Y0074463D01*
X0177176Y0074613D01*
X0176924Y0074770D01*
X0176676Y0074933D01*
X0176433Y0075101D01*
X0176193Y0075276D01*
X0175958Y0075457D01*
X0175727Y0075643D01*
X0175500Y0075834D01*
X0175279Y0076031D01*
X0175062Y0076234D01*
X0174851Y0076442D01*
X0174644Y0076654D01*
X0174443Y0076872D01*
X0174247Y0077095D01*
X0174056Y0077322D01*
X0173871Y0077554D01*
X0173692Y0077790D01*
X0173519Y0078031D01*
X0173352Y0078276D01*
X0173190Y0078525D01*
X0173035Y0078777D01*
X0172886Y0079034D01*
X0172743Y0079293D01*
X0172606Y0079557D01*
X0172476Y0079823D01*
X0172353Y0080093D01*
X0172236Y0080365D01*
X0172126Y0080641D01*
X0172023Y0080919D01*
X0171926Y0081199D01*
X0171836Y0081482D01*
X0244356Y0105241D02*
X0244356Y0109808D01*
X0248106Y0114808D02*
X0258922Y0114808D01*
X0258922Y0111491D01*
X0258922Y0103558D02*
X0258922Y0100241D01*
X0248106Y0100241D01*
D13*
X0135999Y0165826D02*
X0135999Y0175527D01*
X0118401Y0175527D02*
X0118401Y0165826D01*
X0074555Y0089004D02*
X0074555Y0084500D01*
X0073054Y0084500D02*
X0076056Y0084500D01*
X0073054Y0087503D02*
X0074555Y0089004D01*
X0071453Y0088253D02*
X0070702Y0089004D01*
X0069201Y0089004D01*
X0068450Y0088253D01*
X0068450Y0085251D01*
X0069201Y0084500D01*
X0070702Y0084500D01*
X0071453Y0085251D01*
X0072597Y0044904D02*
X0071846Y0044153D01*
X0072597Y0044904D02*
X0074098Y0044904D01*
X0074849Y0044153D01*
X0074849Y0043403D01*
X0071846Y0040400D01*
X0074849Y0040400D01*
X0070245Y0041151D02*
X0069494Y0040400D01*
X0067993Y0040400D01*
X0067242Y0041151D01*
X0067242Y0044153D01*
X0067993Y0044904D01*
X0069494Y0044904D01*
X0070245Y0044153D01*
D14*
X0069950Y0037950D02*
X0069950Y0033450D01*
X0069950Y0028950D01*
X0072450Y0028950D01*
X0072450Y0037950D01*
X0069950Y0037950D01*
X0069950Y0033450D02*
X0068950Y0033450D01*
X0053450Y0033450D02*
X0053456Y0033941D01*
X0053474Y0034431D01*
X0053504Y0034921D01*
X0053546Y0035410D01*
X0053600Y0035898D01*
X0053666Y0036385D01*
X0053744Y0036869D01*
X0053834Y0037352D01*
X0053936Y0037832D01*
X0054049Y0038310D01*
X0054174Y0038784D01*
X0054311Y0039256D01*
X0054459Y0039724D01*
X0054619Y0040188D01*
X0054790Y0040648D01*
X0054972Y0041104D01*
X0055166Y0041555D01*
X0055370Y0042001D01*
X0055586Y0042442D01*
X0055812Y0042878D01*
X0056048Y0043308D01*
X0056295Y0043732D01*
X0056553Y0044150D01*
X0056821Y0044561D01*
X0057098Y0044966D01*
X0057386Y0045364D01*
X0057683Y0045755D01*
X0057990Y0046138D01*
X0058306Y0046513D01*
X0058631Y0046881D01*
X0058965Y0047241D01*
X0059308Y0047592D01*
X0059659Y0047935D01*
X0060019Y0048269D01*
X0060387Y0048594D01*
X0060762Y0048910D01*
X0061145Y0049217D01*
X0061536Y0049514D01*
X0061934Y0049802D01*
X0062339Y0050079D01*
X0062750Y0050347D01*
X0063168Y0050605D01*
X0063592Y0050852D01*
X0064022Y0051088D01*
X0064458Y0051314D01*
X0064899Y0051530D01*
X0065345Y0051734D01*
X0065796Y0051928D01*
X0066252Y0052110D01*
X0066712Y0052281D01*
X0067176Y0052441D01*
X0067644Y0052589D01*
X0068116Y0052726D01*
X0068590Y0052851D01*
X0069068Y0052964D01*
X0069548Y0053066D01*
X0070031Y0053156D01*
X0070515Y0053234D01*
X0071002Y0053300D01*
X0071490Y0053354D01*
X0071979Y0053396D01*
X0072469Y0053426D01*
X0072959Y0053444D01*
X0073450Y0053450D01*
X0073941Y0053444D01*
X0074431Y0053426D01*
X0074921Y0053396D01*
X0075410Y0053354D01*
X0075898Y0053300D01*
X0076385Y0053234D01*
X0076869Y0053156D01*
X0077352Y0053066D01*
X0077832Y0052964D01*
X0078310Y0052851D01*
X0078784Y0052726D01*
X0079256Y0052589D01*
X0079724Y0052441D01*
X0080188Y0052281D01*
X0080648Y0052110D01*
X0081104Y0051928D01*
X0081555Y0051734D01*
X0082001Y0051530D01*
X0082442Y0051314D01*
X0082878Y0051088D01*
X0083308Y0050852D01*
X0083732Y0050605D01*
X0084150Y0050347D01*
X0084561Y0050079D01*
X0084966Y0049802D01*
X0085364Y0049514D01*
X0085755Y0049217D01*
X0086138Y0048910D01*
X0086513Y0048594D01*
X0086881Y0048269D01*
X0087241Y0047935D01*
X0087592Y0047592D01*
X0087935Y0047241D01*
X0088269Y0046881D01*
X0088594Y0046513D01*
X0088910Y0046138D01*
X0089217Y0045755D01*
X0089514Y0045364D01*
X0089802Y0044966D01*
X0090079Y0044561D01*
X0090347Y0044150D01*
X0090605Y0043732D01*
X0090852Y0043308D01*
X0091088Y0042878D01*
X0091314Y0042442D01*
X0091530Y0042001D01*
X0091734Y0041555D01*
X0091928Y0041104D01*
X0092110Y0040648D01*
X0092281Y0040188D01*
X0092441Y0039724D01*
X0092589Y0039256D01*
X0092726Y0038784D01*
X0092851Y0038310D01*
X0092964Y0037832D01*
X0093066Y0037352D01*
X0093156Y0036869D01*
X0093234Y0036385D01*
X0093300Y0035898D01*
X0093354Y0035410D01*
X0093396Y0034921D01*
X0093426Y0034431D01*
X0093444Y0033941D01*
X0093450Y0033450D01*
X0093444Y0032959D01*
X0093426Y0032469D01*
X0093396Y0031979D01*
X0093354Y0031490D01*
X0093300Y0031002D01*
X0093234Y0030515D01*
X0093156Y0030031D01*
X0093066Y0029548D01*
X0092964Y0029068D01*
X0092851Y0028590D01*
X0092726Y0028116D01*
X0092589Y0027644D01*
X0092441Y0027176D01*
X0092281Y0026712D01*
X0092110Y0026252D01*
X0091928Y0025796D01*
X0091734Y0025345D01*
X0091530Y0024899D01*
X0091314Y0024458D01*
X0091088Y0024022D01*
X0090852Y0023592D01*
X0090605Y0023168D01*
X0090347Y0022750D01*
X0090079Y0022339D01*
X0089802Y0021934D01*
X0089514Y0021536D01*
X0089217Y0021145D01*
X0088910Y0020762D01*
X0088594Y0020387D01*
X0088269Y0020019D01*
X0087935Y0019659D01*
X0087592Y0019308D01*
X0087241Y0018965D01*
X0086881Y0018631D01*
X0086513Y0018306D01*
X0086138Y0017990D01*
X0085755Y0017683D01*
X0085364Y0017386D01*
X0084966Y0017098D01*
X0084561Y0016821D01*
X0084150Y0016553D01*
X0083732Y0016295D01*
X0083308Y0016048D01*
X0082878Y0015812D01*
X0082442Y0015586D01*
X0082001Y0015370D01*
X0081555Y0015166D01*
X0081104Y0014972D01*
X0080648Y0014790D01*
X0080188Y0014619D01*
X0079724Y0014459D01*
X0079256Y0014311D01*
X0078784Y0014174D01*
X0078310Y0014049D01*
X0077832Y0013936D01*
X0077352Y0013834D01*
X0076869Y0013744D01*
X0076385Y0013666D01*
X0075898Y0013600D01*
X0075410Y0013546D01*
X0074921Y0013504D01*
X0074431Y0013474D01*
X0073941Y0013456D01*
X0073450Y0013450D01*
X0072959Y0013456D01*
X0072469Y0013474D01*
X0071979Y0013504D01*
X0071490Y0013546D01*
X0071002Y0013600D01*
X0070515Y0013666D01*
X0070031Y0013744D01*
X0069548Y0013834D01*
X0069068Y0013936D01*
X0068590Y0014049D01*
X0068116Y0014174D01*
X0067644Y0014311D01*
X0067176Y0014459D01*
X0066712Y0014619D01*
X0066252Y0014790D01*
X0065796Y0014972D01*
X0065345Y0015166D01*
X0064899Y0015370D01*
X0064458Y0015586D01*
X0064022Y0015812D01*
X0063592Y0016048D01*
X0063168Y0016295D01*
X0062750Y0016553D01*
X0062339Y0016821D01*
X0061934Y0017098D01*
X0061536Y0017386D01*
X0061145Y0017683D01*
X0060762Y0017990D01*
X0060387Y0018306D01*
X0060019Y0018631D01*
X0059659Y0018965D01*
X0059308Y0019308D01*
X0058965Y0019659D01*
X0058631Y0020019D01*
X0058306Y0020387D01*
X0057990Y0020762D01*
X0057683Y0021145D01*
X0057386Y0021536D01*
X0057098Y0021934D01*
X0056821Y0022339D01*
X0056553Y0022750D01*
X0056295Y0023168D01*
X0056048Y0023592D01*
X0055812Y0024022D01*
X0055586Y0024458D01*
X0055370Y0024899D01*
X0055166Y0025345D01*
X0054972Y0025796D01*
X0054790Y0026252D01*
X0054619Y0026712D01*
X0054459Y0027176D01*
X0054311Y0027644D01*
X0054174Y0028116D01*
X0054049Y0028590D01*
X0053936Y0029068D01*
X0053834Y0029548D01*
X0053744Y0030031D01*
X0053666Y0030515D01*
X0053600Y0031002D01*
X0053546Y0031490D01*
X0053504Y0031979D01*
X0053474Y0032469D01*
X0053456Y0032959D01*
X0053450Y0033450D01*
X0056950Y0038450D02*
X0059950Y0038450D01*
X0058450Y0039950D02*
X0058450Y0036950D01*
X0044302Y0036275D02*
X0035802Y0036275D01*
X0044302Y0036275D02*
X0044302Y0021775D01*
X0017302Y0021775D01*
X0017302Y0036275D01*
X0025802Y0036275D01*
X0022802Y0032275D02*
X0018802Y0032275D01*
X0020802Y0034275D02*
X0020802Y0030275D01*
X0017302Y0036275D02*
X0017302Y0090775D01*
X0044302Y0090775D01*
X0044302Y0036275D01*
X0020802Y0046075D02*
X0020732Y0046077D01*
X0020661Y0046083D01*
X0020592Y0046092D01*
X0020523Y0046105D01*
X0020454Y0046122D01*
X0020387Y0046143D01*
X0020321Y0046167D01*
X0020256Y0046195D01*
X0020193Y0046226D01*
X0020132Y0046261D01*
X0020072Y0046299D01*
X0020015Y0046340D01*
X0019960Y0046384D01*
X0019908Y0046431D01*
X0019858Y0046481D01*
X0019811Y0046533D01*
X0019767Y0046588D01*
X0019726Y0046645D01*
X0019688Y0046705D01*
X0019653Y0046766D01*
X0019622Y0046829D01*
X0019594Y0046894D01*
X0019570Y0046960D01*
X0019549Y0047027D01*
X0019532Y0047096D01*
X0019519Y0047165D01*
X0019510Y0047234D01*
X0019504Y0047305D01*
X0019502Y0047375D01*
X0019504Y0047445D01*
X0019510Y0047516D01*
X0019519Y0047585D01*
X0019532Y0047654D01*
X0019549Y0047723D01*
X0019570Y0047790D01*
X0019594Y0047856D01*
X0019622Y0047921D01*
X0019653Y0047984D01*
X0019688Y0048045D01*
X0019726Y0048105D01*
X0019767Y0048162D01*
X0019811Y0048217D01*
X0019858Y0048269D01*
X0019908Y0048319D01*
X0019960Y0048366D01*
X0020015Y0048410D01*
X0020072Y0048451D01*
X0020132Y0048489D01*
X0020193Y0048524D01*
X0020256Y0048555D01*
X0020321Y0048583D01*
X0020387Y0048607D01*
X0020454Y0048628D01*
X0020523Y0048645D01*
X0020592Y0048658D01*
X0020661Y0048667D01*
X0020732Y0048673D01*
X0020802Y0048675D01*
X0020872Y0048677D01*
X0020943Y0048683D01*
X0021012Y0048692D01*
X0021081Y0048705D01*
X0021150Y0048722D01*
X0021217Y0048743D01*
X0021283Y0048767D01*
X0021348Y0048795D01*
X0021411Y0048826D01*
X0021472Y0048861D01*
X0021532Y0048899D01*
X0021589Y0048940D01*
X0021644Y0048984D01*
X0021696Y0049031D01*
X0021746Y0049081D01*
X0021793Y0049133D01*
X0021837Y0049188D01*
X0021878Y0049245D01*
X0021916Y0049305D01*
X0021951Y0049366D01*
X0021982Y0049429D01*
X0022010Y0049494D01*
X0022034Y0049560D01*
X0022055Y0049627D01*
X0022072Y0049696D01*
X0022085Y0049765D01*
X0022094Y0049834D01*
X0022100Y0049905D01*
X0022102Y0049975D01*
X0022100Y0050045D01*
X0022094Y0050116D01*
X0022085Y0050185D01*
X0022072Y0050254D01*
X0022055Y0050323D01*
X0022034Y0050390D01*
X0022010Y0050456D01*
X0021982Y0050521D01*
X0021951Y0050584D01*
X0021916Y0050645D01*
X0021878Y0050705D01*
X0021837Y0050762D01*
X0021793Y0050817D01*
X0021746Y0050869D01*
X0021696Y0050919D01*
X0021644Y0050966D01*
X0021589Y0051010D01*
X0021532Y0051051D01*
X0021472Y0051089D01*
X0021411Y0051124D01*
X0021348Y0051155D01*
X0021283Y0051183D01*
X0021217Y0051207D01*
X0021150Y0051228D01*
X0021081Y0051245D01*
X0021012Y0051258D01*
X0020943Y0051267D01*
X0020872Y0051273D01*
X0020802Y0051275D01*
X0020802Y0061075D02*
X0020732Y0061077D01*
X0020661Y0061083D01*
X0020592Y0061092D01*
X0020523Y0061105D01*
X0020454Y0061122D01*
X0020387Y0061143D01*
X0020321Y0061167D01*
X0020256Y0061195D01*
X0020193Y0061226D01*
X0020132Y0061261D01*
X0020072Y0061299D01*
X0020015Y0061340D01*
X0019960Y0061384D01*
X0019908Y0061431D01*
X0019858Y0061481D01*
X0019811Y0061533D01*
X0019767Y0061588D01*
X0019726Y0061645D01*
X0019688Y0061705D01*
X0019653Y0061766D01*
X0019622Y0061829D01*
X0019594Y0061894D01*
X0019570Y0061960D01*
X0019549Y0062027D01*
X0019532Y0062096D01*
X0019519Y0062165D01*
X0019510Y0062234D01*
X0019504Y0062305D01*
X0019502Y0062375D01*
X0019504Y0062445D01*
X0019510Y0062516D01*
X0019519Y0062585D01*
X0019532Y0062654D01*
X0019549Y0062723D01*
X0019570Y0062790D01*
X0019594Y0062856D01*
X0019622Y0062921D01*
X0019653Y0062984D01*
X0019688Y0063045D01*
X0019726Y0063105D01*
X0019767Y0063162D01*
X0019811Y0063217D01*
X0019858Y0063269D01*
X0019908Y0063319D01*
X0019960Y0063366D01*
X0020015Y0063410D01*
X0020072Y0063451D01*
X0020132Y0063489D01*
X0020193Y0063524D01*
X0020256Y0063555D01*
X0020321Y0063583D01*
X0020387Y0063607D01*
X0020454Y0063628D01*
X0020523Y0063645D01*
X0020592Y0063658D01*
X0020661Y0063667D01*
X0020732Y0063673D01*
X0020802Y0063675D01*
X0020872Y0063677D01*
X0020943Y0063683D01*
X0021012Y0063692D01*
X0021081Y0063705D01*
X0021150Y0063722D01*
X0021217Y0063743D01*
X0021283Y0063767D01*
X0021348Y0063795D01*
X0021411Y0063826D01*
X0021472Y0063861D01*
X0021532Y0063899D01*
X0021589Y0063940D01*
X0021644Y0063984D01*
X0021696Y0064031D01*
X0021746Y0064081D01*
X0021793Y0064133D01*
X0021837Y0064188D01*
X0021878Y0064245D01*
X0021916Y0064305D01*
X0021951Y0064366D01*
X0021982Y0064429D01*
X0022010Y0064494D01*
X0022034Y0064560D01*
X0022055Y0064627D01*
X0022072Y0064696D01*
X0022085Y0064765D01*
X0022094Y0064834D01*
X0022100Y0064905D01*
X0022102Y0064975D01*
X0022100Y0065045D01*
X0022094Y0065116D01*
X0022085Y0065185D01*
X0022072Y0065254D01*
X0022055Y0065323D01*
X0022034Y0065390D01*
X0022010Y0065456D01*
X0021982Y0065521D01*
X0021951Y0065584D01*
X0021916Y0065645D01*
X0021878Y0065705D01*
X0021837Y0065762D01*
X0021793Y0065817D01*
X0021746Y0065869D01*
X0021696Y0065919D01*
X0021644Y0065966D01*
X0021589Y0066010D01*
X0021532Y0066051D01*
X0021472Y0066089D01*
X0021411Y0066124D01*
X0021348Y0066155D01*
X0021283Y0066183D01*
X0021217Y0066207D01*
X0021150Y0066228D01*
X0021081Y0066245D01*
X0021012Y0066258D01*
X0020943Y0066267D01*
X0020872Y0066273D01*
X0020802Y0066275D01*
X0020802Y0076775D02*
X0020802Y0080775D01*
X0056950Y0082200D02*
X0059950Y0082200D01*
X0058450Y0083700D02*
X0058450Y0080700D01*
X0068950Y0077200D02*
X0069950Y0077200D01*
X0069950Y0081700D01*
X0072450Y0081700D01*
X0072450Y0072700D01*
X0069950Y0072700D01*
X0069950Y0077200D01*
X0053450Y0077200D02*
X0053456Y0077691D01*
X0053474Y0078181D01*
X0053504Y0078671D01*
X0053546Y0079160D01*
X0053600Y0079648D01*
X0053666Y0080135D01*
X0053744Y0080619D01*
X0053834Y0081102D01*
X0053936Y0081582D01*
X0054049Y0082060D01*
X0054174Y0082534D01*
X0054311Y0083006D01*
X0054459Y0083474D01*
X0054619Y0083938D01*
X0054790Y0084398D01*
X0054972Y0084854D01*
X0055166Y0085305D01*
X0055370Y0085751D01*
X0055586Y0086192D01*
X0055812Y0086628D01*
X0056048Y0087058D01*
X0056295Y0087482D01*
X0056553Y0087900D01*
X0056821Y0088311D01*
X0057098Y0088716D01*
X0057386Y0089114D01*
X0057683Y0089505D01*
X0057990Y0089888D01*
X0058306Y0090263D01*
X0058631Y0090631D01*
X0058965Y0090991D01*
X0059308Y0091342D01*
X0059659Y0091685D01*
X0060019Y0092019D01*
X0060387Y0092344D01*
X0060762Y0092660D01*
X0061145Y0092967D01*
X0061536Y0093264D01*
X0061934Y0093552D01*
X0062339Y0093829D01*
X0062750Y0094097D01*
X0063168Y0094355D01*
X0063592Y0094602D01*
X0064022Y0094838D01*
X0064458Y0095064D01*
X0064899Y0095280D01*
X0065345Y0095484D01*
X0065796Y0095678D01*
X0066252Y0095860D01*
X0066712Y0096031D01*
X0067176Y0096191D01*
X0067644Y0096339D01*
X0068116Y0096476D01*
X0068590Y0096601D01*
X0069068Y0096714D01*
X0069548Y0096816D01*
X0070031Y0096906D01*
X0070515Y0096984D01*
X0071002Y0097050D01*
X0071490Y0097104D01*
X0071979Y0097146D01*
X0072469Y0097176D01*
X0072959Y0097194D01*
X0073450Y0097200D01*
X0073941Y0097194D01*
X0074431Y0097176D01*
X0074921Y0097146D01*
X0075410Y0097104D01*
X0075898Y0097050D01*
X0076385Y0096984D01*
X0076869Y0096906D01*
X0077352Y0096816D01*
X0077832Y0096714D01*
X0078310Y0096601D01*
X0078784Y0096476D01*
X0079256Y0096339D01*
X0079724Y0096191D01*
X0080188Y0096031D01*
X0080648Y0095860D01*
X0081104Y0095678D01*
X0081555Y0095484D01*
X0082001Y0095280D01*
X0082442Y0095064D01*
X0082878Y0094838D01*
X0083308Y0094602D01*
X0083732Y0094355D01*
X0084150Y0094097D01*
X0084561Y0093829D01*
X0084966Y0093552D01*
X0085364Y0093264D01*
X0085755Y0092967D01*
X0086138Y0092660D01*
X0086513Y0092344D01*
X0086881Y0092019D01*
X0087241Y0091685D01*
X0087592Y0091342D01*
X0087935Y0090991D01*
X0088269Y0090631D01*
X0088594Y0090263D01*
X0088910Y0089888D01*
X0089217Y0089505D01*
X0089514Y0089114D01*
X0089802Y0088716D01*
X0090079Y0088311D01*
X0090347Y0087900D01*
X0090605Y0087482D01*
X0090852Y0087058D01*
X0091088Y0086628D01*
X0091314Y0086192D01*
X0091530Y0085751D01*
X0091734Y0085305D01*
X0091928Y0084854D01*
X0092110Y0084398D01*
X0092281Y0083938D01*
X0092441Y0083474D01*
X0092589Y0083006D01*
X0092726Y0082534D01*
X0092851Y0082060D01*
X0092964Y0081582D01*
X0093066Y0081102D01*
X0093156Y0080619D01*
X0093234Y0080135D01*
X0093300Y0079648D01*
X0093354Y0079160D01*
X0093396Y0078671D01*
X0093426Y0078181D01*
X0093444Y0077691D01*
X0093450Y0077200D01*
X0093444Y0076709D01*
X0093426Y0076219D01*
X0093396Y0075729D01*
X0093354Y0075240D01*
X0093300Y0074752D01*
X0093234Y0074265D01*
X0093156Y0073781D01*
X0093066Y0073298D01*
X0092964Y0072818D01*
X0092851Y0072340D01*
X0092726Y0071866D01*
X0092589Y0071394D01*
X0092441Y0070926D01*
X0092281Y0070462D01*
X0092110Y0070002D01*
X0091928Y0069546D01*
X0091734Y0069095D01*
X0091530Y0068649D01*
X0091314Y0068208D01*
X0091088Y0067772D01*
X0090852Y0067342D01*
X0090605Y0066918D01*
X0090347Y0066500D01*
X0090079Y0066089D01*
X0089802Y0065684D01*
X0089514Y0065286D01*
X0089217Y0064895D01*
X0088910Y0064512D01*
X0088594Y0064137D01*
X0088269Y0063769D01*
X0087935Y0063409D01*
X0087592Y0063058D01*
X0087241Y0062715D01*
X0086881Y0062381D01*
X0086513Y0062056D01*
X0086138Y0061740D01*
X0085755Y0061433D01*
X0085364Y0061136D01*
X0084966Y0060848D01*
X0084561Y0060571D01*
X0084150Y0060303D01*
X0083732Y0060045D01*
X0083308Y0059798D01*
X0082878Y0059562D01*
X0082442Y0059336D01*
X0082001Y0059120D01*
X0081555Y0058916D01*
X0081104Y0058722D01*
X0080648Y0058540D01*
X0080188Y0058369D01*
X0079724Y0058209D01*
X0079256Y0058061D01*
X0078784Y0057924D01*
X0078310Y0057799D01*
X0077832Y0057686D01*
X0077352Y0057584D01*
X0076869Y0057494D01*
X0076385Y0057416D01*
X0075898Y0057350D01*
X0075410Y0057296D01*
X0074921Y0057254D01*
X0074431Y0057224D01*
X0073941Y0057206D01*
X0073450Y0057200D01*
X0072959Y0057206D01*
X0072469Y0057224D01*
X0071979Y0057254D01*
X0071490Y0057296D01*
X0071002Y0057350D01*
X0070515Y0057416D01*
X0070031Y0057494D01*
X0069548Y0057584D01*
X0069068Y0057686D01*
X0068590Y0057799D01*
X0068116Y0057924D01*
X0067644Y0058061D01*
X0067176Y0058209D01*
X0066712Y0058369D01*
X0066252Y0058540D01*
X0065796Y0058722D01*
X0065345Y0058916D01*
X0064899Y0059120D01*
X0064458Y0059336D01*
X0064022Y0059562D01*
X0063592Y0059798D01*
X0063168Y0060045D01*
X0062750Y0060303D01*
X0062339Y0060571D01*
X0061934Y0060848D01*
X0061536Y0061136D01*
X0061145Y0061433D01*
X0060762Y0061740D01*
X0060387Y0062056D01*
X0060019Y0062381D01*
X0059659Y0062715D01*
X0059308Y0063058D01*
X0058965Y0063409D01*
X0058631Y0063769D01*
X0058306Y0064137D01*
X0057990Y0064512D01*
X0057683Y0064895D01*
X0057386Y0065286D01*
X0057098Y0065684D01*
X0056821Y0066089D01*
X0056553Y0066500D01*
X0056295Y0066918D01*
X0056048Y0067342D01*
X0055812Y0067772D01*
X0055586Y0068208D01*
X0055370Y0068649D01*
X0055166Y0069095D01*
X0054972Y0069546D01*
X0054790Y0070002D01*
X0054619Y0070462D01*
X0054459Y0070926D01*
X0054311Y0071394D01*
X0054174Y0071866D01*
X0054049Y0072340D01*
X0053936Y0072818D01*
X0053834Y0073298D01*
X0053744Y0073781D01*
X0053666Y0074265D01*
X0053600Y0074752D01*
X0053546Y0075240D01*
X0053504Y0075729D01*
X0053474Y0076219D01*
X0053456Y0076709D01*
X0053450Y0077200D01*
X0075950Y0077200D02*
X0077950Y0077200D01*
X0047700Y0120200D02*
X0047700Y0149700D01*
X0044200Y0149700D01*
X0041700Y0149700D01*
X0041700Y0189700D01*
X0044200Y0189700D01*
X0044200Y0196700D01*
X0046200Y0196700D01*
X0046200Y0202700D01*
X0044200Y0202700D01*
X0044200Y0214700D01*
X0015200Y0214700D01*
X0015200Y0202700D01*
X0013200Y0202700D01*
X0013200Y0196700D01*
X0015200Y0196700D01*
X0015200Y0189700D01*
X0017700Y0189700D01*
X0017700Y0149700D01*
X0015200Y0149700D01*
X0011700Y0149700D01*
X0011700Y0120200D01*
X0047700Y0120200D01*
X0044200Y0124700D02*
X0044200Y0136700D01*
X0046200Y0136700D01*
X0046200Y0142700D01*
X0044200Y0142700D01*
X0044200Y0149700D01*
X0044200Y0124700D02*
X0015200Y0124700D01*
X0015200Y0136700D01*
X0013200Y0136700D01*
X0013200Y0142700D01*
X0015200Y0142700D01*
X0015200Y0149700D01*
X0015200Y0189700D02*
X0011700Y0189700D01*
X0011700Y0219200D01*
X0047700Y0219200D01*
X0047700Y0189700D01*
X0044200Y0189700D01*
X0108950Y0189700D02*
X0108950Y0187700D01*
X0110950Y0187700D01*
X0115950Y0187700D02*
X0117950Y0187700D01*
X0117950Y0189700D01*
X0117950Y0194700D02*
X0117950Y0196700D01*
X0115950Y0196700D01*
X0115950Y0198950D02*
X0117950Y0198950D01*
X0117950Y0200950D01*
X0117950Y0205950D02*
X0117950Y0207950D01*
X0115950Y0207950D01*
X0115950Y0210200D02*
X0117950Y0210200D01*
X0117950Y0212200D01*
X0117950Y0217200D02*
X0117950Y0219200D01*
X0115950Y0219200D01*
X0110950Y0219200D02*
X0108950Y0219200D01*
X0108950Y0217200D01*
X0108950Y0212200D02*
X0108950Y0210200D01*
X0110950Y0210200D01*
X0110950Y0207950D02*
X0108950Y0207950D01*
X0108950Y0205950D01*
X0108950Y0200950D02*
X0108950Y0198950D01*
X0110950Y0198950D01*
X0110950Y0196700D02*
X0108950Y0196700D01*
X0108950Y0194700D01*
X0216950Y0201600D02*
X0219950Y0201600D01*
X0219950Y0213000D01*
X0216950Y0213000D01*
X0216950Y0201600D01*
X0240200Y0131700D02*
X0240200Y0129700D01*
X0240200Y0131700D02*
X0242200Y0131700D01*
X0247200Y0131700D02*
X0249200Y0131700D01*
X0249200Y0129700D01*
X0249200Y0124700D02*
X0249200Y0122700D01*
X0247200Y0122700D01*
X0242200Y0122700D02*
X0240200Y0122700D01*
X0240200Y0124700D01*
X0255200Y0124700D02*
X0255200Y0122700D01*
X0257200Y0122700D01*
X0262200Y0122700D02*
X0264200Y0122700D01*
X0264200Y0124700D01*
X0264200Y0129700D02*
X0264200Y0131700D01*
X0262200Y0131700D01*
X0257200Y0131700D02*
X0255200Y0131700D01*
X0255200Y0129700D01*
X0244200Y0084200D02*
X0242200Y0084200D01*
X0244200Y0084200D02*
X0244200Y0082200D01*
X0244200Y0077200D02*
X0244200Y0075200D01*
X0242200Y0075200D01*
X0237200Y0075200D02*
X0235200Y0075200D01*
X0235200Y0077200D01*
X0235200Y0082200D02*
X0235200Y0084200D01*
X0237200Y0084200D01*
X0237200Y0061700D02*
X0235200Y0061700D01*
X0235200Y0059700D01*
X0235200Y0054700D02*
X0235200Y0052700D01*
X0237200Y0052700D01*
X0242200Y0052700D02*
X0244200Y0052700D01*
X0244200Y0054700D01*
X0244200Y0059700D02*
X0244200Y0061700D01*
X0242200Y0061700D01*
X0136870Y0055977D02*
X0137298Y0055827D01*
X0137721Y0055666D01*
X0138141Y0055495D01*
X0138556Y0055314D01*
X0138967Y0055123D01*
X0139372Y0054922D01*
X0139773Y0054710D01*
X0140169Y0054490D01*
X0140559Y0054259D01*
X0140943Y0054019D01*
X0141321Y0053770D01*
X0141693Y0053511D01*
X0142058Y0053244D01*
X0142417Y0052967D01*
X0142769Y0052682D01*
X0143114Y0052389D01*
X0143452Y0052087D01*
X0143782Y0051776D01*
X0144104Y0051458D01*
X0144419Y0051132D01*
X0144725Y0050799D01*
X0145024Y0050458D01*
X0145313Y0050110D01*
X0145594Y0049754D01*
X0145867Y0049393D01*
X0146130Y0049024D01*
X0146385Y0048649D01*
X0146630Y0048268D01*
X0146865Y0047881D01*
X0147091Y0047489D01*
X0147308Y0047091D01*
X0147515Y0046688D01*
X0147711Y0046280D01*
X0147898Y0045867D01*
X0148075Y0045450D01*
X0148241Y0045029D01*
X0148397Y0044603D01*
X0148542Y0044174D01*
X0148677Y0043742D01*
X0148801Y0043306D01*
X0148915Y0042868D01*
X0149018Y0042427D01*
X0149109Y0041983D01*
X0149191Y0041538D01*
X0149261Y0041090D01*
X0149320Y0040641D01*
X0149368Y0040191D01*
X0149405Y0039739D01*
X0149431Y0039287D01*
X0149446Y0038834D01*
X0149450Y0038381D01*
X0149443Y0037928D01*
X0149424Y0037476D01*
X0149395Y0037024D01*
X0149354Y0036572D01*
X0149303Y0036122D01*
X0149241Y0035674D01*
X0149167Y0035227D01*
X0149083Y0034782D01*
X0148987Y0034339D01*
X0148881Y0033899D01*
X0148765Y0033461D01*
X0148637Y0033026D01*
X0148499Y0032595D01*
X0148350Y0032167D01*
X0148191Y0031743D01*
X0148022Y0031323D01*
X0147842Y0030907D01*
X0147653Y0030496D01*
X0147453Y0030089D01*
X0147243Y0029687D01*
X0147024Y0029291D01*
X0146795Y0028900D01*
X0146556Y0028515D01*
X0146308Y0028136D01*
X0146051Y0027763D01*
X0145785Y0027397D01*
X0145510Y0027037D01*
X0145226Y0026684D01*
X0144934Y0026338D01*
X0144633Y0025999D01*
X0144324Y0025668D01*
X0144007Y0025344D01*
X0143682Y0025028D01*
X0143350Y0024721D01*
X0143010Y0024421D01*
X0142663Y0024130D01*
X0142309Y0023848D01*
X0141948Y0023574D01*
X0141580Y0023309D01*
X0141207Y0023053D01*
X0140827Y0022807D01*
X0140441Y0022570D01*
X0140049Y0022342D01*
X0139652Y0022124D01*
X0139250Y0021916D01*
X0138842Y0021718D01*
X0138430Y0021530D01*
X0138014Y0021352D01*
X0137593Y0021184D01*
X0137168Y0021026D01*
X0136740Y0020879D01*
X0136308Y0020743D01*
X0135873Y0020617D01*
X0135435Y0020502D01*
X0134994Y0020397D01*
X0134551Y0020304D01*
X0134105Y0020221D01*
X0133658Y0020149D01*
X0133209Y0020088D01*
X0132759Y0020039D01*
X0132308Y0020000D01*
X0131856Y0019972D01*
X0131403Y0019956D01*
X0130950Y0019950D01*
X0130497Y0019956D01*
X0130044Y0019972D01*
X0129592Y0020000D01*
X0129141Y0020039D01*
X0128691Y0020088D01*
X0128242Y0020149D01*
X0127795Y0020221D01*
X0127349Y0020304D01*
X0126906Y0020397D01*
X0126465Y0020502D01*
X0126027Y0020617D01*
X0125592Y0020743D01*
X0125160Y0020879D01*
X0124732Y0021026D01*
X0124307Y0021184D01*
X0123886Y0021352D01*
X0123470Y0021530D01*
X0123058Y0021718D01*
X0122650Y0021916D01*
X0122248Y0022124D01*
X0121851Y0022342D01*
X0121459Y0022570D01*
X0121073Y0022807D01*
X0120693Y0023053D01*
X0120320Y0023309D01*
X0119952Y0023574D01*
X0119591Y0023848D01*
X0119237Y0024130D01*
X0118890Y0024421D01*
X0118550Y0024721D01*
X0118218Y0025028D01*
X0117893Y0025344D01*
X0117576Y0025668D01*
X0117267Y0025999D01*
X0116966Y0026338D01*
X0116674Y0026684D01*
X0116390Y0027037D01*
X0116115Y0027397D01*
X0115849Y0027763D01*
X0115592Y0028136D01*
X0115344Y0028515D01*
X0115105Y0028900D01*
X0114876Y0029291D01*
X0114657Y0029687D01*
X0114447Y0030089D01*
X0114247Y0030496D01*
X0114058Y0030907D01*
X0113878Y0031323D01*
X0113709Y0031743D01*
X0113550Y0032167D01*
X0113401Y0032595D01*
X0113263Y0033026D01*
X0113135Y0033461D01*
X0113019Y0033899D01*
X0112913Y0034339D01*
X0112817Y0034782D01*
X0112733Y0035227D01*
X0112659Y0035674D01*
X0112597Y0036122D01*
X0112546Y0036572D01*
X0112505Y0037024D01*
X0112476Y0037476D01*
X0112457Y0037928D01*
X0112450Y0038381D01*
X0112454Y0038834D01*
X0112469Y0039287D01*
X0112495Y0039739D01*
X0112532Y0040191D01*
X0112580Y0040641D01*
X0112639Y0041090D01*
X0112709Y0041538D01*
X0112791Y0041983D01*
X0112882Y0042427D01*
X0112985Y0042868D01*
X0113099Y0043306D01*
X0113223Y0043742D01*
X0113358Y0044174D01*
X0113503Y0044603D01*
X0113659Y0045029D01*
X0113825Y0045450D01*
X0114002Y0045867D01*
X0114189Y0046280D01*
X0114385Y0046688D01*
X0114592Y0047091D01*
X0114809Y0047489D01*
X0115035Y0047881D01*
X0115270Y0048268D01*
X0115515Y0048649D01*
X0115770Y0049024D01*
X0116033Y0049393D01*
X0116306Y0049754D01*
X0116587Y0050110D01*
X0116876Y0050458D01*
X0117175Y0050799D01*
X0117481Y0051132D01*
X0117796Y0051458D01*
X0118118Y0051776D01*
X0118448Y0052087D01*
X0118786Y0052389D01*
X0119131Y0052682D01*
X0119483Y0052967D01*
X0119842Y0053244D01*
X0120207Y0053511D01*
X0120579Y0053770D01*
X0120957Y0054019D01*
X0121341Y0054259D01*
X0121731Y0054490D01*
X0122127Y0054710D01*
X0122528Y0054922D01*
X0122933Y0055123D01*
X0123344Y0055314D01*
X0123759Y0055495D01*
X0124179Y0055666D01*
X0124602Y0055827D01*
X0125030Y0055977D01*
X0124981Y0067340D02*
X0124276Y0067185D01*
X0123574Y0067013D01*
X0122877Y0066824D01*
X0122185Y0066618D01*
X0121498Y0066395D01*
X0120817Y0066155D01*
X0120142Y0065899D01*
X0119473Y0065626D01*
X0118811Y0065337D01*
X0118157Y0065032D01*
X0117510Y0064710D01*
X0116871Y0064374D01*
X0116241Y0064021D01*
X0115619Y0063653D01*
X0115007Y0063271D01*
X0114404Y0062873D01*
X0113811Y0062460D01*
X0113228Y0062034D01*
X0112656Y0061593D01*
X0112095Y0061138D01*
X0111546Y0060670D01*
X0111007Y0060188D01*
X0110481Y0059693D01*
X0109967Y0059186D01*
X0109466Y0058666D01*
X0108978Y0058134D01*
X0108502Y0057590D01*
X0108040Y0057035D01*
X0107592Y0056469D01*
X0107158Y0055891D01*
X0106738Y0055304D01*
X0106333Y0054706D01*
X0105943Y0054099D01*
X0105567Y0053482D01*
X0105207Y0052856D01*
X0104862Y0052221D01*
X0104532Y0051579D01*
X0104219Y0050928D01*
X0103921Y0050270D01*
X0103640Y0049605D01*
X0103375Y0048933D01*
X0103127Y0048255D01*
X0102895Y0047571D01*
X0102680Y0046881D01*
X0102483Y0046187D01*
X0102302Y0045487D01*
X0102138Y0044784D01*
X0101992Y0044077D01*
X0101863Y0043366D01*
X0101751Y0042653D01*
X0101657Y0041937D01*
X0101580Y0041218D01*
X0101521Y0040499D01*
X0101480Y0039778D01*
X0101456Y0039056D01*
X0101450Y0038334D01*
X0101462Y0037612D01*
X0101491Y0036890D01*
X0101538Y0036169D01*
X0101603Y0035450D01*
X0101685Y0034732D01*
X0101785Y0034017D01*
X0101902Y0033305D01*
X0102037Y0032595D01*
X0102189Y0031889D01*
X0102358Y0031187D01*
X0102544Y0030489D01*
X0102748Y0029796D01*
X0102968Y0029108D01*
X0103205Y0028426D01*
X0103459Y0027750D01*
X0103729Y0027080D01*
X0104016Y0026417D01*
X0104318Y0025762D01*
X0104637Y0025113D01*
X0104971Y0024473D01*
X0105321Y0023842D01*
X0105686Y0023219D01*
X0106067Y0022605D01*
X0106462Y0022000D01*
X0106872Y0021406D01*
X0107297Y0020821D01*
X0107735Y0020248D01*
X0108188Y0019685D01*
X0108654Y0019133D01*
X0109133Y0018593D01*
X0109626Y0018065D01*
X0110132Y0017549D01*
X0110649Y0017046D01*
X0111179Y0016555D01*
X0111721Y0016078D01*
X0112275Y0015614D01*
X0112839Y0015164D01*
X0113415Y0014727D01*
X0114001Y0014305D01*
X0114597Y0013897D01*
X0115203Y0013504D01*
X0115818Y0013126D01*
X0116443Y0012764D01*
X0117076Y0012416D01*
X0117717Y0012084D01*
X0118367Y0011768D01*
X0119024Y0011468D01*
X0119688Y0011184D01*
X0120359Y0010917D01*
X0121036Y0010666D01*
X0121719Y0010432D01*
X0122407Y0010214D01*
X0123101Y0010013D01*
X0123800Y0009830D01*
X0124502Y0009663D01*
X0125209Y0009514D01*
X0125919Y0009382D01*
X0126632Y0009268D01*
X0127348Y0009171D01*
X0128066Y0009091D01*
X0128785Y0009030D01*
X0129506Y0008985D01*
X0130228Y0008959D01*
X0130950Y0008950D01*
X0131672Y0008959D01*
X0132394Y0008985D01*
X0133115Y0009030D01*
X0133834Y0009091D01*
X0134552Y0009171D01*
X0135268Y0009268D01*
X0135981Y0009382D01*
X0136691Y0009514D01*
X0137398Y0009663D01*
X0138100Y0009830D01*
X0138799Y0010013D01*
X0139493Y0010214D01*
X0140181Y0010432D01*
X0140864Y0010666D01*
X0141541Y0010917D01*
X0142212Y0011184D01*
X0142876Y0011468D01*
X0143533Y0011768D01*
X0144183Y0012084D01*
X0144824Y0012416D01*
X0145457Y0012764D01*
X0146082Y0013126D01*
X0146697Y0013504D01*
X0147303Y0013897D01*
X0147899Y0014305D01*
X0148485Y0014727D01*
X0149061Y0015164D01*
X0149625Y0015614D01*
X0150179Y0016078D01*
X0150721Y0016555D01*
X0151251Y0017046D01*
X0151768Y0017549D01*
X0152274Y0018065D01*
X0152767Y0018593D01*
X0153246Y0019133D01*
X0153712Y0019685D01*
X0154165Y0020248D01*
X0154603Y0020821D01*
X0155028Y0021406D01*
X0155438Y0022000D01*
X0155833Y0022605D01*
X0156214Y0023219D01*
X0156579Y0023842D01*
X0156929Y0024473D01*
X0157263Y0025113D01*
X0157582Y0025762D01*
X0157884Y0026417D01*
X0158171Y0027080D01*
X0158441Y0027750D01*
X0158695Y0028426D01*
X0158932Y0029108D01*
X0159152Y0029796D01*
X0159356Y0030489D01*
X0159542Y0031187D01*
X0159711Y0031889D01*
X0159863Y0032595D01*
X0159998Y0033305D01*
X0160115Y0034017D01*
X0160215Y0034732D01*
X0160297Y0035450D01*
X0160362Y0036169D01*
X0160409Y0036890D01*
X0160438Y0037612D01*
X0160450Y0038334D01*
X0160444Y0039056D01*
X0160420Y0039778D01*
X0160379Y0040499D01*
X0160320Y0041218D01*
X0160243Y0041937D01*
X0160149Y0042653D01*
X0160037Y0043366D01*
X0159908Y0044077D01*
X0159762Y0044784D01*
X0159598Y0045487D01*
X0159417Y0046187D01*
X0159220Y0046881D01*
X0159005Y0047571D01*
X0158773Y0048255D01*
X0158525Y0048933D01*
X0158260Y0049605D01*
X0157979Y0050270D01*
X0157681Y0050928D01*
X0157368Y0051579D01*
X0157038Y0052221D01*
X0156693Y0052856D01*
X0156333Y0053482D01*
X0155957Y0054099D01*
X0155567Y0054706D01*
X0155162Y0055304D01*
X0154742Y0055891D01*
X0154308Y0056469D01*
X0153860Y0057035D01*
X0153398Y0057590D01*
X0152922Y0058134D01*
X0152434Y0058666D01*
X0151933Y0059186D01*
X0151419Y0059693D01*
X0150893Y0060188D01*
X0150354Y0060670D01*
X0149805Y0061138D01*
X0149244Y0061593D01*
X0148672Y0062034D01*
X0148089Y0062460D01*
X0147496Y0062873D01*
X0146893Y0063271D01*
X0146281Y0063653D01*
X0145659Y0064021D01*
X0145029Y0064374D01*
X0144390Y0064710D01*
X0143743Y0065032D01*
X0143089Y0065337D01*
X0142427Y0065626D01*
X0141758Y0065899D01*
X0141083Y0066155D01*
X0140402Y0066395D01*
X0139715Y0066618D01*
X0139023Y0066824D01*
X0138326Y0067013D01*
X0137624Y0067185D01*
X0136919Y0067340D01*
X0077950Y0033450D02*
X0075950Y0033450D01*
D15*
X0174700Y0123450D03*
X0204700Y0162200D03*
X0237200Y0204700D03*
D16*
X0206964Y0164267D03*
X0172436Y0121383D03*
D17*
X0239267Y0202436D03*
D18*
X0144450Y0065450D02*
X0138450Y0053950D01*
X0140950Y0052450D02*
X0148950Y0062950D01*
X0152950Y0059450D02*
X0143450Y0050450D01*
X0145450Y0047950D02*
X0155950Y0055450D01*
X0158450Y0051450D02*
X0146950Y0045450D01*
X0147950Y0042950D02*
X0159950Y0047450D01*
X0160950Y0041950D02*
X0148450Y0039950D01*
X0148450Y0036950D02*
X0161450Y0036450D01*
X0160450Y0031450D02*
X0147950Y0033950D01*
X0146950Y0031450D02*
X0158950Y0026450D01*
X0156450Y0021950D02*
X0145450Y0028950D01*
X0143950Y0026950D02*
X0153450Y0017950D01*
X0149950Y0014450D02*
X0141950Y0024950D01*
X0139450Y0022950D02*
X0145450Y0011450D01*
X0140950Y0009450D02*
X0136450Y0021450D01*
X0133450Y0020950D02*
X0135950Y0008450D01*
X0130450Y0007950D02*
X0130450Y0020950D01*
X0127450Y0020950D02*
X0124450Y0008450D01*
X0118950Y0010450D02*
X0124450Y0021950D01*
X0121450Y0023450D02*
X0114450Y0012950D01*
X0110450Y0015950D02*
X0118950Y0025450D01*
X0116950Y0027950D02*
X0106950Y0019450D01*
X0103950Y0023950D02*
X0115450Y0030450D01*
X0113950Y0033450D02*
X0101950Y0028950D01*
X0100950Y0034950D02*
X0113450Y0036950D01*
X0113450Y0039950D02*
X0100450Y0040450D01*
X0101450Y0045450D02*
X0113950Y0042950D01*
X0114950Y0045450D02*
X0102950Y0050450D01*
X0105450Y0055450D02*
X0116450Y0048450D01*
X0118450Y0050950D02*
X0108450Y0059450D01*
X0112450Y0062950D02*
X0120950Y0052950D01*
X0123450Y0054450D02*
X0116450Y0065450D01*
D19*
X0021378Y0012402D02*
X0018225Y0012402D01*
X0018225Y0018708D01*
X0021378Y0018708D01*
X0022429Y0017657D01*
X0022429Y0016606D01*
X0021378Y0015555D01*
X0018225Y0015555D01*
X0021378Y0015555D02*
X0022429Y0014504D01*
X0022429Y0013453D01*
X0021378Y0012402D01*
X0024671Y0012402D02*
X0028874Y0012402D01*
X0026772Y0012402D02*
X0026772Y0018708D01*
X0024671Y0016606D01*
X0126300Y0036300D02*
X0130504Y0036300D01*
X0132745Y0036300D02*
X0136949Y0036300D01*
X0134847Y0036300D02*
X0134847Y0042605D01*
X0132745Y0040504D01*
X0126300Y0042605D02*
X0126300Y0036300D01*
X0050550Y0149559D02*
X0044245Y0149559D01*
X0044245Y0153763D01*
X0046346Y0156004D02*
X0044245Y0158106D01*
X0050550Y0158106D01*
X0050550Y0156004D02*
X0050550Y0160208D01*
X0047397Y0151661D02*
X0047397Y0149559D01*
D20*
X0107900Y0145600D03*
X0107900Y0138900D03*
X0107900Y0132200D03*
X0107900Y0125500D03*
X0107900Y0118800D03*
D21*
X0091700Y0185950D02*
X0056700Y0185950D01*
X0056700Y0195950D01*
X0056700Y0225950D01*
X0091700Y0225950D01*
X0091700Y0195950D01*
X0091700Y0185950D01*
X0175200Y0048450D02*
X0175200Y0038450D01*
X0175200Y0008450D01*
X0210200Y0008450D01*
X0210200Y0038450D01*
X0210200Y0048450D01*
X0175200Y0048450D01*
D22*
X0184400Y0023450D03*
X0200000Y0023450D03*
X0082500Y0210950D03*
X0066900Y0210950D03*
D23*
X0041200Y0189700D02*
X0041200Y0149700D01*
X0029700Y0149200D02*
X0029700Y0190200D01*
D24*
X0022200Y0169700D03*
X0037200Y0169700D03*
D25*
X0038950Y0148450D03*
X0020450Y0148450D03*
X0020450Y0190950D03*
X0038950Y0190950D03*
D26*
X0029700Y0210700D03*
X0029700Y0128700D03*
D27*
X0019450Y0137700D03*
X0039950Y0137700D03*
X0039950Y0201700D03*
X0019450Y0201700D03*
D28*
X0015700Y0199700D03*
X0043700Y0199700D03*
X0043700Y0139700D03*
X0015700Y0139700D03*
D29*
X0021950Y0145200D03*
X0037450Y0145200D03*
X0037450Y0194200D03*
X0021950Y0194200D03*
D30*
X0021950Y0206700D03*
X0037450Y0206700D03*
X0037450Y0132700D03*
X0021950Y0132700D03*
D31*
X0075700Y0077200D03*
X0075700Y0033450D03*
M02*
