G75*
%MOIN*%
%OFA0B0*%
%FSLAX25Y25*%
%IPPOS*%
%LPD*%
%AMOC8*
5,1,8,0,0,1.08239X$1,22.5*
%
%ADD10C,0.06800*%
%ADD11OC8,0.10800*%
%ADD12OC8,0.15800*%
%ADD13C,0.10250*%
%ADD14C,0.07887*%
%ADD15OC8,0.05550*%
%ADD16OC8,0.04762*%
D10*
X0091700Y0062503D02*
X0097700Y0062503D01*
X0097700Y0080003D02*
X0091700Y0080003D01*
D11*
X0237200Y0068753D03*
X0237200Y0032503D03*
D12*
X0041019Y0133147D03*
X0021019Y0133147D03*
X0021019Y0195147D03*
X0041019Y0195147D03*
D13*
X0043027Y0032828D02*
X0033577Y0032828D01*
X0033577Y0052828D02*
X0043027Y0052828D01*
X0043027Y0072828D02*
X0033577Y0072828D01*
X0033577Y0092828D02*
X0043027Y0092828D01*
D14*
X0159700Y0032296D02*
X0159700Y0025210D01*
X0169700Y0025210D02*
X0169700Y0032296D01*
X0074700Y0196460D02*
X0074700Y0203546D01*
X0064700Y0203546D02*
X0064700Y0196460D01*
D15*
X0104700Y0173753D03*
X0092200Y0158753D03*
X0092200Y0142503D03*
X0079700Y0141253D03*
X0073450Y0141253D03*
X0057200Y0158753D03*
X0112200Y0155003D03*
X0112200Y0146253D03*
X0112200Y0137503D03*
X0124700Y0137503D03*
X0124700Y0146253D03*
X0124700Y0155003D03*
X0135950Y0155003D03*
X0135950Y0146253D03*
X0135950Y0137503D03*
X0154700Y0141253D03*
X0154700Y0160003D03*
X0143450Y0173753D03*
X0124700Y0173753D03*
X0123450Y0203753D03*
X0175950Y0212503D03*
X0214700Y0187503D03*
X0252200Y0202503D03*
X0252200Y0137503D03*
X0233450Y0137503D03*
X0198450Y0137503D03*
X0178450Y0096253D03*
X0164700Y0096253D03*
X0148450Y0096253D03*
X0145950Y0053753D03*
X0203450Y0072503D03*
X0203450Y0086253D03*
X0219700Y0086253D03*
X0219700Y0072503D03*
X0247200Y0093753D03*
X0099700Y0107503D03*
X0055950Y0068753D03*
X0057200Y0038753D03*
X0055950Y0022503D03*
D16*
X0123450Y0090003D03*
X0129700Y0090003D03*
X0129700Y0102503D03*
X0123450Y0102503D03*
X0116767Y0102592D03*
X0155950Y0110003D03*
X0164700Y0128753D03*
X0189700Y0127503D03*
X0230950Y0157503D03*
X0189700Y0042503D03*
M02*
