G75*
%MOIN*%
%OFA0B0*%
%FSLAX25Y25*%
%IPPOS*%
%LPD*%
%AMOC8*
5,1,8,0,0,1.08239X$1,22.5*
%
%ADD10R,0.05906X0.05118*%
%ADD11R,0.05118X0.05906*%
%ADD12R,0.13780X0.06299*%
%ADD13R,0.09449X0.09449*%
%ADD14R,0.03150X0.05512*%
%ADD15R,0.07087X0.08661*%
%ADD16R,0.03500X0.03100*%
%ADD17R,0.02362X0.08661*%
%ADD18R,0.07098X0.06299*%
%ADD19R,0.06299X0.07098*%
%ADD20R,0.07874X0.03543*%
%ADD21R,0.07874X0.05118*%
%ADD22R,0.12598X0.07087*%
%ADD23R,0.03543X0.07874*%
%ADD24R,0.05118X0.07874*%
%ADD25R,0.06299X0.05118*%
%ADD26R,0.05118X0.06299*%
%ADD27R,0.40984X0.42520*%
%ADD28R,0.08500X0.04200*%
D10*
X0160763Y0063785D03*
X0160763Y0071265D03*
X0147200Y0170960D03*
X0147200Y0178440D03*
X0170950Y0203460D03*
X0170950Y0210940D03*
X0106048Y0178411D03*
X0106048Y0170930D03*
D11*
X0080940Y0130950D03*
X0073460Y0130950D03*
X0233460Y0189700D03*
X0240940Y0189700D03*
D12*
X0194080Y0085025D03*
X0172820Y0085025D03*
D13*
X0156974Y0086875D03*
X0139651Y0086875D03*
D14*
X0133106Y0178420D03*
X0127200Y0178420D03*
X0121294Y0178420D03*
D15*
X0127200Y0166294D03*
D16*
X0214450Y0203500D03*
X0214450Y0211100D03*
X0222450Y0207300D03*
D17*
X0222200Y0166186D03*
X0217200Y0166186D03*
X0227200Y0166186D03*
X0232200Y0166186D03*
X0232200Y0145714D03*
X0227200Y0145714D03*
X0222200Y0145714D03*
X0217200Y0145714D03*
D18*
X0204700Y0156602D03*
X0204700Y0167798D03*
X0174700Y0129048D03*
X0174700Y0117852D03*
D19*
X0231602Y0204700D03*
X0242798Y0204700D03*
D20*
X0242978Y0113037D03*
X0242978Y0102013D03*
D21*
X0260300Y0107525D03*
D22*
X0219700Y0079474D03*
X0219700Y0057426D03*
D23*
X0143312Y0213135D03*
X0132289Y0213135D03*
D24*
X0137800Y0195812D03*
D25*
X0154700Y0203460D03*
X0154700Y0210940D03*
X0184700Y0210940D03*
X0184700Y0203460D03*
X0199700Y0203460D03*
X0199700Y0210940D03*
X0190950Y0165940D03*
X0190950Y0158460D03*
X0187200Y0125940D03*
X0187200Y0118460D03*
X0207200Y0118460D03*
X0207200Y0125940D03*
X0222200Y0125940D03*
X0222200Y0118460D03*
D26*
X0233460Y0179700D03*
X0240940Y0179700D03*
D27*
X0132200Y0132200D03*
D28*
X0099400Y0118800D03*
X0099400Y0125500D03*
X0099400Y0132200D03*
X0099400Y0138900D03*
X0099400Y0145600D03*
M02*
