G75*
%MOIN*%
%OFA0B0*%
%FSLAX25Y25*%
%IPPOS*%
%LPD*%
%AMOC8*
5,1,8,0,0,1.08239X$1,22.5*
%
%ADD10C,0.02400*%
%ADD11C,0.00000*%
D10*
X0002200Y0002200D02*
X0002200Y0229661D01*
X0270901Y0230911D01*
X0270901Y0003450D01*
X0002200Y0002200D01*
D11*
X0004444Y0007200D02*
X0004446Y0007305D01*
X0004452Y0007410D01*
X0004462Y0007514D01*
X0004476Y0007618D01*
X0004494Y0007722D01*
X0004516Y0007824D01*
X0004541Y0007926D01*
X0004571Y0008027D01*
X0004604Y0008126D01*
X0004641Y0008224D01*
X0004682Y0008321D01*
X0004727Y0008416D01*
X0004775Y0008509D01*
X0004826Y0008601D01*
X0004882Y0008690D01*
X0004940Y0008777D01*
X0005002Y0008862D01*
X0005066Y0008945D01*
X0005134Y0009025D01*
X0005205Y0009102D01*
X0005279Y0009176D01*
X0005356Y0009248D01*
X0005435Y0009317D01*
X0005517Y0009382D01*
X0005601Y0009445D01*
X0005688Y0009504D01*
X0005777Y0009560D01*
X0005868Y0009613D01*
X0005961Y0009662D01*
X0006055Y0009707D01*
X0006151Y0009749D01*
X0006249Y0009787D01*
X0006348Y0009821D01*
X0006449Y0009852D01*
X0006550Y0009878D01*
X0006653Y0009901D01*
X0006756Y0009920D01*
X0006860Y0009935D01*
X0006964Y0009946D01*
X0007069Y0009953D01*
X0007174Y0009956D01*
X0007279Y0009955D01*
X0007384Y0009950D01*
X0007488Y0009941D01*
X0007592Y0009928D01*
X0007696Y0009911D01*
X0007799Y0009890D01*
X0007901Y0009865D01*
X0008002Y0009837D01*
X0008101Y0009804D01*
X0008200Y0009768D01*
X0008297Y0009728D01*
X0008392Y0009685D01*
X0008486Y0009637D01*
X0008578Y0009587D01*
X0008668Y0009533D01*
X0008756Y0009475D01*
X0008841Y0009414D01*
X0008924Y0009350D01*
X0009005Y0009283D01*
X0009083Y0009213D01*
X0009158Y0009139D01*
X0009230Y0009064D01*
X0009300Y0008985D01*
X0009366Y0008904D01*
X0009430Y0008820D01*
X0009490Y0008734D01*
X0009546Y0008646D01*
X0009600Y0008555D01*
X0009650Y0008463D01*
X0009696Y0008369D01*
X0009739Y0008273D01*
X0009778Y0008175D01*
X0009813Y0008077D01*
X0009844Y0007976D01*
X0009872Y0007875D01*
X0009896Y0007773D01*
X0009916Y0007670D01*
X0009932Y0007566D01*
X0009944Y0007462D01*
X0009952Y0007357D01*
X0009956Y0007252D01*
X0009956Y0007148D01*
X0009952Y0007043D01*
X0009944Y0006938D01*
X0009932Y0006834D01*
X0009916Y0006730D01*
X0009896Y0006627D01*
X0009872Y0006525D01*
X0009844Y0006424D01*
X0009813Y0006323D01*
X0009778Y0006225D01*
X0009739Y0006127D01*
X0009696Y0006031D01*
X0009650Y0005937D01*
X0009600Y0005845D01*
X0009546Y0005754D01*
X0009490Y0005666D01*
X0009430Y0005580D01*
X0009366Y0005496D01*
X0009300Y0005415D01*
X0009230Y0005336D01*
X0009158Y0005261D01*
X0009083Y0005187D01*
X0009005Y0005117D01*
X0008924Y0005050D01*
X0008841Y0004986D01*
X0008756Y0004925D01*
X0008668Y0004867D01*
X0008578Y0004813D01*
X0008486Y0004763D01*
X0008392Y0004715D01*
X0008297Y0004672D01*
X0008200Y0004632D01*
X0008101Y0004596D01*
X0008002Y0004563D01*
X0007901Y0004535D01*
X0007799Y0004510D01*
X0007696Y0004489D01*
X0007592Y0004472D01*
X0007488Y0004459D01*
X0007384Y0004450D01*
X0007279Y0004445D01*
X0007174Y0004444D01*
X0007069Y0004447D01*
X0006964Y0004454D01*
X0006860Y0004465D01*
X0006756Y0004480D01*
X0006653Y0004499D01*
X0006550Y0004522D01*
X0006449Y0004548D01*
X0006348Y0004579D01*
X0006249Y0004613D01*
X0006151Y0004651D01*
X0006055Y0004693D01*
X0005961Y0004738D01*
X0005868Y0004787D01*
X0005777Y0004840D01*
X0005688Y0004896D01*
X0005601Y0004955D01*
X0005517Y0005018D01*
X0005435Y0005083D01*
X0005356Y0005152D01*
X0005279Y0005224D01*
X0005205Y0005298D01*
X0005134Y0005375D01*
X0005066Y0005455D01*
X0005002Y0005538D01*
X0004940Y0005623D01*
X0004882Y0005710D01*
X0004826Y0005799D01*
X0004775Y0005891D01*
X0004727Y0005984D01*
X0004682Y0006079D01*
X0004641Y0006176D01*
X0004604Y0006274D01*
X0004571Y0006373D01*
X0004541Y0006474D01*
X0004516Y0006576D01*
X0004494Y0006678D01*
X0004476Y0006782D01*
X0004462Y0006886D01*
X0004452Y0006990D01*
X0004446Y0007095D01*
X0004444Y0007200D01*
X0004444Y0224700D02*
X0004446Y0224805D01*
X0004452Y0224910D01*
X0004462Y0225014D01*
X0004476Y0225118D01*
X0004494Y0225222D01*
X0004516Y0225324D01*
X0004541Y0225426D01*
X0004571Y0225527D01*
X0004604Y0225626D01*
X0004641Y0225724D01*
X0004682Y0225821D01*
X0004727Y0225916D01*
X0004775Y0226009D01*
X0004826Y0226101D01*
X0004882Y0226190D01*
X0004940Y0226277D01*
X0005002Y0226362D01*
X0005066Y0226445D01*
X0005134Y0226525D01*
X0005205Y0226602D01*
X0005279Y0226676D01*
X0005356Y0226748D01*
X0005435Y0226817D01*
X0005517Y0226882D01*
X0005601Y0226945D01*
X0005688Y0227004D01*
X0005777Y0227060D01*
X0005868Y0227113D01*
X0005961Y0227162D01*
X0006055Y0227207D01*
X0006151Y0227249D01*
X0006249Y0227287D01*
X0006348Y0227321D01*
X0006449Y0227352D01*
X0006550Y0227378D01*
X0006653Y0227401D01*
X0006756Y0227420D01*
X0006860Y0227435D01*
X0006964Y0227446D01*
X0007069Y0227453D01*
X0007174Y0227456D01*
X0007279Y0227455D01*
X0007384Y0227450D01*
X0007488Y0227441D01*
X0007592Y0227428D01*
X0007696Y0227411D01*
X0007799Y0227390D01*
X0007901Y0227365D01*
X0008002Y0227337D01*
X0008101Y0227304D01*
X0008200Y0227268D01*
X0008297Y0227228D01*
X0008392Y0227185D01*
X0008486Y0227137D01*
X0008578Y0227087D01*
X0008668Y0227033D01*
X0008756Y0226975D01*
X0008841Y0226914D01*
X0008924Y0226850D01*
X0009005Y0226783D01*
X0009083Y0226713D01*
X0009158Y0226639D01*
X0009230Y0226564D01*
X0009300Y0226485D01*
X0009366Y0226404D01*
X0009430Y0226320D01*
X0009490Y0226234D01*
X0009546Y0226146D01*
X0009600Y0226055D01*
X0009650Y0225963D01*
X0009696Y0225869D01*
X0009739Y0225773D01*
X0009778Y0225675D01*
X0009813Y0225577D01*
X0009844Y0225476D01*
X0009872Y0225375D01*
X0009896Y0225273D01*
X0009916Y0225170D01*
X0009932Y0225066D01*
X0009944Y0224962D01*
X0009952Y0224857D01*
X0009956Y0224752D01*
X0009956Y0224648D01*
X0009952Y0224543D01*
X0009944Y0224438D01*
X0009932Y0224334D01*
X0009916Y0224230D01*
X0009896Y0224127D01*
X0009872Y0224025D01*
X0009844Y0223924D01*
X0009813Y0223823D01*
X0009778Y0223725D01*
X0009739Y0223627D01*
X0009696Y0223531D01*
X0009650Y0223437D01*
X0009600Y0223345D01*
X0009546Y0223254D01*
X0009490Y0223166D01*
X0009430Y0223080D01*
X0009366Y0222996D01*
X0009300Y0222915D01*
X0009230Y0222836D01*
X0009158Y0222761D01*
X0009083Y0222687D01*
X0009005Y0222617D01*
X0008924Y0222550D01*
X0008841Y0222486D01*
X0008756Y0222425D01*
X0008668Y0222367D01*
X0008578Y0222313D01*
X0008486Y0222263D01*
X0008392Y0222215D01*
X0008297Y0222172D01*
X0008200Y0222132D01*
X0008101Y0222096D01*
X0008002Y0222063D01*
X0007901Y0222035D01*
X0007799Y0222010D01*
X0007696Y0221989D01*
X0007592Y0221972D01*
X0007488Y0221959D01*
X0007384Y0221950D01*
X0007279Y0221945D01*
X0007174Y0221944D01*
X0007069Y0221947D01*
X0006964Y0221954D01*
X0006860Y0221965D01*
X0006756Y0221980D01*
X0006653Y0221999D01*
X0006550Y0222022D01*
X0006449Y0222048D01*
X0006348Y0222079D01*
X0006249Y0222113D01*
X0006151Y0222151D01*
X0006055Y0222193D01*
X0005961Y0222238D01*
X0005868Y0222287D01*
X0005777Y0222340D01*
X0005688Y0222396D01*
X0005601Y0222455D01*
X0005517Y0222518D01*
X0005435Y0222583D01*
X0005356Y0222652D01*
X0005279Y0222724D01*
X0005205Y0222798D01*
X0005134Y0222875D01*
X0005066Y0222955D01*
X0005002Y0223038D01*
X0004940Y0223123D01*
X0004882Y0223210D01*
X0004826Y0223299D01*
X0004775Y0223391D01*
X0004727Y0223484D01*
X0004682Y0223579D01*
X0004641Y0223676D01*
X0004604Y0223774D01*
X0004571Y0223873D01*
X0004541Y0223974D01*
X0004516Y0224076D01*
X0004494Y0224178D01*
X0004476Y0224282D01*
X0004462Y0224386D01*
X0004452Y0224490D01*
X0004446Y0224595D01*
X0004444Y0224700D01*
X0263194Y0225950D02*
X0263196Y0226055D01*
X0263202Y0226160D01*
X0263212Y0226264D01*
X0263226Y0226368D01*
X0263244Y0226472D01*
X0263266Y0226574D01*
X0263291Y0226676D01*
X0263321Y0226777D01*
X0263354Y0226876D01*
X0263391Y0226974D01*
X0263432Y0227071D01*
X0263477Y0227166D01*
X0263525Y0227259D01*
X0263576Y0227351D01*
X0263632Y0227440D01*
X0263690Y0227527D01*
X0263752Y0227612D01*
X0263816Y0227695D01*
X0263884Y0227775D01*
X0263955Y0227852D01*
X0264029Y0227926D01*
X0264106Y0227998D01*
X0264185Y0228067D01*
X0264267Y0228132D01*
X0264351Y0228195D01*
X0264438Y0228254D01*
X0264527Y0228310D01*
X0264618Y0228363D01*
X0264711Y0228412D01*
X0264805Y0228457D01*
X0264901Y0228499D01*
X0264999Y0228537D01*
X0265098Y0228571D01*
X0265199Y0228602D01*
X0265300Y0228628D01*
X0265403Y0228651D01*
X0265506Y0228670D01*
X0265610Y0228685D01*
X0265714Y0228696D01*
X0265819Y0228703D01*
X0265924Y0228706D01*
X0266029Y0228705D01*
X0266134Y0228700D01*
X0266238Y0228691D01*
X0266342Y0228678D01*
X0266446Y0228661D01*
X0266549Y0228640D01*
X0266651Y0228615D01*
X0266752Y0228587D01*
X0266851Y0228554D01*
X0266950Y0228518D01*
X0267047Y0228478D01*
X0267142Y0228435D01*
X0267236Y0228387D01*
X0267328Y0228337D01*
X0267418Y0228283D01*
X0267506Y0228225D01*
X0267591Y0228164D01*
X0267674Y0228100D01*
X0267755Y0228033D01*
X0267833Y0227963D01*
X0267908Y0227889D01*
X0267980Y0227814D01*
X0268050Y0227735D01*
X0268116Y0227654D01*
X0268180Y0227570D01*
X0268240Y0227484D01*
X0268296Y0227396D01*
X0268350Y0227305D01*
X0268400Y0227213D01*
X0268446Y0227119D01*
X0268489Y0227023D01*
X0268528Y0226925D01*
X0268563Y0226827D01*
X0268594Y0226726D01*
X0268622Y0226625D01*
X0268646Y0226523D01*
X0268666Y0226420D01*
X0268682Y0226316D01*
X0268694Y0226212D01*
X0268702Y0226107D01*
X0268706Y0226002D01*
X0268706Y0225898D01*
X0268702Y0225793D01*
X0268694Y0225688D01*
X0268682Y0225584D01*
X0268666Y0225480D01*
X0268646Y0225377D01*
X0268622Y0225275D01*
X0268594Y0225174D01*
X0268563Y0225073D01*
X0268528Y0224975D01*
X0268489Y0224877D01*
X0268446Y0224781D01*
X0268400Y0224687D01*
X0268350Y0224595D01*
X0268296Y0224504D01*
X0268240Y0224416D01*
X0268180Y0224330D01*
X0268116Y0224246D01*
X0268050Y0224165D01*
X0267980Y0224086D01*
X0267908Y0224011D01*
X0267833Y0223937D01*
X0267755Y0223867D01*
X0267674Y0223800D01*
X0267591Y0223736D01*
X0267506Y0223675D01*
X0267418Y0223617D01*
X0267328Y0223563D01*
X0267236Y0223513D01*
X0267142Y0223465D01*
X0267047Y0223422D01*
X0266950Y0223382D01*
X0266851Y0223346D01*
X0266752Y0223313D01*
X0266651Y0223285D01*
X0266549Y0223260D01*
X0266446Y0223239D01*
X0266342Y0223222D01*
X0266238Y0223209D01*
X0266134Y0223200D01*
X0266029Y0223195D01*
X0265924Y0223194D01*
X0265819Y0223197D01*
X0265714Y0223204D01*
X0265610Y0223215D01*
X0265506Y0223230D01*
X0265403Y0223249D01*
X0265300Y0223272D01*
X0265199Y0223298D01*
X0265098Y0223329D01*
X0264999Y0223363D01*
X0264901Y0223401D01*
X0264805Y0223443D01*
X0264711Y0223488D01*
X0264618Y0223537D01*
X0264527Y0223590D01*
X0264438Y0223646D01*
X0264351Y0223705D01*
X0264267Y0223768D01*
X0264185Y0223833D01*
X0264106Y0223902D01*
X0264029Y0223974D01*
X0263955Y0224048D01*
X0263884Y0224125D01*
X0263816Y0224205D01*
X0263752Y0224288D01*
X0263690Y0224373D01*
X0263632Y0224460D01*
X0263576Y0224549D01*
X0263525Y0224641D01*
X0263477Y0224734D01*
X0263432Y0224829D01*
X0263391Y0224926D01*
X0263354Y0225024D01*
X0263321Y0225123D01*
X0263291Y0225224D01*
X0263266Y0225326D01*
X0263244Y0225428D01*
X0263226Y0225532D01*
X0263212Y0225636D01*
X0263202Y0225740D01*
X0263196Y0225845D01*
X0263194Y0225950D01*
X0263194Y0008450D02*
X0263196Y0008555D01*
X0263202Y0008660D01*
X0263212Y0008764D01*
X0263226Y0008868D01*
X0263244Y0008972D01*
X0263266Y0009074D01*
X0263291Y0009176D01*
X0263321Y0009277D01*
X0263354Y0009376D01*
X0263391Y0009474D01*
X0263432Y0009571D01*
X0263477Y0009666D01*
X0263525Y0009759D01*
X0263576Y0009851D01*
X0263632Y0009940D01*
X0263690Y0010027D01*
X0263752Y0010112D01*
X0263816Y0010195D01*
X0263884Y0010275D01*
X0263955Y0010352D01*
X0264029Y0010426D01*
X0264106Y0010498D01*
X0264185Y0010567D01*
X0264267Y0010632D01*
X0264351Y0010695D01*
X0264438Y0010754D01*
X0264527Y0010810D01*
X0264618Y0010863D01*
X0264711Y0010912D01*
X0264805Y0010957D01*
X0264901Y0010999D01*
X0264999Y0011037D01*
X0265098Y0011071D01*
X0265199Y0011102D01*
X0265300Y0011128D01*
X0265403Y0011151D01*
X0265506Y0011170D01*
X0265610Y0011185D01*
X0265714Y0011196D01*
X0265819Y0011203D01*
X0265924Y0011206D01*
X0266029Y0011205D01*
X0266134Y0011200D01*
X0266238Y0011191D01*
X0266342Y0011178D01*
X0266446Y0011161D01*
X0266549Y0011140D01*
X0266651Y0011115D01*
X0266752Y0011087D01*
X0266851Y0011054D01*
X0266950Y0011018D01*
X0267047Y0010978D01*
X0267142Y0010935D01*
X0267236Y0010887D01*
X0267328Y0010837D01*
X0267418Y0010783D01*
X0267506Y0010725D01*
X0267591Y0010664D01*
X0267674Y0010600D01*
X0267755Y0010533D01*
X0267833Y0010463D01*
X0267908Y0010389D01*
X0267980Y0010314D01*
X0268050Y0010235D01*
X0268116Y0010154D01*
X0268180Y0010070D01*
X0268240Y0009984D01*
X0268296Y0009896D01*
X0268350Y0009805D01*
X0268400Y0009713D01*
X0268446Y0009619D01*
X0268489Y0009523D01*
X0268528Y0009425D01*
X0268563Y0009327D01*
X0268594Y0009226D01*
X0268622Y0009125D01*
X0268646Y0009023D01*
X0268666Y0008920D01*
X0268682Y0008816D01*
X0268694Y0008712D01*
X0268702Y0008607D01*
X0268706Y0008502D01*
X0268706Y0008398D01*
X0268702Y0008293D01*
X0268694Y0008188D01*
X0268682Y0008084D01*
X0268666Y0007980D01*
X0268646Y0007877D01*
X0268622Y0007775D01*
X0268594Y0007674D01*
X0268563Y0007573D01*
X0268528Y0007475D01*
X0268489Y0007377D01*
X0268446Y0007281D01*
X0268400Y0007187D01*
X0268350Y0007095D01*
X0268296Y0007004D01*
X0268240Y0006916D01*
X0268180Y0006830D01*
X0268116Y0006746D01*
X0268050Y0006665D01*
X0267980Y0006586D01*
X0267908Y0006511D01*
X0267833Y0006437D01*
X0267755Y0006367D01*
X0267674Y0006300D01*
X0267591Y0006236D01*
X0267506Y0006175D01*
X0267418Y0006117D01*
X0267328Y0006063D01*
X0267236Y0006013D01*
X0267142Y0005965D01*
X0267047Y0005922D01*
X0266950Y0005882D01*
X0266851Y0005846D01*
X0266752Y0005813D01*
X0266651Y0005785D01*
X0266549Y0005760D01*
X0266446Y0005739D01*
X0266342Y0005722D01*
X0266238Y0005709D01*
X0266134Y0005700D01*
X0266029Y0005695D01*
X0265924Y0005694D01*
X0265819Y0005697D01*
X0265714Y0005704D01*
X0265610Y0005715D01*
X0265506Y0005730D01*
X0265403Y0005749D01*
X0265300Y0005772D01*
X0265199Y0005798D01*
X0265098Y0005829D01*
X0264999Y0005863D01*
X0264901Y0005901D01*
X0264805Y0005943D01*
X0264711Y0005988D01*
X0264618Y0006037D01*
X0264527Y0006090D01*
X0264438Y0006146D01*
X0264351Y0006205D01*
X0264267Y0006268D01*
X0264185Y0006333D01*
X0264106Y0006402D01*
X0264029Y0006474D01*
X0263955Y0006548D01*
X0263884Y0006625D01*
X0263816Y0006705D01*
X0263752Y0006788D01*
X0263690Y0006873D01*
X0263632Y0006960D01*
X0263576Y0007049D01*
X0263525Y0007141D01*
X0263477Y0007234D01*
X0263432Y0007329D01*
X0263391Y0007426D01*
X0263354Y0007524D01*
X0263321Y0007623D01*
X0263291Y0007724D01*
X0263266Y0007826D01*
X0263244Y0007928D01*
X0263226Y0008032D01*
X0263212Y0008136D01*
X0263202Y0008240D01*
X0263196Y0008345D01*
X0263194Y0008450D01*
M02*
