%
M48
M72
T01C0.02362
T02C0.03150
T03C0.04000
T04C0.05200
T05C0.05512
T06C0.06600
%
T01
X89995Y138814
X162436Y138814
X174700Y137200
X199700Y135950
X240950Y165950
X184700Y220950
X168450Y178450
X199700Y57200
T02
X213450Y89700
X227200Y89700
X227200Y103450
X213450Y103450
X233450Y118450
X208450Y145950
X213450Y177200
X222200Y197200
X157200Y160950
X139700Y160950
X127200Y163450
X127200Y170950
X100950Y162200
X92200Y162200
X92200Y153450
X100950Y153450
X97200Y104700
X79700Y104700
X79700Y65950
X87200Y65950
X87200Y58450
X79700Y58450
X79700Y50950
X87200Y50950
X87200Y43450
X79700Y43450
X33450Y97200
X33450Y104700
X25950Y104700
X25950Y97200
X160950Y100950
X160950Y109700
X169700Y109700
X169700Y100950
X258450Y80950
T03
X239700Y79700
X239700Y57200
X244700Y127200
X259700Y127200
X130950Y70950
X130950Y53450
X83450Y33450
X63450Y33450
X30802Y33775
X30802Y48775
X30802Y63775
X30802Y78775
X63450Y77200
X83450Y77200
X113450Y192200
X113450Y203450
X113450Y214700
T04
X29700Y199700
X29700Y139700
T05
X7200Y7200
X7200Y224700
X265950Y225950
X265950Y8450
T06
X200000Y23450
X184400Y23450
X82500Y210950
X66900Y210950
M30
