%
M48
M72
T01C0.02362
T02C0.03150
T03C0.04000
T04C0.04724
T05C0.05906
T06C0.06300
%
T01
X116767Y102592
X123450Y102503
X129700Y102503
X129700Y90003
X123450Y90003
X155950Y110003
X164700Y128753
X189700Y127503
X230950Y157503
X189700Y42503
T02
X203450Y72503
X203450Y86253
X219700Y86253
X219700Y72503
X247200Y93753
X252200Y137503
X233450Y137503
X198450Y137503
X154700Y141253
X135950Y137503
X135950Y146253
X135950Y155003
X124700Y155003
X124700Y146253
X124700Y137503
X112200Y137503
X112200Y146253
X112200Y155003
X92200Y158753
X92200Y142503
X79700Y141253
X73450Y141253
X57200Y158753
X104700Y173753
X124700Y173753
X143450Y173753
X154700Y160003
X123450Y203753
X175950Y212503
X214700Y187503
X252200Y202503
X178450Y96253
X164700Y96253
X148450Y96253
X145950Y53753
X99700Y107503
X55950Y68753
X57200Y38753
X55950Y22503
T03
X94700Y62503
X94700Y80003
X237200Y68753
X237200Y32503
T04
X169700Y28753
X159700Y28753
X74700Y200003
X64700Y200003
T05
X41019Y195147
X21019Y195147
X21019Y133147
X41019Y133147
T06
X38302Y32828
X38302Y52828
X38302Y72828
X38302Y92828
M30
