G75*
%MOIN*%
%OFA0B0*%
%FSLAX25Y25*%
%IPPOS*%
%LPD*%
%AMOC8*
5,1,8,0,0,1.08239X$1,22.5*
%
%ADD10R,0.05906X0.05118*%
%ADD11R,0.05118X0.05906*%
%ADD12R,0.13780X0.06299*%
%ADD13R,0.09449X0.09449*%
%ADD14R,0.03937X0.05906*%
%ADD15R,0.03937X0.07874*%
%ADD16C,0.08661*%
%ADD17R,0.03500X0.03100*%
%ADD18R,0.02362X0.08661*%
%ADD19R,0.07098X0.06299*%
%ADD20R,0.06299X0.07098*%
%ADD21R,0.07874X0.03543*%
%ADD22R,0.07874X0.05118*%
%ADD23R,0.12598X0.07087*%
%ADD24R,0.03543X0.07874*%
%ADD25R,0.05118X0.07874*%
%ADD26R,0.06299X0.05118*%
%ADD27C,0.06000*%
%ADD28R,0.05118X0.06299*%
%ADD29R,0.40984X0.42520*%
%ADD30R,0.08500X0.04200*%
%ADD31C,0.09900*%
%ADD32C,0.10000*%
%ADD33C,0.10000*%
%ADD34OC8,0.10000*%
%ADD35OC8,0.08500*%
%ADD36OC8,0.04750*%
%ADD37C,0.04000*%
%ADD38C,0.01600*%
%ADD39C,0.03200*%
%ADD40OC8,0.03962*%
D10*
X0160763Y0063785D03*
X0160763Y0071265D03*
X0147200Y0170960D03*
X0147200Y0178440D03*
X0170950Y0203460D03*
X0170950Y0210940D03*
X0106048Y0178411D03*
X0106048Y0170930D03*
D11*
X0080940Y0130950D03*
X0073460Y0130950D03*
X0233460Y0189700D03*
X0240940Y0189700D03*
D12*
X0194080Y0085025D03*
X0172820Y0085025D03*
D13*
X0156974Y0086875D03*
X0139651Y0086875D03*
D14*
X0133102Y0178424D03*
X0121298Y0178424D03*
D15*
X0127200Y0177424D03*
D16*
X0127200Y0169877D02*
X0127200Y0169877D01*
X0127200Y0163971D01*
X0127200Y0163971D01*
X0127200Y0169877D01*
D17*
X0214450Y0203500D03*
X0214450Y0211100D03*
X0222450Y0207300D03*
D18*
X0222200Y0166186D03*
X0217200Y0166186D03*
X0227200Y0166186D03*
X0232200Y0166186D03*
X0232200Y0145714D03*
X0227200Y0145714D03*
X0222200Y0145714D03*
X0217200Y0145714D03*
D19*
X0204700Y0156602D03*
X0204700Y0167798D03*
X0174700Y0129048D03*
X0174700Y0117852D03*
D20*
X0231602Y0204700D03*
X0242798Y0204700D03*
D21*
X0242978Y0113037D03*
X0242978Y0102013D03*
D22*
X0260300Y0107525D03*
D23*
X0219700Y0079474D03*
X0219700Y0057426D03*
D24*
X0143312Y0213135D03*
X0132289Y0213135D03*
D25*
X0137800Y0195812D03*
D26*
X0154700Y0203460D03*
X0154700Y0210940D03*
X0184700Y0210940D03*
X0184700Y0203460D03*
X0199700Y0203460D03*
X0199700Y0210940D03*
X0190950Y0165940D03*
X0190950Y0158460D03*
X0187200Y0125940D03*
X0187200Y0118460D03*
X0207200Y0118460D03*
X0207200Y0125940D03*
X0222200Y0125940D03*
X0222200Y0118460D03*
D27*
X0133950Y0070950D02*
X0127950Y0070950D01*
X0127950Y0053450D02*
X0133950Y0053450D01*
X0033802Y0048775D02*
X0027802Y0048775D01*
X0027802Y0033775D02*
X0033802Y0033775D01*
X0033802Y0063775D02*
X0027802Y0063775D01*
X0027802Y0078775D02*
X0033802Y0078775D01*
D28*
X0233460Y0179700D03*
X0240940Y0179700D03*
D29*
X0132200Y0132200D03*
D30*
X0099400Y0132200D03*
X0099400Y0125500D03*
X0099400Y0118800D03*
X0099400Y0138900D03*
X0099400Y0145600D03*
D31*
X0082500Y0206000D02*
X0082500Y0215900D01*
X0066900Y0215900D02*
X0066900Y0206000D01*
X0184400Y0028400D02*
X0184400Y0018500D01*
X0200000Y0018500D02*
X0200000Y0028400D01*
D32*
X0034700Y0139700D02*
X0024700Y0139700D01*
X0024700Y0199700D02*
X0034700Y0199700D01*
D33*
X0063450Y0077200D03*
X0063450Y0033450D03*
D34*
X0083450Y0033450D03*
X0083450Y0077200D03*
D35*
X0113450Y0192200D03*
X0113450Y0203450D03*
X0113450Y0214700D03*
X0244700Y0127200D03*
X0259700Y0127200D03*
X0239700Y0079700D03*
X0239700Y0057200D03*
D36*
X0258450Y0080950D03*
X0227200Y0089700D03*
X0213450Y0089700D03*
X0213450Y0103450D03*
X0227200Y0103450D03*
X0233450Y0118450D03*
X0208450Y0145950D03*
X0213450Y0177200D03*
X0222200Y0197200D03*
X0157200Y0160950D03*
X0139700Y0160950D03*
X0127200Y0163450D03*
X0127200Y0170950D03*
X0100950Y0162200D03*
X0092200Y0162200D03*
X0092200Y0153450D03*
X0100950Y0153450D03*
X0097200Y0104700D03*
X0079700Y0104700D03*
X0079700Y0065950D03*
X0087200Y0065950D03*
X0087200Y0058450D03*
X0079700Y0058450D03*
X0079700Y0050950D03*
X0087200Y0050950D03*
X0087200Y0043450D03*
X0079700Y0043450D03*
X0033450Y0097200D03*
X0033450Y0104700D03*
X0025950Y0104700D03*
X0025950Y0097200D03*
X0160950Y0100950D03*
X0160950Y0109700D03*
X0169700Y0109700D03*
X0169700Y0100950D03*
D37*
X0190950Y0081895D02*
X0194080Y0085025D01*
X0193450Y0084395D01*
X0190950Y0081895D02*
X0190950Y0068450D01*
X0190950Y0067200D01*
X0187535Y0063785D01*
X0184400Y0063785D01*
X0184400Y0023450D01*
X0200000Y0023450D02*
X0200000Y0057200D01*
X0199700Y0057200D01*
X0219474Y0057200D01*
X0219700Y0057426D02*
X0219926Y0057200D01*
X0239700Y0057200D01*
X0239700Y0079700D02*
X0219926Y0079700D01*
X0219700Y0079474D01*
X0184400Y0063785D02*
X0160763Y0063785D01*
X0160950Y0063598D01*
X0160950Y0057200D01*
X0157200Y0053450D01*
X0130950Y0053450D01*
X0063450Y0077200D02*
X0063450Y0113450D01*
X0068450Y0118450D01*
X0073450Y0118450D01*
X0099050Y0118450D01*
X0099400Y0118800D01*
X0099400Y0132200D02*
X0132200Y0132200D01*
D38*
X0013606Y0011480D02*
X0014756Y0008703D01*
X0014756Y0008258D01*
X0258394Y0009392D01*
X0258394Y0009953D01*
X0259544Y0012730D01*
X0261670Y0014856D01*
X0264447Y0016006D01*
X0264901Y0016006D01*
X0264901Y0103366D01*
X0264900Y0103366D01*
X0259535Y0103366D01*
X0256148Y0099978D01*
X0255266Y0099613D01*
X0248515Y0099613D01*
X0248515Y0099579D01*
X0247577Y0098641D01*
X0245378Y0098641D01*
X0245378Y0094917D01*
X0248559Y0091735D01*
X0249235Y0091059D01*
X0249600Y0090177D01*
X0249600Y0071723D01*
X0249235Y0070841D01*
X0245485Y0067091D01*
X0244809Y0066415D01*
X0243927Y0066050D01*
X0194370Y0066050D01*
X0194002Y0065161D01*
X0192989Y0064148D01*
X0192989Y0064148D01*
X0190587Y0061745D01*
X0190587Y0061745D01*
X0189574Y0060733D01*
X0188251Y0060185D01*
X0188000Y0060185D01*
X0188000Y0033998D01*
X0188110Y0033953D01*
X0189953Y0032110D01*
X0190950Y0029703D01*
X0190950Y0017197D01*
X0189953Y0014790D01*
X0188110Y0012947D01*
X0185703Y0011950D01*
X0183097Y0011950D01*
X0180690Y0012947D01*
X0178847Y0014790D01*
X0177850Y0017197D01*
X0177850Y0029703D01*
X0178847Y0032110D01*
X0180690Y0033953D01*
X0180800Y0033998D01*
X0180800Y0060185D01*
X0164938Y0060185D01*
X0164550Y0059797D01*
X0164550Y0056484D01*
X0164002Y0055161D01*
X0162989Y0054148D01*
X0159239Y0050398D01*
X0157916Y0049850D01*
X0136855Y0049850D01*
X0136556Y0049550D01*
X0134865Y0048850D01*
X0127035Y0048850D01*
X0125344Y0049550D01*
X0124050Y0050844D01*
X0123350Y0052535D01*
X0123350Y0054365D01*
X0124050Y0056056D01*
X0125344Y0057350D01*
X0127035Y0058050D01*
X0134865Y0058050D01*
X0136556Y0057350D01*
X0136855Y0057050D01*
X0155709Y0057050D01*
X0157350Y0058691D01*
X0157350Y0059626D01*
X0157147Y0059626D01*
X0156210Y0060563D01*
X0156210Y0067006D01*
X0156587Y0067383D01*
X0156370Y0067601D01*
X0156133Y0068011D01*
X0156010Y0068469D01*
X0156010Y0070785D01*
X0160283Y0070785D01*
X0160283Y0071744D01*
X0156010Y0071744D01*
X0156010Y0074061D01*
X0156133Y0074519D01*
X0156370Y0074929D01*
X0156705Y0075264D01*
X0157115Y0075501D01*
X0157573Y0075624D01*
X0160283Y0075624D01*
X0160283Y0071745D01*
X0161243Y0071745D01*
X0161243Y0075624D01*
X0163953Y0075624D01*
X0164411Y0075501D01*
X0164821Y0075264D01*
X0165156Y0074929D01*
X0165393Y0074519D01*
X0165516Y0074061D01*
X0165516Y0071744D01*
X0161243Y0071744D01*
X0161243Y0070785D01*
X0165516Y0070785D01*
X0165516Y0068469D01*
X0165393Y0068011D01*
X0165156Y0067601D01*
X0164940Y0067385D01*
X0186043Y0067385D01*
X0187350Y0068691D01*
X0187350Y0080275D01*
X0186527Y0080275D01*
X0185590Y0081212D01*
X0185590Y0088837D01*
X0186527Y0089774D01*
X0201632Y0089774D01*
X0202570Y0088837D01*
X0202570Y0081212D01*
X0201632Y0080275D01*
X0194550Y0080275D01*
X0194550Y0070850D01*
X0242456Y0070850D01*
X0244800Y0073194D01*
X0244800Y0076244D01*
X0242206Y0073650D01*
X0239900Y0073650D01*
X0239900Y0079500D01*
X0239500Y0079500D01*
X0239500Y0073650D01*
X0237194Y0073650D01*
X0233650Y0077194D01*
X0233650Y0079500D01*
X0239500Y0079500D01*
X0239500Y0079900D01*
X0239500Y0085750D01*
X0237194Y0085750D01*
X0233650Y0082206D01*
X0233650Y0079900D01*
X0239500Y0079900D01*
X0239900Y0079900D01*
X0239900Y0085750D01*
X0242206Y0085750D01*
X0244800Y0083156D01*
X0244800Y0088706D01*
X0240943Y0092563D01*
X0240578Y0093445D01*
X0240578Y0098641D01*
X0238378Y0098641D01*
X0237441Y0099579D01*
X0237441Y0104447D01*
X0238378Y0105385D01*
X0247577Y0105385D01*
X0248515Y0104447D01*
X0248515Y0104413D01*
X0253794Y0104413D01*
X0254763Y0105382D01*
X0254763Y0110747D01*
X0255701Y0111684D01*
X0257300Y0111684D01*
X0257300Y0121350D01*
X0257277Y0121350D01*
X0253850Y0124777D01*
X0253850Y0129623D01*
X0257277Y0133050D01*
X0262123Y0133050D01*
X0264901Y0130272D01*
X0264901Y0218394D01*
X0264447Y0218394D01*
X0261670Y0219544D01*
X0259544Y0221670D01*
X0258394Y0224447D01*
X0258394Y0224852D01*
X0186198Y0224517D01*
X0188281Y0222433D01*
X0188281Y0219467D01*
X0187100Y0218286D01*
X0187100Y0215099D01*
X0188512Y0215099D01*
X0189450Y0214162D01*
X0189450Y0213340D01*
X0194950Y0213340D01*
X0194950Y0214162D01*
X0195888Y0215099D01*
X0197300Y0215099D01*
X0197300Y0218927D01*
X0197665Y0219809D01*
X0200165Y0222309D01*
X0200841Y0222985D01*
X0201723Y0223350D01*
X0252677Y0223350D01*
X0253559Y0222985D01*
X0256059Y0220485D01*
X0256735Y0219809D01*
X0257100Y0218927D01*
X0257100Y0137973D01*
X0256735Y0137091D01*
X0254235Y0134591D01*
X0253559Y0133915D01*
X0252677Y0133550D01*
X0234223Y0133550D01*
X0233341Y0133915D01*
X0230841Y0136415D01*
X0230165Y0137091D01*
X0229800Y0137973D01*
X0229800Y0140339D01*
X0229700Y0140439D01*
X0229044Y0139783D01*
X0225356Y0139783D01*
X0224700Y0140439D01*
X0224600Y0140339D01*
X0224600Y0130099D01*
X0226012Y0130099D01*
X0226950Y0129162D01*
X0226950Y0122718D01*
X0226573Y0122341D01*
X0226790Y0122124D01*
X0227027Y0121714D01*
X0227150Y0121256D01*
X0227150Y0118939D01*
X0222680Y0118939D01*
X0222680Y0117980D01*
X0227150Y0117980D01*
X0227150Y0115664D01*
X0227027Y0115206D01*
X0226790Y0114796D01*
X0226455Y0114460D01*
X0226044Y0114223D01*
X0225587Y0114101D01*
X0222680Y0114101D01*
X0222680Y0117980D01*
X0221720Y0117980D01*
X0217250Y0117980D01*
X0217250Y0115664D01*
X0217373Y0115206D01*
X0217610Y0114796D01*
X0217945Y0114460D01*
X0218356Y0114223D01*
X0218813Y0114101D01*
X0221720Y0114101D01*
X0221720Y0117980D01*
X0221720Y0118939D01*
X0217250Y0118939D01*
X0217250Y0121256D01*
X0217373Y0121714D01*
X0217610Y0122124D01*
X0217827Y0122341D01*
X0217450Y0122718D01*
X0217450Y0123540D01*
X0211950Y0123540D01*
X0211950Y0122718D01*
X0211431Y0122200D01*
X0211950Y0121682D01*
X0211950Y0115238D01*
X0211012Y0114301D01*
X0203388Y0114301D01*
X0202450Y0115238D01*
X0202450Y0116060D01*
X0196713Y0116060D01*
X0195831Y0116425D01*
X0193341Y0118915D01*
X0192665Y0119591D01*
X0192300Y0120473D01*
X0192300Y0139956D01*
X0191206Y0141050D01*
X0184223Y0141050D01*
X0183341Y0141415D01*
X0177091Y0147665D01*
X0154292Y0147665D01*
X0154292Y0149263D02*
X0176050Y0149263D01*
X0176050Y0149223D02*
X0176415Y0148341D01*
X0177091Y0147665D01*
X0176050Y0149223D02*
X0176050Y0187300D01*
X0139223Y0187300D01*
X0138341Y0187665D01*
X0137091Y0188915D01*
X0136415Y0189591D01*
X0136132Y0190275D01*
X0134579Y0190275D01*
X0133641Y0191212D01*
X0133641Y0192300D01*
X0126944Y0192300D01*
X0124809Y0190165D01*
X0123927Y0189800D01*
X0119300Y0189800D01*
X0119300Y0189777D01*
X0115873Y0186350D01*
X0111027Y0186350D01*
X0107600Y0189777D01*
X0107600Y0194623D01*
X0110660Y0197684D01*
X0107400Y0200944D01*
X0107400Y0203250D01*
X0113250Y0203250D01*
X0113250Y0203650D01*
X0107400Y0203650D01*
X0107400Y0205956D01*
X0110660Y0209216D01*
X0107600Y0212277D01*
X0107600Y0217123D01*
X0111027Y0220550D01*
X0115873Y0220550D01*
X0119300Y0217123D01*
X0119300Y0217100D01*
X0123927Y0217100D01*
X0124809Y0216735D01*
X0126944Y0214600D01*
X0128917Y0214600D01*
X0128917Y0217735D01*
X0129854Y0218672D01*
X0134723Y0218672D01*
X0135660Y0217735D01*
X0135660Y0208535D01*
X0134723Y0207598D01*
X0134600Y0207598D01*
X0134600Y0206944D01*
X0135684Y0205860D01*
X0149950Y0205860D01*
X0149950Y0206682D01*
X0150469Y0207200D01*
X0149950Y0207718D01*
X0149950Y0214162D01*
X0150888Y0215099D01*
X0158512Y0215099D01*
X0159450Y0214162D01*
X0159450Y0213350D01*
X0162677Y0213350D01*
X0163559Y0212985D01*
X0164235Y0212309D01*
X0165485Y0211059D01*
X0165850Y0210177D01*
X0165850Y0205860D01*
X0166397Y0205860D01*
X0166397Y0206682D01*
X0166774Y0207059D01*
X0166557Y0207276D01*
X0166320Y0207686D01*
X0166197Y0208144D01*
X0166197Y0210461D01*
X0170470Y0210461D01*
X0170470Y0211420D01*
X0166197Y0211420D01*
X0166197Y0213736D01*
X0166320Y0214194D01*
X0166557Y0214604D01*
X0166892Y0214940D01*
X0167302Y0215177D01*
X0167760Y0215299D01*
X0170470Y0215299D01*
X0170470Y0211420D01*
X0171430Y0211420D01*
X0175703Y0211420D01*
X0175703Y0213736D01*
X0175580Y0214194D01*
X0175343Y0214604D01*
X0175008Y0214940D01*
X0174598Y0215177D01*
X0174140Y0215299D01*
X0171430Y0215299D01*
X0171430Y0211420D01*
X0171430Y0210461D01*
X0175703Y0210461D01*
X0175703Y0208144D01*
X0175580Y0207686D01*
X0175343Y0207276D01*
X0175126Y0207059D01*
X0175503Y0206682D01*
X0175503Y0205860D01*
X0179950Y0205860D01*
X0179950Y0206682D01*
X0180469Y0207200D01*
X0179950Y0207718D01*
X0179950Y0214162D01*
X0180888Y0215099D01*
X0182300Y0215099D01*
X0182300Y0218286D01*
X0181119Y0219467D01*
X0181119Y0222433D01*
X0183188Y0224503D01*
X0014756Y0223719D01*
X0014756Y0223197D01*
X0013606Y0220420D01*
X0011480Y0218294D01*
X0008703Y0217144D01*
X0008200Y0217144D01*
X0008200Y0014756D01*
X0008703Y0014756D01*
X0011480Y0013606D01*
X0013606Y0011480D01*
X0013295Y0011791D02*
X0259155Y0011791D01*
X0258493Y0010193D02*
X0014139Y0010193D01*
X0014756Y0008594D02*
X0086895Y0008594D01*
X0086267Y0026650D02*
X0083650Y0026650D01*
X0083650Y0033250D01*
X0083650Y0033650D01*
X0090250Y0033650D01*
X0090250Y0036267D01*
X0086267Y0040250D01*
X0083650Y0040250D01*
X0083650Y0033650D01*
X0083250Y0033650D01*
X0083250Y0040250D01*
X0080633Y0040250D01*
X0076650Y0036267D01*
X0076650Y0033650D01*
X0083250Y0033650D01*
X0083250Y0033250D01*
X0083650Y0033250D01*
X0090250Y0033250D01*
X0090250Y0030633D01*
X0086267Y0026650D01*
X0087393Y0027776D02*
X0177850Y0027776D01*
X0177850Y0026178D02*
X0008200Y0026178D01*
X0008200Y0027776D02*
X0059901Y0027776D01*
X0059711Y0027855D02*
X0062137Y0026850D01*
X0064763Y0026850D01*
X0067189Y0027855D01*
X0069045Y0029711D01*
X0070050Y0032137D01*
X0070050Y0034763D01*
X0069045Y0037189D01*
X0067189Y0039045D01*
X0064763Y0040050D01*
X0062137Y0040050D01*
X0059711Y0039045D01*
X0057855Y0037189D01*
X0056850Y0034763D01*
X0056850Y0032137D01*
X0057855Y0029711D01*
X0059711Y0027855D01*
X0058191Y0029375D02*
X0035200Y0029375D01*
X0034717Y0029175D02*
X0036408Y0029875D01*
X0037702Y0031169D01*
X0038402Y0032860D01*
X0038402Y0034690D01*
X0037702Y0036380D01*
X0036408Y0037674D01*
X0034717Y0038375D01*
X0026887Y0038375D01*
X0025197Y0037674D01*
X0023903Y0036380D01*
X0023202Y0034690D01*
X0023202Y0032860D01*
X0023903Y0031169D01*
X0025197Y0029875D01*
X0026887Y0029175D01*
X0034717Y0029175D01*
X0037506Y0030973D02*
X0057332Y0030973D01*
X0056850Y0032572D02*
X0038283Y0032572D01*
X0038402Y0034170D02*
X0056850Y0034170D01*
X0057267Y0035769D02*
X0037955Y0035769D01*
X0036715Y0037367D02*
X0058033Y0037367D01*
X0059632Y0038966D02*
X0008200Y0038966D01*
X0008200Y0040564D02*
X0180800Y0040564D01*
X0180800Y0038966D02*
X0087551Y0038966D01*
X0089149Y0037367D02*
X0180800Y0037367D01*
X0180800Y0035769D02*
X0090250Y0035769D01*
X0090250Y0034170D02*
X0180800Y0034170D01*
X0179309Y0032572D02*
X0090250Y0032572D01*
X0090250Y0030973D02*
X0178376Y0030973D01*
X0177850Y0029375D02*
X0088991Y0029375D01*
X0083650Y0029375D02*
X0083250Y0029375D01*
X0083250Y0030973D02*
X0083650Y0030973D01*
X0083650Y0032572D02*
X0083250Y0032572D01*
X0083250Y0033250D02*
X0083250Y0026650D01*
X0080633Y0026650D01*
X0076650Y0030633D01*
X0076650Y0033250D01*
X0083250Y0033250D01*
X0083250Y0034170D02*
X0083650Y0034170D01*
X0083650Y0035769D02*
X0083250Y0035769D01*
X0083250Y0037367D02*
X0083650Y0037367D01*
X0083650Y0038966D02*
X0083250Y0038966D01*
X0079349Y0038966D02*
X0067268Y0038966D01*
X0068867Y0037367D02*
X0077751Y0037367D01*
X0076650Y0035769D02*
X0069633Y0035769D01*
X0070050Y0034170D02*
X0076650Y0034170D01*
X0076650Y0032572D02*
X0070050Y0032572D01*
X0069568Y0030973D02*
X0076650Y0030973D01*
X0077909Y0029375D02*
X0068709Y0029375D01*
X0066999Y0027776D02*
X0079507Y0027776D01*
X0083250Y0027776D02*
X0083650Y0027776D01*
X0099037Y0061850D02*
X0098100Y0062787D01*
X0098100Y0097863D01*
X0108100Y0107863D01*
X0108100Y0111613D01*
X0110108Y0113621D01*
X0110108Y0128600D01*
X0104913Y0128600D01*
X0105250Y0128263D01*
X0105250Y0122737D01*
X0104663Y0122150D01*
X0105250Y0121563D01*
X0105250Y0116037D01*
X0104313Y0115100D01*
X0100370Y0115100D01*
X0099766Y0114850D01*
X0069941Y0114850D01*
X0067050Y0111959D01*
X0067050Y0082853D01*
X0067189Y0082795D01*
X0069045Y0080939D01*
X0070050Y0078513D01*
X0070050Y0075887D01*
X0069045Y0073461D01*
X0067189Y0071605D01*
X0064763Y0070600D01*
X0062137Y0070600D01*
X0059711Y0071605D01*
X0057855Y0073461D01*
X0056850Y0075887D01*
X0056850Y0078513D01*
X0057855Y0080939D01*
X0059711Y0082795D01*
X0059850Y0082853D01*
X0059850Y0114166D01*
X0060398Y0115489D01*
X0065398Y0120489D01*
X0066411Y0121502D01*
X0067734Y0122050D01*
X0070250Y0122050D01*
X0070250Y0126397D01*
X0070238Y0126397D01*
X0069301Y0127334D01*
X0069301Y0134565D01*
X0070238Y0135503D01*
X0071060Y0135503D01*
X0071060Y0176437D01*
X0071425Y0177319D01*
X0073915Y0179809D01*
X0074591Y0180485D01*
X0075473Y0180850D01*
X0101496Y0180850D01*
X0101496Y0181632D01*
X0102433Y0182570D01*
X0109664Y0182570D01*
X0110601Y0181632D01*
X0110601Y0180811D01*
X0117730Y0180811D01*
X0117730Y0182040D01*
X0118667Y0182977D01*
X0123930Y0182977D01*
X0124116Y0182791D01*
X0124126Y0182802D01*
X0124537Y0183039D01*
X0124995Y0183161D01*
X0127016Y0183161D01*
X0127016Y0177609D01*
X0127384Y0177609D01*
X0127384Y0183161D01*
X0129405Y0183161D01*
X0129863Y0183039D01*
X0130274Y0182802D01*
X0130284Y0182791D01*
X0130470Y0182977D01*
X0135733Y0182977D01*
X0136670Y0182040D01*
X0136670Y0180824D01*
X0142647Y0180824D01*
X0142647Y0181662D01*
X0143584Y0182599D01*
X0150815Y0182599D01*
X0151753Y0181662D01*
X0151753Y0180840D01*
X0165776Y0180840D01*
X0166967Y0182031D01*
X0169933Y0182031D01*
X0172031Y0179933D01*
X0172031Y0176967D01*
X0169933Y0174869D01*
X0166967Y0174869D01*
X0165795Y0176040D01*
X0151753Y0176040D01*
X0151753Y0175218D01*
X0151376Y0174841D01*
X0151593Y0174624D01*
X0151830Y0174214D01*
X0151953Y0173756D01*
X0151953Y0171439D01*
X0147680Y0171439D01*
X0147680Y0170480D01*
X0151953Y0170480D01*
X0151953Y0168164D01*
X0151830Y0167706D01*
X0151593Y0167296D01*
X0151258Y0166960D01*
X0150848Y0166723D01*
X0150390Y0166601D01*
X0147680Y0166601D01*
X0147680Y0170480D01*
X0146720Y0170480D01*
X0142447Y0170480D01*
X0142447Y0168164D01*
X0142570Y0167706D01*
X0142807Y0167296D01*
X0143142Y0166960D01*
X0143552Y0166723D01*
X0144010Y0166601D01*
X0146720Y0166601D01*
X0146720Y0170480D01*
X0146720Y0171439D01*
X0142447Y0171439D01*
X0142447Y0173756D01*
X0142570Y0174214D01*
X0142807Y0174624D01*
X0143024Y0174841D01*
X0142647Y0175218D01*
X0142647Y0176024D01*
X0136670Y0176024D01*
X0136670Y0174809D01*
X0135733Y0173872D01*
X0131876Y0173872D01*
X0131876Y0173871D01*
X0132443Y0173090D01*
X0132882Y0172231D01*
X0133180Y0171313D01*
X0133331Y0170360D01*
X0133331Y0167724D01*
X0128000Y0167724D01*
X0128000Y0166124D01*
X0128000Y0157891D01*
X0128636Y0157992D01*
X0129553Y0158290D01*
X0130413Y0158728D01*
X0131194Y0159295D01*
X0131876Y0159978D01*
X0132443Y0160758D01*
X0132882Y0161618D01*
X0133180Y0162536D01*
X0133331Y0163489D01*
X0133331Y0166124D01*
X0128000Y0166124D01*
X0126400Y0166124D01*
X0126400Y0157891D01*
X0125764Y0157992D01*
X0124847Y0158290D01*
X0123987Y0158728D01*
X0123206Y0159295D01*
X0122524Y0159978D01*
X0121957Y0160758D01*
X0121518Y0161618D01*
X0121220Y0162536D01*
X0121069Y0163489D01*
X0121069Y0166124D01*
X0126400Y0166124D01*
X0126400Y0167724D01*
X0121069Y0167724D01*
X0121069Y0170360D01*
X0121220Y0171313D01*
X0121518Y0172231D01*
X0121957Y0173090D01*
X0122524Y0173871D01*
X0122524Y0173872D01*
X0118667Y0173872D01*
X0117730Y0174809D01*
X0117730Y0176011D01*
X0110601Y0176011D01*
X0110601Y0175189D01*
X0110224Y0174812D01*
X0110442Y0174595D01*
X0110679Y0174184D01*
X0110801Y0173726D01*
X0110801Y0171410D01*
X0106528Y0171410D01*
X0106528Y0170451D01*
X0110801Y0170451D01*
X0110801Y0168134D01*
X0110679Y0167676D01*
X0110442Y0167266D01*
X0110106Y0166931D01*
X0109696Y0166694D01*
X0109238Y0166571D01*
X0106528Y0166571D01*
X0106528Y0170451D01*
X0105569Y0170451D01*
X0101296Y0170451D01*
X0101296Y0168134D01*
X0101418Y0167676D01*
X0101655Y0167266D01*
X0101990Y0166931D01*
X0102401Y0166694D01*
X0102859Y0166571D01*
X0105569Y0166571D01*
X0105569Y0170451D01*
X0105569Y0171410D01*
X0101296Y0171410D01*
X0101296Y0173726D01*
X0101418Y0174184D01*
X0101655Y0174595D01*
X0101873Y0174812D01*
X0101496Y0175189D01*
X0101496Y0176050D01*
X0076944Y0176050D01*
X0075860Y0174966D01*
X0075860Y0135503D01*
X0076682Y0135503D01*
X0077200Y0134984D01*
X0077718Y0135503D01*
X0084162Y0135503D01*
X0085099Y0134565D01*
X0085099Y0134150D01*
X0089087Y0134150D01*
X0090263Y0133663D01*
X0091163Y0132763D01*
X0092413Y0131513D01*
X0092900Y0130337D01*
X0092900Y0128700D01*
X0093987Y0128700D01*
X0094137Y0128850D01*
X0093550Y0129437D01*
X0093550Y0134963D01*
X0094137Y0135550D01*
X0093550Y0136137D01*
X0093550Y0136414D01*
X0092660Y0136414D01*
X0091479Y0135233D01*
X0088512Y0135233D01*
X0086414Y0137331D01*
X0086414Y0140298D01*
X0088512Y0142395D01*
X0091479Y0142395D01*
X0092660Y0141214D01*
X0093550Y0141214D01*
X0093550Y0141663D01*
X0093996Y0142109D01*
X0093710Y0142395D01*
X0093473Y0142805D01*
X0093350Y0143263D01*
X0093350Y0145350D01*
X0099150Y0145350D01*
X0099150Y0145850D01*
X0099150Y0149500D01*
X0094913Y0149500D01*
X0094455Y0149377D01*
X0094045Y0149140D01*
X0093710Y0148805D01*
X0093473Y0148395D01*
X0093350Y0147937D01*
X0093350Y0145850D01*
X0099150Y0145850D01*
X0099650Y0145850D01*
X0099650Y0149500D01*
X0103887Y0149500D01*
X0104345Y0149377D01*
X0104755Y0149140D01*
X0105090Y0148805D01*
X0105327Y0148395D01*
X0105450Y0147937D01*
X0105450Y0145850D01*
X0099650Y0145850D01*
X0099650Y0145350D01*
X0105450Y0145350D01*
X0105450Y0143263D01*
X0105327Y0142805D01*
X0105090Y0142395D01*
X0104804Y0142109D01*
X0105250Y0141663D01*
X0105250Y0136137D01*
X0104913Y0135800D01*
X0110108Y0135800D01*
X0110108Y0154123D01*
X0111045Y0155060D01*
X0153355Y0155060D01*
X0154292Y0154123D01*
X0154292Y0113621D01*
X0155363Y0112550D01*
X0156300Y0111613D01*
X0156300Y0105287D01*
X0148800Y0097787D01*
X0148800Y0062787D01*
X0147863Y0061850D01*
X0099037Y0061850D01*
X0098100Y0062943D02*
X0038402Y0062943D01*
X0038402Y0062860D02*
X0038402Y0064690D01*
X0037702Y0066380D01*
X0036408Y0067674D01*
X0034717Y0068375D01*
X0026887Y0068375D01*
X0025197Y0067674D01*
X0023903Y0066380D01*
X0023202Y0064690D01*
X0023202Y0062860D01*
X0023903Y0061169D01*
X0025197Y0059875D01*
X0026887Y0059175D01*
X0034717Y0059175D01*
X0036408Y0059875D01*
X0037702Y0061169D01*
X0038402Y0062860D01*
X0037775Y0061345D02*
X0156210Y0061345D01*
X0156210Y0062943D02*
X0148800Y0062943D01*
X0148800Y0064542D02*
X0156210Y0064542D01*
X0156210Y0066140D02*
X0148800Y0066140D01*
X0148800Y0067739D02*
X0156290Y0067739D01*
X0156010Y0069337D02*
X0148800Y0069337D01*
X0148800Y0070936D02*
X0160283Y0070936D01*
X0161243Y0070936D02*
X0187350Y0070936D01*
X0187350Y0072534D02*
X0165516Y0072534D01*
X0165496Y0074133D02*
X0187350Y0074133D01*
X0187350Y0075732D02*
X0148800Y0075732D01*
X0148800Y0077330D02*
X0187350Y0077330D01*
X0187350Y0078929D02*
X0148800Y0078929D01*
X0148800Y0080527D02*
X0151462Y0080527D01*
X0151554Y0080473D02*
X0152012Y0080351D01*
X0156174Y0080351D01*
X0156174Y0086075D01*
X0157774Y0086075D01*
X0157774Y0087675D01*
X0163498Y0087675D01*
X0163498Y0091837D01*
X0163375Y0092294D01*
X0163138Y0092705D01*
X0162803Y0093040D01*
X0162393Y0093277D01*
X0161935Y0093400D01*
X0157774Y0093400D01*
X0157774Y0087675D01*
X0156174Y0087675D01*
X0156174Y0093400D01*
X0152012Y0093400D01*
X0151554Y0093277D01*
X0151144Y0093040D01*
X0150809Y0092705D01*
X0150572Y0092294D01*
X0150449Y0091837D01*
X0150449Y0087675D01*
X0156174Y0087675D01*
X0156174Y0086075D01*
X0150449Y0086075D01*
X0150449Y0081914D01*
X0150572Y0081456D01*
X0150809Y0081046D01*
X0151144Y0080710D01*
X0151554Y0080473D01*
X0150449Y0082126D02*
X0148800Y0082126D01*
X0148800Y0083724D02*
X0150449Y0083724D01*
X0150449Y0085323D02*
X0148800Y0085323D01*
X0148800Y0086921D02*
X0156174Y0086921D01*
X0156174Y0085323D02*
X0157774Y0085323D01*
X0157774Y0086075D02*
X0157774Y0080351D01*
X0161935Y0080351D01*
X0162393Y0080473D01*
X0162803Y0080710D01*
X0163138Y0081046D01*
X0163375Y0081456D01*
X0163498Y0081914D01*
X0163498Y0086075D01*
X0157774Y0086075D01*
X0157774Y0086921D02*
X0164130Y0086921D01*
X0164130Y0085800D02*
X0164130Y0088411D01*
X0164253Y0088869D01*
X0164490Y0089280D01*
X0164825Y0089615D01*
X0165236Y0089852D01*
X0165693Y0089974D01*
X0172045Y0089974D01*
X0172045Y0085800D01*
X0173595Y0085800D01*
X0173595Y0089974D01*
X0179947Y0089974D01*
X0180405Y0089852D01*
X0180815Y0089615D01*
X0181150Y0089280D01*
X0181387Y0088869D01*
X0181510Y0088411D01*
X0181510Y0085800D01*
X0173595Y0085800D01*
X0173595Y0084250D01*
X0181510Y0084250D01*
X0181510Y0081638D01*
X0181387Y0081180D01*
X0181150Y0080770D01*
X0180815Y0080435D01*
X0180405Y0080198D01*
X0179947Y0080075D01*
X0173595Y0080075D01*
X0173595Y0084250D01*
X0172045Y0084250D01*
X0164130Y0084250D01*
X0164130Y0081638D01*
X0164253Y0081180D01*
X0164490Y0080770D01*
X0164825Y0080435D01*
X0165236Y0080198D01*
X0165693Y0080075D01*
X0172045Y0080075D01*
X0172045Y0084250D01*
X0172045Y0085800D01*
X0164130Y0085800D01*
X0163498Y0085323D02*
X0172045Y0085323D01*
X0173595Y0085323D02*
X0185590Y0085323D01*
X0185590Y0086921D02*
X0181510Y0086921D01*
X0181481Y0088520D02*
X0185590Y0088520D01*
X0185590Y0083724D02*
X0181510Y0083724D01*
X0181510Y0082126D02*
X0185590Y0082126D01*
X0186276Y0080527D02*
X0180907Y0080527D01*
X0173595Y0080527D02*
X0172045Y0080527D01*
X0172045Y0082126D02*
X0173595Y0082126D01*
X0173595Y0083724D02*
X0172045Y0083724D01*
X0172045Y0086921D02*
X0173595Y0086921D01*
X0173595Y0088520D02*
X0172045Y0088520D01*
X0164159Y0088520D02*
X0163498Y0088520D01*
X0163498Y0090118D02*
X0243388Y0090118D01*
X0244800Y0088520D02*
X0202570Y0088520D01*
X0202570Y0086921D02*
X0244800Y0086921D01*
X0244800Y0085323D02*
X0242633Y0085323D01*
X0244232Y0083724D02*
X0244800Y0083724D01*
X0249600Y0083724D02*
X0264901Y0083724D01*
X0264901Y0082126D02*
X0249600Y0082126D01*
X0249600Y0080527D02*
X0264901Y0080527D01*
X0264901Y0078929D02*
X0249600Y0078929D01*
X0249600Y0077330D02*
X0264901Y0077330D01*
X0264901Y0075732D02*
X0249600Y0075732D01*
X0249600Y0074133D02*
X0264901Y0074133D01*
X0264901Y0072534D02*
X0249600Y0072534D01*
X0249274Y0070936D02*
X0264901Y0070936D01*
X0264901Y0069337D02*
X0247732Y0069337D01*
X0246133Y0067739D02*
X0264901Y0067739D01*
X0264901Y0066140D02*
X0244146Y0066140D01*
X0243450Y0068450D02*
X0190950Y0068450D01*
X0187350Y0069337D02*
X0165516Y0069337D01*
X0165236Y0067739D02*
X0186398Y0067739D01*
X0191785Y0062943D02*
X0237170Y0062943D01*
X0237277Y0063050D02*
X0235027Y0060800D01*
X0227599Y0060800D01*
X0227599Y0061632D01*
X0226662Y0062570D01*
X0212738Y0062570D01*
X0211801Y0061632D01*
X0211801Y0060800D01*
X0198984Y0060800D01*
X0198938Y0060781D01*
X0198217Y0060781D01*
X0197706Y0060271D01*
X0197661Y0060252D01*
X0196648Y0059239D01*
X0196629Y0059194D01*
X0196119Y0058683D01*
X0196119Y0057962D01*
X0196100Y0057916D01*
X0196100Y0056484D01*
X0196119Y0056438D01*
X0196119Y0055717D01*
X0196400Y0055436D01*
X0196400Y0033998D01*
X0196290Y0033953D01*
X0194447Y0032110D01*
X0193450Y0029703D01*
X0193450Y0017197D01*
X0194447Y0014790D01*
X0196290Y0012947D01*
X0198697Y0011950D01*
X0201303Y0011950D01*
X0203710Y0012947D01*
X0205553Y0014790D01*
X0206550Y0017197D01*
X0206550Y0029703D01*
X0205553Y0032110D01*
X0203710Y0033953D01*
X0203600Y0033998D01*
X0203600Y0053600D01*
X0211801Y0053600D01*
X0211801Y0053220D01*
X0212738Y0052283D01*
X0226662Y0052283D01*
X0227599Y0053220D01*
X0227599Y0053600D01*
X0235027Y0053600D01*
X0237277Y0051350D01*
X0242123Y0051350D01*
X0245550Y0054777D01*
X0245550Y0059623D01*
X0242123Y0063050D01*
X0237277Y0063050D01*
X0235572Y0061345D02*
X0227599Y0061345D01*
X0219700Y0057426D02*
X0219474Y0057200D01*
X0211801Y0053352D02*
X0203600Y0053352D01*
X0203600Y0051754D02*
X0236873Y0051754D01*
X0235274Y0053352D02*
X0227599Y0053352D01*
X0242527Y0051754D02*
X0264901Y0051754D01*
X0264901Y0053352D02*
X0244126Y0053352D01*
X0245550Y0054951D02*
X0264901Y0054951D01*
X0264901Y0056549D02*
X0245550Y0056549D01*
X0245550Y0058148D02*
X0264901Y0058148D01*
X0264901Y0059746D02*
X0245427Y0059746D01*
X0243828Y0061345D02*
X0264901Y0061345D01*
X0264901Y0062943D02*
X0242230Y0062943D01*
X0243450Y0068450D02*
X0247200Y0072200D01*
X0247200Y0089700D01*
X0242978Y0093922D01*
X0242978Y0102013D01*
X0254789Y0102013D01*
X0260300Y0107525D01*
X0259700Y0108125D01*
X0259700Y0127200D01*
X0255906Y0131679D02*
X0248494Y0131679D01*
X0247123Y0133050D02*
X0242277Y0133050D01*
X0238850Y0129623D01*
X0238850Y0124777D01*
X0242277Y0121350D01*
X0242300Y0121350D01*
X0242300Y0116408D01*
X0238378Y0116408D01*
X0237441Y0115471D01*
X0237441Y0113350D01*
X0189600Y0113350D01*
X0189600Y0114301D01*
X0191012Y0114301D01*
X0191950Y0115238D01*
X0191950Y0121682D01*
X0191573Y0122059D01*
X0191790Y0122276D01*
X0192027Y0122686D01*
X0192150Y0123144D01*
X0192150Y0125461D01*
X0187680Y0125461D01*
X0187680Y0126420D01*
X0192150Y0126420D01*
X0192150Y0128736D01*
X0192027Y0129194D01*
X0191790Y0129604D01*
X0191455Y0129940D01*
X0191044Y0130177D01*
X0190587Y0130299D01*
X0187680Y0130299D01*
X0187680Y0126420D01*
X0186720Y0126420D01*
X0186720Y0125461D01*
X0182250Y0125461D01*
X0182250Y0123144D01*
X0182373Y0122686D01*
X0182610Y0122276D01*
X0182827Y0122059D01*
X0182450Y0121682D01*
X0182450Y0120252D01*
X0179849Y0120252D01*
X0179849Y0121664D01*
X0178912Y0122601D01*
X0170488Y0122601D01*
X0169551Y0121664D01*
X0169551Y0120348D01*
X0166186Y0120348D01*
X0164836Y0121698D01*
X0164836Y0136150D01*
X0166017Y0137331D01*
X0166017Y0140298D01*
X0163920Y0142395D01*
X0160953Y0142395D01*
X0158855Y0140298D01*
X0158855Y0137331D01*
X0160036Y0136150D01*
X0160036Y0120227D01*
X0160402Y0119344D01*
X0163158Y0116589D01*
X0163833Y0115913D01*
X0164715Y0115548D01*
X0169551Y0115548D01*
X0169551Y0114039D01*
X0170488Y0113102D01*
X0178912Y0113102D01*
X0179849Y0114039D01*
X0179849Y0115452D01*
X0182450Y0115452D01*
X0182450Y0115238D01*
X0183388Y0114301D01*
X0184800Y0114301D01*
X0184800Y0111723D01*
X0185165Y0110841D01*
X0186415Y0109591D01*
X0187091Y0108915D01*
X0187973Y0108550D01*
X0241368Y0108550D01*
X0242250Y0108915D01*
X0243000Y0109665D01*
X0247577Y0109665D01*
X0248515Y0110602D01*
X0248515Y0115471D01*
X0247577Y0116408D01*
X0247100Y0116408D01*
X0247100Y0121350D01*
X0247123Y0121350D01*
X0250550Y0124777D01*
X0250550Y0129623D01*
X0247123Y0133050D01*
X0250092Y0130081D02*
X0254308Y0130081D01*
X0253850Y0128482D02*
X0250550Y0128482D01*
X0250550Y0126884D02*
X0253850Y0126884D01*
X0253850Y0125285D02*
X0250550Y0125285D01*
X0249460Y0123687D02*
X0254940Y0123687D01*
X0256538Y0122088D02*
X0247861Y0122088D01*
X0247100Y0120490D02*
X0257300Y0120490D01*
X0257300Y0118891D02*
X0247100Y0118891D01*
X0247100Y0117293D02*
X0257300Y0117293D01*
X0257300Y0115694D02*
X0248291Y0115694D01*
X0248515Y0114096D02*
X0257300Y0114096D01*
X0257300Y0112497D02*
X0248515Y0112497D01*
X0248515Y0110899D02*
X0254916Y0110899D01*
X0254763Y0109300D02*
X0242635Y0109300D01*
X0240891Y0110950D02*
X0242978Y0113037D01*
X0244700Y0114759D01*
X0244700Y0127200D01*
X0238850Y0126884D02*
X0226950Y0126884D01*
X0226950Y0128482D02*
X0238850Y0128482D01*
X0239308Y0130081D02*
X0226031Y0130081D01*
X0224600Y0131679D02*
X0240906Y0131679D01*
X0238850Y0125285D02*
X0226950Y0125285D01*
X0226950Y0123687D02*
X0239940Y0123687D01*
X0241538Y0122088D02*
X0226811Y0122088D01*
X0227150Y0120490D02*
X0242300Y0120490D01*
X0242300Y0118891D02*
X0222680Y0118891D01*
X0221720Y0118891D02*
X0211950Y0118891D01*
X0211950Y0117293D02*
X0217250Y0117293D01*
X0217250Y0115694D02*
X0211950Y0115694D01*
X0211950Y0120490D02*
X0217250Y0120490D01*
X0217589Y0122088D02*
X0211543Y0122088D01*
X0207200Y0118460D02*
X0197190Y0118460D01*
X0194700Y0120950D01*
X0194700Y0140950D01*
X0192200Y0143450D01*
X0184700Y0143450D01*
X0178450Y0149700D01*
X0178450Y0189700D01*
X0139700Y0189700D01*
X0138450Y0190950D01*
X0138450Y0195163D01*
X0137800Y0195812D01*
X0136688Y0194700D01*
X0125950Y0194700D01*
X0123450Y0192200D01*
X0113450Y0192200D01*
X0107600Y0192423D02*
X0008200Y0192423D01*
X0008200Y0194021D02*
X0021163Y0194021D01*
X0020961Y0194105D02*
X0023387Y0193100D01*
X0036013Y0193100D01*
X0038439Y0194105D01*
X0040295Y0195961D01*
X0041300Y0198387D01*
X0041300Y0201013D01*
X0040295Y0203439D01*
X0038439Y0205295D01*
X0036013Y0206300D01*
X0023387Y0206300D01*
X0020961Y0205295D01*
X0019105Y0203439D01*
X0018100Y0201013D01*
X0018100Y0198387D01*
X0019105Y0195961D01*
X0020961Y0194105D01*
X0019446Y0195620D02*
X0008200Y0195620D01*
X0008200Y0197218D02*
X0018584Y0197218D01*
X0018100Y0198817D02*
X0008200Y0198817D01*
X0008200Y0200415D02*
X0018100Y0200415D01*
X0018515Y0202014D02*
X0008200Y0202014D01*
X0008200Y0203612D02*
X0019279Y0203612D01*
X0020877Y0205211D02*
X0008200Y0205211D01*
X0008200Y0206809D02*
X0060350Y0206809D01*
X0060350Y0205211D02*
X0038523Y0205211D01*
X0040121Y0203612D02*
X0060799Y0203612D01*
X0060350Y0204697D02*
X0061347Y0202290D01*
X0063190Y0200447D01*
X0065597Y0199450D01*
X0068203Y0199450D01*
X0070610Y0200447D01*
X0072453Y0202290D01*
X0073450Y0204697D01*
X0073450Y0217203D01*
X0072453Y0219610D01*
X0070610Y0221453D01*
X0068203Y0222450D01*
X0065597Y0222450D01*
X0063190Y0221453D01*
X0061347Y0219610D01*
X0060350Y0217203D01*
X0060350Y0204697D01*
X0061623Y0202014D02*
X0040885Y0202014D01*
X0041300Y0200415D02*
X0063266Y0200415D01*
X0070534Y0200415D02*
X0078866Y0200415D01*
X0078790Y0200447D02*
X0081197Y0199450D01*
X0083803Y0199450D01*
X0086210Y0200447D01*
X0088053Y0202290D01*
X0089050Y0204697D01*
X0089050Y0217203D01*
X0088053Y0219610D01*
X0086210Y0221453D01*
X0083803Y0222450D01*
X0081197Y0222450D01*
X0078790Y0221453D01*
X0076947Y0219610D01*
X0075950Y0217203D01*
X0075950Y0204697D01*
X0076947Y0202290D01*
X0078790Y0200447D01*
X0077223Y0202014D02*
X0072177Y0202014D01*
X0073001Y0203612D02*
X0076399Y0203612D01*
X0075950Y0205211D02*
X0073450Y0205211D01*
X0073450Y0206809D02*
X0075950Y0206809D01*
X0075950Y0208408D02*
X0073450Y0208408D01*
X0073450Y0210006D02*
X0075950Y0210006D01*
X0075950Y0211605D02*
X0073450Y0211605D01*
X0073450Y0213203D02*
X0075950Y0213203D01*
X0075950Y0214802D02*
X0073450Y0214802D01*
X0073450Y0216401D02*
X0075950Y0216401D01*
X0076280Y0217999D02*
X0073120Y0217999D01*
X0072458Y0219598D02*
X0076942Y0219598D01*
X0078533Y0221196D02*
X0070867Y0221196D01*
X0062933Y0221196D02*
X0013927Y0221196D01*
X0014589Y0222795D02*
X0181480Y0222795D01*
X0181119Y0221196D02*
X0086467Y0221196D01*
X0088058Y0219598D02*
X0110074Y0219598D01*
X0108476Y0217999D02*
X0088720Y0217999D01*
X0089050Y0216401D02*
X0107600Y0216401D01*
X0107600Y0214802D02*
X0089050Y0214802D01*
X0089050Y0213203D02*
X0107600Y0213203D01*
X0108272Y0211605D02*
X0089050Y0211605D01*
X0089050Y0210006D02*
X0109870Y0210006D01*
X0109852Y0208408D02*
X0089050Y0208408D01*
X0089050Y0206809D02*
X0108253Y0206809D01*
X0107400Y0205211D02*
X0089050Y0205211D01*
X0088601Y0203612D02*
X0113250Y0203612D01*
X0113650Y0203612D02*
X0131143Y0203612D01*
X0130841Y0203915D02*
X0133331Y0201425D01*
X0134213Y0201060D01*
X0134289Y0201060D01*
X0133641Y0200412D01*
X0133641Y0197100D01*
X0125473Y0197100D01*
X0124591Y0196735D01*
X0123915Y0196059D01*
X0122456Y0194600D01*
X0119300Y0194600D01*
X0119300Y0194623D01*
X0116240Y0197684D01*
X0119500Y0200944D01*
X0119500Y0203250D01*
X0113650Y0203250D01*
X0113650Y0203650D01*
X0119500Y0203650D01*
X0119500Y0205956D01*
X0116240Y0209216D01*
X0119300Y0212277D01*
X0119300Y0212300D01*
X0122456Y0212300D01*
X0123915Y0210841D01*
X0124591Y0210165D01*
X0125473Y0209800D01*
X0128917Y0209800D01*
X0128917Y0208535D01*
X0129800Y0207652D01*
X0129800Y0205473D01*
X0130165Y0204591D01*
X0130841Y0203915D01*
X0129908Y0205211D02*
X0119500Y0205211D01*
X0118647Y0206809D02*
X0129800Y0206809D01*
X0129044Y0208408D02*
X0117048Y0208408D01*
X0117030Y0210006D02*
X0124974Y0210006D01*
X0125950Y0212200D02*
X0131354Y0212200D01*
X0132289Y0213135D01*
X0132200Y0213046D01*
X0132200Y0205950D01*
X0134690Y0203460D01*
X0154700Y0203460D01*
X0150078Y0206809D02*
X0134735Y0206809D01*
X0135533Y0208408D02*
X0139918Y0208408D01*
X0139863Y0208503D02*
X0140100Y0208093D01*
X0140435Y0207758D01*
X0140846Y0207521D01*
X0141304Y0207398D01*
X0143226Y0207398D01*
X0143226Y0213049D01*
X0139741Y0213049D01*
X0139741Y0208961D01*
X0139863Y0208503D01*
X0139741Y0210006D02*
X0135660Y0210006D01*
X0135660Y0211605D02*
X0139741Y0211605D01*
X0139741Y0213221D02*
X0143226Y0213221D01*
X0143226Y0213049D01*
X0143398Y0213049D01*
X0143398Y0207398D01*
X0145321Y0207398D01*
X0145779Y0207521D01*
X0146189Y0207758D01*
X0146524Y0208093D01*
X0146761Y0208503D01*
X0146884Y0208961D01*
X0146884Y0213049D01*
X0143398Y0213049D01*
X0143398Y0213221D01*
X0143226Y0213221D01*
X0143226Y0218872D01*
X0141304Y0218872D01*
X0140846Y0218749D01*
X0140435Y0218512D01*
X0140100Y0218177D01*
X0139863Y0217767D01*
X0139741Y0217309D01*
X0139741Y0213221D01*
X0139741Y0214802D02*
X0135660Y0214802D01*
X0135660Y0216401D02*
X0139741Y0216401D01*
X0139997Y0217999D02*
X0135396Y0217999D01*
X0135660Y0213203D02*
X0143226Y0213203D01*
X0143398Y0213203D02*
X0149950Y0213203D01*
X0149950Y0211605D02*
X0146884Y0211605D01*
X0146884Y0210006D02*
X0149950Y0210006D01*
X0149950Y0208408D02*
X0146706Y0208408D01*
X0143398Y0208408D02*
X0143226Y0208408D01*
X0143226Y0210006D02*
X0143398Y0210006D01*
X0143398Y0211605D02*
X0143226Y0211605D01*
X0143398Y0213221D02*
X0146884Y0213221D01*
X0146884Y0217309D01*
X0146761Y0217767D01*
X0146524Y0218177D01*
X0146189Y0218512D01*
X0145779Y0218749D01*
X0145321Y0218872D01*
X0143398Y0218872D01*
X0143398Y0213221D01*
X0143398Y0214802D02*
X0143226Y0214802D01*
X0143226Y0216401D02*
X0143398Y0216401D01*
X0143398Y0217999D02*
X0143226Y0217999D01*
X0146627Y0217999D02*
X0182300Y0217999D01*
X0182300Y0216401D02*
X0146884Y0216401D01*
X0146884Y0214802D02*
X0150590Y0214802D01*
X0154700Y0210940D02*
X0154710Y0210950D01*
X0162200Y0210950D01*
X0163450Y0209700D01*
X0163450Y0204700D01*
X0164690Y0203460D01*
X0170950Y0203460D01*
X0184700Y0203460D01*
X0184700Y0195950D01*
X0187200Y0193450D01*
X0212200Y0193450D01*
X0214450Y0195700D01*
X0214450Y0203500D01*
X0214450Y0211100D01*
X0217800Y0211605D02*
X0229202Y0211605D01*
X0229202Y0213203D02*
X0217800Y0213203D01*
X0217800Y0213313D02*
X0216863Y0214250D01*
X0212037Y0214250D01*
X0211100Y0213313D01*
X0211100Y0208887D01*
X0212037Y0207950D01*
X0212050Y0207950D01*
X0212050Y0206650D01*
X0212037Y0206650D01*
X0211100Y0205713D01*
X0211100Y0201287D01*
X0212037Y0200350D01*
X0212050Y0200350D01*
X0212050Y0196694D01*
X0211206Y0195850D01*
X0188194Y0195850D01*
X0187100Y0196944D01*
X0187100Y0199301D01*
X0188512Y0199301D01*
X0189450Y0200238D01*
X0189450Y0206682D01*
X0188931Y0207200D01*
X0189450Y0207718D01*
X0189450Y0208540D01*
X0194950Y0208540D01*
X0194950Y0207718D01*
X0195469Y0207200D01*
X0194950Y0206682D01*
X0194950Y0200238D01*
X0195888Y0199301D01*
X0203512Y0199301D01*
X0204450Y0200238D01*
X0204450Y0200765D01*
X0206772Y0200765D01*
X0207654Y0201130D01*
X0208329Y0201805D01*
X0210485Y0203961D01*
X0210850Y0204843D01*
X0210850Y0213706D01*
X0211944Y0214800D01*
X0228706Y0214800D01*
X0229202Y0214304D01*
X0229202Y0209849D01*
X0227789Y0209849D01*
X0226852Y0208912D01*
X0226852Y0200488D01*
X0227789Y0199551D01*
X0235414Y0199551D01*
X0236351Y0200488D01*
X0236351Y0208912D01*
X0235414Y0209849D01*
X0234002Y0209849D01*
X0234002Y0215776D01*
X0233636Y0216658D01*
X0231744Y0218550D01*
X0251206Y0218550D01*
X0252300Y0217456D01*
X0252300Y0139444D01*
X0251206Y0138350D01*
X0235694Y0138350D01*
X0234600Y0139444D01*
X0234600Y0140339D01*
X0234981Y0140720D01*
X0234981Y0150707D01*
X0234044Y0151644D01*
X0230356Y0151644D01*
X0229700Y0150988D01*
X0229600Y0151088D01*
X0229600Y0153550D01*
X0247677Y0153550D01*
X0248559Y0153915D01*
X0251059Y0156415D01*
X0251735Y0157091D01*
X0252100Y0157973D01*
X0252100Y0202677D01*
X0251735Y0203559D01*
X0249235Y0206059D01*
X0248559Y0206735D01*
X0247677Y0207100D01*
X0247548Y0207100D01*
X0247548Y0208912D01*
X0246611Y0209849D01*
X0238986Y0209849D01*
X0238049Y0208912D01*
X0238049Y0200488D01*
X0238986Y0199551D01*
X0246611Y0199551D01*
X0247300Y0200240D01*
X0247300Y0159444D01*
X0246206Y0158350D01*
X0209849Y0158350D01*
X0209849Y0160414D01*
X0208912Y0161351D01*
X0200488Y0161351D01*
X0199551Y0160414D01*
X0199551Y0152789D01*
X0200488Y0151852D01*
X0208912Y0151852D01*
X0209849Y0152789D01*
X0209849Y0153550D01*
X0224800Y0153550D01*
X0224800Y0151088D01*
X0224700Y0150988D01*
X0224044Y0151644D01*
X0220356Y0151644D01*
X0219700Y0150988D01*
X0219044Y0151644D01*
X0215356Y0151644D01*
X0214419Y0150707D01*
X0214419Y0140720D01*
X0214800Y0140339D01*
X0214800Y0138350D01*
X0202364Y0138350D01*
X0202100Y0138614D01*
X0202100Y0146427D01*
X0201735Y0147309D01*
X0198559Y0150485D01*
X0197677Y0150850D01*
X0193350Y0150850D01*
X0193350Y0154301D01*
X0194762Y0154301D01*
X0195700Y0155238D01*
X0195700Y0161682D01*
X0195181Y0162200D01*
X0195700Y0162718D01*
X0195700Y0163540D01*
X0199997Y0163540D01*
X0200488Y0163049D01*
X0208912Y0163049D01*
X0209849Y0163986D01*
X0209849Y0171611D01*
X0208912Y0172548D01*
X0200488Y0172548D01*
X0199551Y0171611D01*
X0199551Y0168340D01*
X0195700Y0168340D01*
X0195700Y0169162D01*
X0194762Y0170099D01*
X0187138Y0170099D01*
X0186200Y0169162D01*
X0186200Y0162718D01*
X0186719Y0162200D01*
X0186200Y0161682D01*
X0186200Y0155238D01*
X0187138Y0154301D01*
X0188550Y0154301D01*
X0188550Y0150850D01*
X0188194Y0150850D01*
X0185850Y0153194D01*
X0185850Y0181206D01*
X0186944Y0182300D01*
X0218706Y0182300D01*
X0219800Y0181206D01*
X0219800Y0171644D01*
X0219486Y0171957D01*
X0219076Y0172194D01*
X0218618Y0172317D01*
X0217200Y0172317D01*
X0217200Y0166186D01*
X0217200Y0160056D01*
X0218618Y0160056D01*
X0219076Y0160178D01*
X0219486Y0160415D01*
X0219821Y0160750D01*
X0219836Y0160776D01*
X0220356Y0160256D01*
X0224044Y0160256D01*
X0224700Y0160912D01*
X0225356Y0160256D01*
X0229044Y0160256D01*
X0229700Y0160912D01*
X0230356Y0160256D01*
X0234044Y0160256D01*
X0234981Y0161193D01*
X0234981Y0171180D01*
X0234600Y0171561D01*
X0234600Y0174950D01*
X0236682Y0174950D01*
X0237200Y0175469D01*
X0237718Y0174950D01*
X0238550Y0174950D01*
X0238550Y0168614D01*
X0237369Y0167433D01*
X0237369Y0164467D01*
X0239467Y0162369D01*
X0242433Y0162369D01*
X0244531Y0164467D01*
X0244531Y0167433D01*
X0243350Y0168614D01*
X0243350Y0174950D01*
X0244162Y0174950D01*
X0245099Y0175888D01*
X0245099Y0183512D01*
X0244162Y0184450D01*
X0243340Y0184450D01*
X0243340Y0185147D01*
X0244162Y0185147D01*
X0245099Y0186084D01*
X0245099Y0193315D01*
X0244162Y0194253D01*
X0237718Y0194253D01*
X0237200Y0193734D01*
X0236682Y0194253D01*
X0230238Y0194253D01*
X0229301Y0193315D01*
X0229301Y0192100D01*
X0214244Y0192100D01*
X0216485Y0194341D01*
X0216850Y0195223D01*
X0216850Y0200350D01*
X0216863Y0200350D01*
X0217800Y0201287D01*
X0217800Y0205713D01*
X0216863Y0206650D01*
X0216850Y0206650D01*
X0216850Y0207950D01*
X0216863Y0207950D01*
X0217800Y0208887D01*
X0217800Y0213313D01*
X0217800Y0210006D02*
X0219311Y0210006D01*
X0219260Y0209955D02*
X0219023Y0209545D01*
X0218900Y0209087D01*
X0218900Y0207300D01*
X0222450Y0207300D01*
X0222450Y0207300D01*
X0222450Y0210650D01*
X0224437Y0210650D01*
X0224895Y0210527D01*
X0225305Y0210290D01*
X0225640Y0209955D01*
X0225877Y0209545D01*
X0226000Y0209087D01*
X0226000Y0207300D01*
X0222450Y0207300D01*
X0222450Y0207300D01*
X0222450Y0210650D01*
X0220463Y0210650D01*
X0220005Y0210527D01*
X0219595Y0210290D01*
X0219260Y0209955D01*
X0218900Y0208408D02*
X0217321Y0208408D01*
X0216850Y0206809D02*
X0218900Y0206809D01*
X0218900Y0207300D02*
X0218900Y0205513D01*
X0219023Y0205055D01*
X0219260Y0204645D01*
X0219595Y0204310D01*
X0220005Y0204073D01*
X0220463Y0203950D01*
X0222450Y0203950D01*
X0224437Y0203950D01*
X0224895Y0204073D01*
X0225305Y0204310D01*
X0225640Y0204645D01*
X0225877Y0205055D01*
X0226000Y0205513D01*
X0226000Y0207300D01*
X0222450Y0207300D01*
X0222450Y0203950D01*
X0222450Y0207300D01*
X0222450Y0207300D01*
X0222450Y0207300D01*
X0218900Y0207300D01*
X0218981Y0205211D02*
X0217800Y0205211D01*
X0217800Y0203612D02*
X0226852Y0203612D01*
X0226852Y0202014D02*
X0217800Y0202014D01*
X0216928Y0200415D02*
X0226925Y0200415D01*
X0231602Y0204700D02*
X0231602Y0215298D01*
X0229700Y0217200D01*
X0210950Y0217200D01*
X0208450Y0214700D01*
X0208450Y0205320D01*
X0206294Y0203165D01*
X0199995Y0203165D01*
X0199700Y0203460D01*
X0194950Y0203612D02*
X0189450Y0203612D01*
X0189450Y0202014D02*
X0194950Y0202014D01*
X0194950Y0200415D02*
X0189450Y0200415D01*
X0187100Y0198817D02*
X0212050Y0198817D01*
X0212050Y0197218D02*
X0187100Y0197218D01*
X0178450Y0189700D02*
X0227200Y0189700D01*
X0227200Y0166186D01*
X0222200Y0166186D02*
X0222200Y0182200D01*
X0219700Y0184700D01*
X0185950Y0184700D01*
X0183450Y0182200D01*
X0183450Y0152200D01*
X0187200Y0148450D01*
X0190950Y0148450D01*
X0190950Y0158460D01*
X0186200Y0158854D02*
X0185850Y0158854D01*
X0185850Y0157256D02*
X0186200Y0157256D01*
X0186200Y0155657D02*
X0185850Y0155657D01*
X0185850Y0154059D02*
X0188550Y0154059D01*
X0188550Y0152460D02*
X0186584Y0152460D01*
X0188183Y0150862D02*
X0188550Y0150862D01*
X0190950Y0148450D02*
X0197200Y0148450D01*
X0199700Y0145950D01*
X0199700Y0135950D01*
X0215950Y0135950D01*
X0217200Y0137200D01*
X0217200Y0145714D01*
X0214419Y0146066D02*
X0202100Y0146066D01*
X0202100Y0144468D02*
X0214419Y0144468D01*
X0214419Y0142869D02*
X0202100Y0142869D01*
X0202100Y0141270D02*
X0214419Y0141270D01*
X0214800Y0139672D02*
X0202100Y0139672D01*
X0201380Y0147665D02*
X0214419Y0147665D01*
X0214419Y0149263D02*
X0199781Y0149263D01*
X0199880Y0152460D02*
X0193350Y0152460D01*
X0193350Y0150862D02*
X0214573Y0150862D01*
X0209520Y0152460D02*
X0224800Y0152460D01*
X0227200Y0155950D02*
X0227200Y0145714D01*
X0222200Y0145714D02*
X0222200Y0125940D01*
X0207200Y0125940D01*
X0194963Y0117293D02*
X0191950Y0117293D01*
X0191950Y0118891D02*
X0193365Y0118891D01*
X0192300Y0120490D02*
X0191950Y0120490D01*
X0191602Y0122088D02*
X0192300Y0122088D01*
X0192300Y0123687D02*
X0192150Y0123687D01*
X0192150Y0125285D02*
X0192300Y0125285D01*
X0192300Y0126884D02*
X0192150Y0126884D01*
X0192150Y0128482D02*
X0192300Y0128482D01*
X0192300Y0130081D02*
X0191210Y0130081D01*
X0192300Y0131679D02*
X0179849Y0131679D01*
X0179849Y0132861D02*
X0178912Y0133798D01*
X0177100Y0133798D01*
X0177100Y0134536D01*
X0178281Y0135717D01*
X0178281Y0138683D01*
X0176183Y0140781D01*
X0173217Y0140781D01*
X0171119Y0138683D01*
X0171119Y0135717D01*
X0172300Y0134536D01*
X0172300Y0133798D01*
X0170488Y0133798D01*
X0169551Y0132861D01*
X0169551Y0125236D01*
X0170488Y0124299D01*
X0178912Y0124299D01*
X0179849Y0125236D01*
X0179849Y0132861D01*
X0179432Y0133278D02*
X0192300Y0133278D01*
X0192300Y0134876D02*
X0177441Y0134876D01*
X0178281Y0136475D02*
X0192300Y0136475D01*
X0192300Y0138073D02*
X0178281Y0138073D01*
X0177292Y0139672D02*
X0192300Y0139672D01*
X0183690Y0141270D02*
X0165044Y0141270D01*
X0166017Y0139672D02*
X0172108Y0139672D01*
X0171119Y0138073D02*
X0166017Y0138073D01*
X0165161Y0136475D02*
X0171119Y0136475D01*
X0171959Y0134876D02*
X0164836Y0134876D01*
X0164836Y0133278D02*
X0169968Y0133278D01*
X0169551Y0131679D02*
X0164836Y0131679D01*
X0164836Y0130081D02*
X0169551Y0130081D01*
X0169551Y0128482D02*
X0164836Y0128482D01*
X0164836Y0126884D02*
X0169551Y0126884D01*
X0169551Y0125285D02*
X0164836Y0125285D01*
X0164836Y0123687D02*
X0182250Y0123687D01*
X0182250Y0125285D02*
X0179849Y0125285D01*
X0179849Y0126884D02*
X0182250Y0126884D01*
X0182250Y0126420D02*
X0186720Y0126420D01*
X0186720Y0130299D01*
X0183813Y0130299D01*
X0183356Y0130177D01*
X0182945Y0129940D01*
X0182610Y0129604D01*
X0182373Y0129194D01*
X0182250Y0128736D01*
X0182250Y0126420D01*
X0182250Y0128482D02*
X0179849Y0128482D01*
X0179849Y0130081D02*
X0183190Y0130081D01*
X0186720Y0130081D02*
X0187680Y0130081D01*
X0187680Y0128482D02*
X0186720Y0128482D01*
X0186720Y0126884D02*
X0187680Y0126884D01*
X0182798Y0122088D02*
X0179425Y0122088D01*
X0179849Y0120490D02*
X0182450Y0120490D01*
X0186592Y0117852D02*
X0187200Y0118460D01*
X0187200Y0112200D01*
X0188450Y0110950D01*
X0240891Y0110950D01*
X0237441Y0114096D02*
X0189600Y0114096D01*
X0191950Y0115694D02*
X0202450Y0115694D01*
X0186592Y0117852D02*
X0174700Y0117852D01*
X0174604Y0117948D01*
X0165192Y0117948D01*
X0162436Y0120704D01*
X0162436Y0138814D01*
X0159828Y0141270D02*
X0154292Y0141270D01*
X0154292Y0139672D02*
X0158855Y0139672D01*
X0158855Y0138073D02*
X0154292Y0138073D01*
X0154292Y0136475D02*
X0159711Y0136475D01*
X0160036Y0134876D02*
X0154292Y0134876D01*
X0154292Y0133278D02*
X0160036Y0133278D01*
X0160036Y0131679D02*
X0154292Y0131679D01*
X0154292Y0130081D02*
X0160036Y0130081D01*
X0160036Y0128482D02*
X0154292Y0128482D01*
X0154292Y0126884D02*
X0160036Y0126884D01*
X0160036Y0125285D02*
X0154292Y0125285D01*
X0154292Y0123687D02*
X0160036Y0123687D01*
X0160036Y0122088D02*
X0154292Y0122088D01*
X0154292Y0120490D02*
X0160036Y0120490D01*
X0160855Y0118891D02*
X0154292Y0118891D01*
X0154292Y0117293D02*
X0162453Y0117293D01*
X0164362Y0115694D02*
X0154292Y0115694D01*
X0154292Y0114096D02*
X0169551Y0114096D01*
X0169551Y0120490D02*
X0166044Y0120490D01*
X0164836Y0122088D02*
X0169975Y0122088D01*
X0174700Y0129048D02*
X0174700Y0137200D01*
X0181887Y0142869D02*
X0154292Y0142869D01*
X0154292Y0144468D02*
X0180288Y0144468D01*
X0178690Y0146066D02*
X0154292Y0146066D01*
X0150950Y0146066D02*
X0113450Y0146066D01*
X0113450Y0144468D02*
X0150950Y0144468D01*
X0150950Y0142869D02*
X0113450Y0142869D01*
X0113450Y0141270D02*
X0150950Y0141270D01*
X0150950Y0139672D02*
X0113450Y0139672D01*
X0113450Y0138073D02*
X0150950Y0138073D01*
X0150950Y0136475D02*
X0113450Y0136475D01*
X0113450Y0134876D02*
X0150950Y0134876D01*
X0150950Y0133278D02*
X0113450Y0133278D01*
X0113450Y0131679D02*
X0150950Y0131679D01*
X0150950Y0130081D02*
X0113450Y0130081D01*
X0113450Y0128482D02*
X0150950Y0128482D01*
X0150950Y0126884D02*
X0113450Y0126884D01*
X0113450Y0125285D02*
X0150950Y0125285D01*
X0150950Y0123687D02*
X0113450Y0123687D01*
X0113450Y0122088D02*
X0150950Y0122088D01*
X0150950Y0120490D02*
X0113450Y0120490D01*
X0113450Y0118891D02*
X0150950Y0118891D01*
X0150950Y0117293D02*
X0113450Y0117293D01*
X0113450Y0115694D02*
X0150950Y0115694D01*
X0150950Y0114096D02*
X0113450Y0114096D01*
X0113450Y0112497D02*
X0150950Y0112497D01*
X0150950Y0110899D02*
X0113450Y0110899D01*
X0113450Y0109300D02*
X0150950Y0109300D01*
X0150950Y0108450D02*
X0142200Y0099700D01*
X0142200Y0067200D01*
X0103450Y0067200D01*
X0103450Y0095950D01*
X0113450Y0105950D01*
X0113450Y0152200D01*
X0150950Y0152200D01*
X0150950Y0108450D01*
X0150202Y0107702D02*
X0113450Y0107702D01*
X0113450Y0106103D02*
X0148603Y0106103D01*
X0147005Y0104505D02*
X0112005Y0104505D01*
X0110406Y0102906D02*
X0145406Y0102906D01*
X0143808Y0101308D02*
X0108808Y0101308D01*
X0107209Y0099709D02*
X0142209Y0099709D01*
X0142200Y0098111D02*
X0105611Y0098111D01*
X0104012Y0096512D02*
X0142200Y0096512D01*
X0142200Y0094914D02*
X0103450Y0094914D01*
X0103450Y0093315D02*
X0142200Y0093315D01*
X0142200Y0091717D02*
X0103450Y0091717D01*
X0103450Y0090118D02*
X0142200Y0090118D01*
X0142200Y0088520D02*
X0103450Y0088520D01*
X0103450Y0086921D02*
X0142200Y0086921D01*
X0142200Y0085323D02*
X0103450Y0085323D01*
X0103450Y0083724D02*
X0142200Y0083724D01*
X0142200Y0082126D02*
X0103450Y0082126D01*
X0103450Y0080527D02*
X0142200Y0080527D01*
X0142200Y0078929D02*
X0103450Y0078929D01*
X0103450Y0077330D02*
X0142200Y0077330D01*
X0142200Y0075732D02*
X0103450Y0075732D01*
X0103450Y0074133D02*
X0142200Y0074133D01*
X0142200Y0072534D02*
X0103450Y0072534D01*
X0103450Y0070936D02*
X0142200Y0070936D01*
X0142200Y0069337D02*
X0103450Y0069337D01*
X0103450Y0067739D02*
X0142200Y0067739D01*
X0148800Y0072534D02*
X0156010Y0072534D01*
X0156030Y0074133D02*
X0148800Y0074133D01*
X0156174Y0080527D02*
X0157774Y0080527D01*
X0157774Y0082126D02*
X0156174Y0082126D01*
X0156174Y0083724D02*
X0157774Y0083724D01*
X0157774Y0088520D02*
X0156174Y0088520D01*
X0156174Y0090118D02*
X0157774Y0090118D01*
X0157774Y0091717D02*
X0156174Y0091717D01*
X0156174Y0093315D02*
X0157774Y0093315D01*
X0162250Y0093315D02*
X0240631Y0093315D01*
X0240578Y0094914D02*
X0148800Y0094914D01*
X0148800Y0096512D02*
X0240578Y0096512D01*
X0240578Y0098111D02*
X0149123Y0098111D01*
X0150722Y0099709D02*
X0237441Y0099709D01*
X0237441Y0101308D02*
X0152320Y0101308D01*
X0153919Y0102906D02*
X0237441Y0102906D01*
X0237498Y0104505D02*
X0155517Y0104505D01*
X0156300Y0106103D02*
X0254763Y0106103D01*
X0254763Y0107702D02*
X0156300Y0107702D01*
X0156300Y0109300D02*
X0186706Y0109300D01*
X0185141Y0110899D02*
X0156300Y0110899D01*
X0155415Y0112497D02*
X0184800Y0112497D01*
X0184800Y0114096D02*
X0179849Y0114096D01*
X0163498Y0091717D02*
X0241789Y0091717D01*
X0245380Y0094914D02*
X0264901Y0094914D01*
X0264901Y0096512D02*
X0245378Y0096512D01*
X0245378Y0098111D02*
X0264901Y0098111D01*
X0264901Y0099709D02*
X0255498Y0099709D01*
X0257477Y0101308D02*
X0264901Y0101308D01*
X0264901Y0102906D02*
X0259076Y0102906D01*
X0253886Y0104505D02*
X0248457Y0104505D01*
X0246979Y0093315D02*
X0264901Y0093315D01*
X0264901Y0091717D02*
X0248577Y0091717D01*
X0249600Y0090118D02*
X0264901Y0090118D01*
X0264901Y0088520D02*
X0249600Y0088520D01*
X0249600Y0086921D02*
X0264901Y0086921D01*
X0264901Y0085323D02*
X0249600Y0085323D01*
X0239900Y0085323D02*
X0239500Y0085323D01*
X0239500Y0083724D02*
X0239900Y0083724D01*
X0239900Y0082126D02*
X0239500Y0082126D01*
X0239500Y0080527D02*
X0239900Y0080527D01*
X0239900Y0078929D02*
X0239500Y0078929D01*
X0239500Y0077330D02*
X0239900Y0077330D01*
X0239900Y0075732D02*
X0239500Y0075732D01*
X0239500Y0074133D02*
X0239900Y0074133D01*
X0242689Y0074133D02*
X0244800Y0074133D01*
X0244800Y0075732D02*
X0244287Y0075732D01*
X0244140Y0072534D02*
X0194550Y0072534D01*
X0194550Y0070936D02*
X0242542Y0070936D01*
X0236711Y0074133D02*
X0226246Y0074133D01*
X0226236Y0074130D02*
X0226694Y0074253D01*
X0227104Y0074490D01*
X0227440Y0074825D01*
X0227677Y0075236D01*
X0227799Y0075693D01*
X0227799Y0078674D01*
X0220500Y0078674D01*
X0220500Y0080274D01*
X0218900Y0080274D01*
X0218900Y0084817D01*
X0213164Y0084817D01*
X0212706Y0084694D01*
X0212296Y0084457D01*
X0211960Y0084122D01*
X0211723Y0083712D01*
X0211601Y0083254D01*
X0211601Y0080274D01*
X0218900Y0080274D01*
X0218900Y0078674D01*
X0211601Y0078674D01*
X0211601Y0075693D01*
X0211723Y0075236D01*
X0211960Y0074825D01*
X0212296Y0074490D01*
X0212706Y0074253D01*
X0213164Y0074130D01*
X0218900Y0074130D01*
X0218900Y0078674D01*
X0220500Y0078674D01*
X0220500Y0074130D01*
X0226236Y0074130D01*
X0227799Y0075732D02*
X0235112Y0075732D01*
X0233650Y0077330D02*
X0227799Y0077330D01*
X0227799Y0080274D02*
X0227799Y0083254D01*
X0227677Y0083712D01*
X0227440Y0084122D01*
X0227104Y0084457D01*
X0226694Y0084694D01*
X0226236Y0084817D01*
X0220500Y0084817D01*
X0220500Y0080274D01*
X0227799Y0080274D01*
X0227799Y0080527D02*
X0233650Y0080527D01*
X0233650Y0078929D02*
X0220500Y0078929D01*
X0220500Y0080527D02*
X0218900Y0080527D01*
X0218900Y0078929D02*
X0194550Y0078929D01*
X0194550Y0077330D02*
X0211601Y0077330D01*
X0211601Y0075732D02*
X0194550Y0075732D01*
X0194550Y0074133D02*
X0213154Y0074133D01*
X0218900Y0074133D02*
X0220500Y0074133D01*
X0220500Y0075732D02*
X0218900Y0075732D01*
X0218900Y0077330D02*
X0220500Y0077330D01*
X0220500Y0082126D02*
X0218900Y0082126D01*
X0218900Y0083724D02*
X0220500Y0083724D01*
X0227669Y0083724D02*
X0235168Y0083724D01*
X0233650Y0082126D02*
X0227799Y0082126D01*
X0236767Y0085323D02*
X0202570Y0085323D01*
X0202570Y0083724D02*
X0211731Y0083724D01*
X0211601Y0082126D02*
X0202570Y0082126D01*
X0201884Y0080527D02*
X0211601Y0080527D01*
X0193383Y0064542D02*
X0264901Y0064542D01*
X0264901Y0050155D02*
X0203600Y0050155D01*
X0203600Y0048557D02*
X0264901Y0048557D01*
X0264901Y0046958D02*
X0203600Y0046958D01*
X0203600Y0045360D02*
X0264901Y0045360D01*
X0264901Y0043761D02*
X0203600Y0043761D01*
X0203600Y0042163D02*
X0264901Y0042163D01*
X0264901Y0040564D02*
X0203600Y0040564D01*
X0203600Y0038966D02*
X0264901Y0038966D01*
X0264901Y0037367D02*
X0203600Y0037367D01*
X0203600Y0035769D02*
X0264901Y0035769D01*
X0264901Y0034170D02*
X0203600Y0034170D01*
X0205091Y0032572D02*
X0264901Y0032572D01*
X0264901Y0030973D02*
X0206024Y0030973D01*
X0206550Y0029375D02*
X0264901Y0029375D01*
X0264901Y0027776D02*
X0206550Y0027776D01*
X0206550Y0026178D02*
X0264901Y0026178D01*
X0264901Y0024579D02*
X0206550Y0024579D01*
X0206550Y0022981D02*
X0264901Y0022981D01*
X0264901Y0021382D02*
X0206550Y0021382D01*
X0206550Y0019784D02*
X0264901Y0019784D01*
X0264901Y0018185D02*
X0206550Y0018185D01*
X0206297Y0016587D02*
X0264901Y0016587D01*
X0261990Y0014988D02*
X0205635Y0014988D01*
X0204153Y0013390D02*
X0260204Y0013390D01*
X0211801Y0061345D02*
X0190186Y0061345D01*
X0188000Y0059746D02*
X0197155Y0059746D01*
X0196119Y0058148D02*
X0188000Y0058148D01*
X0188000Y0056549D02*
X0196100Y0056549D01*
X0196400Y0054951D02*
X0188000Y0054951D01*
X0188000Y0053352D02*
X0196400Y0053352D01*
X0196400Y0051754D02*
X0188000Y0051754D01*
X0188000Y0050155D02*
X0196400Y0050155D01*
X0196400Y0048557D02*
X0188000Y0048557D01*
X0188000Y0046958D02*
X0196400Y0046958D01*
X0196400Y0045360D02*
X0188000Y0045360D01*
X0188000Y0043761D02*
X0196400Y0043761D01*
X0196400Y0042163D02*
X0188000Y0042163D01*
X0188000Y0040564D02*
X0196400Y0040564D01*
X0196400Y0038966D02*
X0188000Y0038966D01*
X0188000Y0037367D02*
X0196400Y0037367D01*
X0196400Y0035769D02*
X0188000Y0035769D01*
X0188000Y0034170D02*
X0196400Y0034170D01*
X0194909Y0032572D02*
X0189491Y0032572D01*
X0190424Y0030973D02*
X0193976Y0030973D01*
X0193450Y0029375D02*
X0190950Y0029375D01*
X0190950Y0027776D02*
X0193450Y0027776D01*
X0193450Y0026178D02*
X0190950Y0026178D01*
X0190950Y0024579D02*
X0193450Y0024579D01*
X0193450Y0022981D02*
X0190950Y0022981D01*
X0190950Y0021382D02*
X0193450Y0021382D01*
X0193450Y0019784D02*
X0190950Y0019784D01*
X0190950Y0018185D02*
X0193450Y0018185D01*
X0193703Y0016587D02*
X0190697Y0016587D01*
X0190035Y0014988D02*
X0194365Y0014988D01*
X0195847Y0013390D02*
X0188553Y0013390D01*
X0180247Y0013390D02*
X0011696Y0013390D01*
X0008200Y0014988D02*
X0178765Y0014988D01*
X0178103Y0016587D02*
X0008200Y0016587D01*
X0008200Y0018185D02*
X0177850Y0018185D01*
X0177850Y0019784D02*
X0008200Y0019784D01*
X0008200Y0021382D02*
X0177850Y0021382D01*
X0177850Y0022981D02*
X0008200Y0022981D01*
X0008200Y0024579D02*
X0177850Y0024579D01*
X0180800Y0042163D02*
X0008200Y0042163D01*
X0008200Y0043761D02*
X0180800Y0043761D01*
X0180800Y0045360D02*
X0036893Y0045360D01*
X0036408Y0044875D02*
X0037702Y0046169D01*
X0038402Y0047860D01*
X0038402Y0049690D01*
X0037702Y0051380D01*
X0036408Y0052674D01*
X0034717Y0053375D01*
X0026887Y0053375D01*
X0025197Y0052674D01*
X0023903Y0051380D01*
X0023202Y0049690D01*
X0023202Y0047860D01*
X0023903Y0046169D01*
X0025197Y0044875D01*
X0026887Y0044175D01*
X0034717Y0044175D01*
X0036408Y0044875D01*
X0038029Y0046958D02*
X0180800Y0046958D01*
X0180800Y0048557D02*
X0038402Y0048557D01*
X0038210Y0050155D02*
X0124739Y0050155D01*
X0123674Y0051754D02*
X0037329Y0051754D01*
X0034772Y0053352D02*
X0123350Y0053352D01*
X0123593Y0054951D02*
X0008200Y0054951D01*
X0008200Y0056549D02*
X0124544Y0056549D01*
X0098100Y0064542D02*
X0038402Y0064542D01*
X0037801Y0066140D02*
X0098100Y0066140D01*
X0098100Y0067739D02*
X0036252Y0067739D01*
X0034926Y0074093D02*
X0035645Y0074326D01*
X0036318Y0074669D01*
X0036929Y0075114D01*
X0037464Y0075648D01*
X0037908Y0076259D01*
X0038251Y0076932D01*
X0038484Y0077651D01*
X0038602Y0078397D01*
X0038602Y0078575D01*
X0031002Y0078575D01*
X0031002Y0073975D01*
X0034180Y0073975D01*
X0034926Y0074093D01*
X0035049Y0074133D02*
X0057577Y0074133D01*
X0056914Y0075732D02*
X0037524Y0075732D01*
X0038380Y0077330D02*
X0056850Y0077330D01*
X0057022Y0078929D02*
X0031002Y0078929D01*
X0031002Y0078975D02*
X0038602Y0078975D01*
X0038602Y0079153D01*
X0038484Y0079899D01*
X0038251Y0080617D01*
X0037908Y0081291D01*
X0037464Y0081902D01*
X0036929Y0082436D01*
X0036318Y0082880D01*
X0035645Y0083223D01*
X0034926Y0083457D01*
X0034180Y0083575D01*
X0031002Y0083575D01*
X0031002Y0078975D01*
X0030602Y0078975D01*
X0030602Y0078575D01*
X0023002Y0078575D01*
X0023002Y0078397D01*
X0023121Y0077651D01*
X0023354Y0076932D01*
X0023697Y0076259D01*
X0024141Y0075648D01*
X0024675Y0075114D01*
X0025287Y0074669D01*
X0025960Y0074326D01*
X0026678Y0074093D01*
X0027425Y0073975D01*
X0030602Y0073975D01*
X0030602Y0078575D01*
X0031002Y0078575D01*
X0031002Y0078975D01*
X0030602Y0078975D02*
X0030602Y0083575D01*
X0027425Y0083575D01*
X0026678Y0083457D01*
X0025960Y0083223D01*
X0025287Y0082880D01*
X0024675Y0082436D01*
X0024141Y0081902D01*
X0023697Y0081291D01*
X0023354Y0080617D01*
X0023121Y0079899D01*
X0023002Y0079153D01*
X0023002Y0078975D01*
X0030602Y0078975D01*
X0030602Y0078929D02*
X0008200Y0078929D01*
X0008200Y0080527D02*
X0023325Y0080527D01*
X0024365Y0082126D02*
X0008200Y0082126D01*
X0008200Y0083724D02*
X0059850Y0083724D01*
X0059850Y0085323D02*
X0008200Y0085323D01*
X0008200Y0086921D02*
X0059850Y0086921D01*
X0059850Y0088520D02*
X0008200Y0088520D01*
X0008200Y0090118D02*
X0059850Y0090118D01*
X0059850Y0091717D02*
X0008200Y0091717D01*
X0008200Y0093315D02*
X0059850Y0093315D01*
X0059850Y0094914D02*
X0008200Y0094914D01*
X0008200Y0096512D02*
X0059850Y0096512D01*
X0059850Y0098111D02*
X0008200Y0098111D01*
X0008200Y0099709D02*
X0059850Y0099709D01*
X0059850Y0101308D02*
X0008200Y0101308D01*
X0008200Y0102906D02*
X0059850Y0102906D01*
X0059850Y0104505D02*
X0008200Y0104505D01*
X0008200Y0106103D02*
X0059850Y0106103D01*
X0059850Y0107702D02*
X0008200Y0107702D01*
X0008200Y0109300D02*
X0059850Y0109300D01*
X0059850Y0110899D02*
X0008200Y0110899D01*
X0008200Y0112497D02*
X0059850Y0112497D01*
X0059850Y0114096D02*
X0008200Y0114096D01*
X0008200Y0115694D02*
X0060603Y0115694D01*
X0062202Y0117293D02*
X0008200Y0117293D01*
X0008200Y0118891D02*
X0063800Y0118891D01*
X0065399Y0120490D02*
X0008200Y0120490D01*
X0008200Y0122088D02*
X0070250Y0122088D01*
X0070250Y0123687D02*
X0008200Y0123687D01*
X0008200Y0125285D02*
X0070250Y0125285D01*
X0069751Y0126884D02*
X0008200Y0126884D01*
X0008200Y0128482D02*
X0069301Y0128482D01*
X0069301Y0130081D02*
X0008200Y0130081D01*
X0008200Y0131679D02*
X0069301Y0131679D01*
X0069301Y0133278D02*
X0036442Y0133278D01*
X0036013Y0133100D02*
X0038439Y0134105D01*
X0040295Y0135961D01*
X0041300Y0138387D01*
X0041300Y0141013D01*
X0040295Y0143439D01*
X0038439Y0145295D01*
X0036013Y0146300D01*
X0023387Y0146300D01*
X0020961Y0145295D01*
X0019105Y0143439D01*
X0018100Y0141013D01*
X0018100Y0138387D01*
X0019105Y0135961D01*
X0020961Y0134105D01*
X0023387Y0133100D01*
X0036013Y0133100D01*
X0039210Y0134876D02*
X0069612Y0134876D01*
X0071060Y0136475D02*
X0040508Y0136475D01*
X0041170Y0138073D02*
X0071060Y0138073D01*
X0071060Y0139672D02*
X0041300Y0139672D01*
X0041193Y0141270D02*
X0071060Y0141270D01*
X0071060Y0142869D02*
X0040531Y0142869D01*
X0039266Y0144468D02*
X0071060Y0144468D01*
X0071060Y0146066D02*
X0036578Y0146066D01*
X0022822Y0146066D02*
X0008200Y0146066D01*
X0008200Y0144468D02*
X0020134Y0144468D01*
X0018869Y0142869D02*
X0008200Y0142869D01*
X0008200Y0141270D02*
X0018207Y0141270D01*
X0018100Y0139672D02*
X0008200Y0139672D01*
X0008200Y0138073D02*
X0018230Y0138073D01*
X0018892Y0136475D02*
X0008200Y0136475D01*
X0008200Y0134876D02*
X0020190Y0134876D01*
X0022958Y0133278D02*
X0008200Y0133278D01*
X0008200Y0147665D02*
X0071060Y0147665D01*
X0071060Y0149263D02*
X0008200Y0149263D01*
X0008200Y0150862D02*
X0071060Y0150862D01*
X0071060Y0152460D02*
X0008200Y0152460D01*
X0008200Y0154059D02*
X0071060Y0154059D01*
X0071060Y0155657D02*
X0008200Y0155657D01*
X0008200Y0157256D02*
X0071060Y0157256D01*
X0071060Y0158854D02*
X0008200Y0158854D01*
X0008200Y0160453D02*
X0071060Y0160453D01*
X0071060Y0162051D02*
X0008200Y0162051D01*
X0008200Y0163650D02*
X0071060Y0163650D01*
X0071060Y0165248D02*
X0008200Y0165248D01*
X0008200Y0166847D02*
X0071060Y0166847D01*
X0071060Y0168445D02*
X0008200Y0168445D01*
X0008200Y0170044D02*
X0071060Y0170044D01*
X0071060Y0171642D02*
X0008200Y0171642D01*
X0008200Y0173241D02*
X0071060Y0173241D01*
X0071060Y0174839D02*
X0008200Y0174839D01*
X0008200Y0176438D02*
X0071060Y0176438D01*
X0072142Y0178036D02*
X0008200Y0178036D01*
X0008200Y0179635D02*
X0073741Y0179635D01*
X0075950Y0178450D02*
X0106009Y0178450D01*
X0106048Y0178411D01*
X0121285Y0178411D01*
X0121298Y0178424D01*
X0117730Y0181233D02*
X0110601Y0181233D01*
X0110252Y0174839D02*
X0117730Y0174839D01*
X0122066Y0173241D02*
X0110801Y0173241D01*
X0110801Y0171642D02*
X0121327Y0171642D01*
X0121069Y0170044D02*
X0110801Y0170044D01*
X0110801Y0168445D02*
X0121069Y0168445D01*
X0121069Y0165248D02*
X0075860Y0165248D01*
X0075860Y0163650D02*
X0121069Y0163650D01*
X0121378Y0162051D02*
X0075860Y0162051D01*
X0075860Y0160453D02*
X0122179Y0160453D01*
X0123813Y0158854D02*
X0075860Y0158854D01*
X0075860Y0157256D02*
X0176050Y0157256D01*
X0176050Y0158854D02*
X0130586Y0158854D01*
X0132221Y0160453D02*
X0176050Y0160453D01*
X0176050Y0162051D02*
X0133022Y0162051D01*
X0133331Y0163650D02*
X0176050Y0163650D01*
X0176050Y0165248D02*
X0133331Y0165248D01*
X0133331Y0168445D02*
X0142447Y0168445D01*
X0142447Y0170044D02*
X0133331Y0170044D01*
X0133073Y0171642D02*
X0142447Y0171642D01*
X0142447Y0173241D02*
X0132334Y0173241D01*
X0128000Y0171687D02*
X0128000Y0167724D01*
X0126400Y0167724D01*
X0126400Y0171687D01*
X0127016Y0171687D01*
X0127016Y0177240D01*
X0127384Y0177240D01*
X0127384Y0171687D01*
X0128000Y0171687D01*
X0128000Y0171642D02*
X0126400Y0171642D01*
X0126400Y0170044D02*
X0128000Y0170044D01*
X0128000Y0168445D02*
X0126400Y0168445D01*
X0126400Y0166847D02*
X0109961Y0166847D01*
X0106528Y0166847D02*
X0105569Y0166847D01*
X0105569Y0168445D02*
X0106528Y0168445D01*
X0106528Y0170044D02*
X0105569Y0170044D01*
X0101296Y0170044D02*
X0075860Y0170044D01*
X0075860Y0171642D02*
X0101296Y0171642D01*
X0101296Y0173241D02*
X0075860Y0173241D01*
X0075860Y0174839D02*
X0101845Y0174839D01*
X0101496Y0181233D02*
X0008200Y0181233D01*
X0008200Y0182832D02*
X0118522Y0182832D01*
X0117150Y0187627D02*
X0138432Y0187627D01*
X0136780Y0189226D02*
X0118749Y0189226D01*
X0118303Y0195620D02*
X0123476Y0195620D01*
X0125468Y0190824D02*
X0134029Y0190824D01*
X0133641Y0197218D02*
X0116705Y0197218D01*
X0117373Y0198817D02*
X0133641Y0198817D01*
X0133645Y0200415D02*
X0118971Y0200415D01*
X0119500Y0202014D02*
X0132742Y0202014D01*
X0123151Y0211605D02*
X0118628Y0211605D01*
X0123450Y0214700D02*
X0113450Y0214700D01*
X0116826Y0219598D02*
X0181119Y0219598D01*
X0184700Y0220950D02*
X0184700Y0210940D01*
X0199700Y0210940D01*
X0199700Y0218450D01*
X0202200Y0220950D01*
X0252200Y0220950D01*
X0254700Y0218450D01*
X0254700Y0138450D01*
X0252200Y0135950D01*
X0234700Y0135950D01*
X0232200Y0138450D01*
X0232200Y0145714D01*
X0234981Y0146066D02*
X0252300Y0146066D01*
X0252300Y0144468D02*
X0234981Y0144468D01*
X0234981Y0142869D02*
X0252300Y0142869D01*
X0252300Y0141270D02*
X0234981Y0141270D01*
X0234600Y0139672D02*
X0252300Y0139672D01*
X0256119Y0136475D02*
X0264901Y0136475D01*
X0264901Y0138073D02*
X0257100Y0138073D01*
X0257100Y0139672D02*
X0264901Y0139672D01*
X0264901Y0141270D02*
X0257100Y0141270D01*
X0257100Y0142869D02*
X0264901Y0142869D01*
X0264901Y0144468D02*
X0257100Y0144468D01*
X0257100Y0146066D02*
X0264901Y0146066D01*
X0264901Y0147665D02*
X0257100Y0147665D01*
X0257100Y0149263D02*
X0264901Y0149263D01*
X0264901Y0150862D02*
X0257100Y0150862D01*
X0257100Y0152460D02*
X0264901Y0152460D01*
X0264901Y0154059D02*
X0257100Y0154059D01*
X0257100Y0155657D02*
X0264901Y0155657D01*
X0264901Y0157256D02*
X0257100Y0157256D01*
X0257100Y0158854D02*
X0264901Y0158854D01*
X0264901Y0160453D02*
X0257100Y0160453D01*
X0257100Y0162051D02*
X0264901Y0162051D01*
X0264901Y0163650D02*
X0257100Y0163650D01*
X0257100Y0165248D02*
X0264901Y0165248D01*
X0264901Y0166847D02*
X0257100Y0166847D01*
X0257100Y0168445D02*
X0264901Y0168445D01*
X0264901Y0170044D02*
X0257100Y0170044D01*
X0257100Y0171642D02*
X0264901Y0171642D01*
X0264901Y0173241D02*
X0257100Y0173241D01*
X0257100Y0174839D02*
X0264901Y0174839D01*
X0264901Y0176438D02*
X0257100Y0176438D01*
X0257100Y0178036D02*
X0264901Y0178036D01*
X0264901Y0179635D02*
X0257100Y0179635D01*
X0257100Y0181233D02*
X0264901Y0181233D01*
X0264901Y0182832D02*
X0257100Y0182832D01*
X0257100Y0184430D02*
X0264901Y0184430D01*
X0264901Y0186029D02*
X0257100Y0186029D01*
X0257100Y0187627D02*
X0264901Y0187627D01*
X0264901Y0189226D02*
X0257100Y0189226D01*
X0257100Y0190824D02*
X0264901Y0190824D01*
X0264901Y0192423D02*
X0257100Y0192423D01*
X0257100Y0194021D02*
X0264901Y0194021D01*
X0264901Y0195620D02*
X0257100Y0195620D01*
X0257100Y0197218D02*
X0264901Y0197218D01*
X0264901Y0198817D02*
X0257100Y0198817D01*
X0257100Y0200415D02*
X0264901Y0200415D01*
X0264901Y0202014D02*
X0257100Y0202014D01*
X0257100Y0203612D02*
X0264901Y0203612D01*
X0264901Y0205211D02*
X0257100Y0205211D01*
X0257100Y0206809D02*
X0264901Y0206809D01*
X0264901Y0208408D02*
X0257100Y0208408D01*
X0257100Y0210006D02*
X0264901Y0210006D01*
X0264901Y0211605D02*
X0257100Y0211605D01*
X0257100Y0213203D02*
X0264901Y0213203D01*
X0264901Y0214802D02*
X0257100Y0214802D01*
X0257100Y0216401D02*
X0264901Y0216401D01*
X0264901Y0217999D02*
X0257100Y0217999D01*
X0256822Y0219598D02*
X0261617Y0219598D01*
X0260018Y0221196D02*
X0255348Y0221196D01*
X0253750Y0222795D02*
X0259079Y0222795D01*
X0258416Y0224393D02*
X0186321Y0224393D01*
X0187920Y0222795D02*
X0200650Y0222795D01*
X0199052Y0221196D02*
X0188281Y0221196D01*
X0188281Y0219598D02*
X0197578Y0219598D01*
X0197300Y0217999D02*
X0187100Y0217999D01*
X0187100Y0216401D02*
X0197300Y0216401D01*
X0195590Y0214802D02*
X0188810Y0214802D01*
X0189450Y0208408D02*
X0194950Y0208408D01*
X0195078Y0206809D02*
X0189322Y0206809D01*
X0189450Y0205211D02*
X0194950Y0205211D01*
X0204450Y0200415D02*
X0211972Y0200415D01*
X0211100Y0202014D02*
X0208538Y0202014D01*
X0210136Y0203612D02*
X0211100Y0203612D01*
X0211100Y0205211D02*
X0210850Y0205211D01*
X0210850Y0206809D02*
X0212050Y0206809D01*
X0211579Y0208408D02*
X0210850Y0208408D01*
X0210850Y0210006D02*
X0211100Y0210006D01*
X0211100Y0211605D02*
X0210850Y0211605D01*
X0210850Y0213203D02*
X0211100Y0213203D01*
X0222450Y0210006D02*
X0222450Y0210006D01*
X0222450Y0208408D02*
X0222450Y0208408D01*
X0222450Y0206809D02*
X0222450Y0206809D01*
X0222450Y0205211D02*
X0222450Y0205211D01*
X0225919Y0205211D02*
X0226852Y0205211D01*
X0226852Y0206809D02*
X0226000Y0206809D01*
X0226000Y0208408D02*
X0226852Y0208408D01*
X0225589Y0210006D02*
X0229202Y0210006D01*
X0234002Y0210006D02*
X0252300Y0210006D01*
X0252300Y0208408D02*
X0247548Y0208408D01*
X0248379Y0206809D02*
X0252300Y0206809D01*
X0252300Y0205211D02*
X0250083Y0205211D01*
X0251682Y0203612D02*
X0252300Y0203612D01*
X0252300Y0202014D02*
X0252100Y0202014D01*
X0252100Y0200415D02*
X0252300Y0200415D01*
X0252300Y0198817D02*
X0252100Y0198817D01*
X0252100Y0197218D02*
X0252300Y0197218D01*
X0252300Y0195620D02*
X0252100Y0195620D01*
X0252100Y0194021D02*
X0252300Y0194021D01*
X0252300Y0192423D02*
X0252100Y0192423D01*
X0252100Y0190824D02*
X0252300Y0190824D01*
X0252300Y0189226D02*
X0252100Y0189226D01*
X0252100Y0187627D02*
X0252300Y0187627D01*
X0252300Y0186029D02*
X0252100Y0186029D01*
X0252100Y0184430D02*
X0252300Y0184430D01*
X0252300Y0182832D02*
X0252100Y0182832D01*
X0252100Y0181233D02*
X0252300Y0181233D01*
X0252300Y0179635D02*
X0252100Y0179635D01*
X0252100Y0178036D02*
X0252300Y0178036D01*
X0252300Y0176438D02*
X0252100Y0176438D01*
X0252100Y0174839D02*
X0252300Y0174839D01*
X0252300Y0173241D02*
X0252100Y0173241D01*
X0252100Y0171642D02*
X0252300Y0171642D01*
X0252300Y0170044D02*
X0252100Y0170044D01*
X0252100Y0168445D02*
X0252300Y0168445D01*
X0252300Y0166847D02*
X0252100Y0166847D01*
X0252100Y0165248D02*
X0252300Y0165248D01*
X0252300Y0163650D02*
X0252100Y0163650D01*
X0252100Y0162051D02*
X0252300Y0162051D01*
X0252300Y0160453D02*
X0252100Y0160453D01*
X0252100Y0158854D02*
X0252300Y0158854D01*
X0252300Y0157256D02*
X0251803Y0157256D01*
X0252300Y0155657D02*
X0250301Y0155657D01*
X0248703Y0154059D02*
X0252300Y0154059D01*
X0252300Y0152460D02*
X0229600Y0152460D01*
X0227200Y0155950D02*
X0247200Y0155950D01*
X0249700Y0158450D01*
X0249700Y0202200D01*
X0247200Y0204700D01*
X0242798Y0204700D01*
X0238049Y0205211D02*
X0236351Y0205211D01*
X0236351Y0206809D02*
X0238049Y0206809D01*
X0238049Y0208408D02*
X0236351Y0208408D01*
X0234002Y0211605D02*
X0252300Y0211605D01*
X0252300Y0213203D02*
X0234002Y0213203D01*
X0234002Y0214802D02*
X0252300Y0214802D01*
X0252300Y0216401D02*
X0233743Y0216401D01*
X0232295Y0217999D02*
X0251757Y0217999D01*
X0238049Y0203612D02*
X0236351Y0203612D01*
X0236351Y0202014D02*
X0238049Y0202014D01*
X0238121Y0200415D02*
X0236279Y0200415D01*
X0236913Y0194021D02*
X0237487Y0194021D01*
X0240940Y0189700D02*
X0240940Y0179700D01*
X0240950Y0179690D01*
X0240950Y0165950D01*
X0243519Y0168445D02*
X0247300Y0168445D01*
X0247300Y0166847D02*
X0244531Y0166847D01*
X0244531Y0165248D02*
X0247300Y0165248D01*
X0247300Y0163650D02*
X0243714Y0163650D01*
X0247300Y0162051D02*
X0234981Y0162051D01*
X0234981Y0163650D02*
X0238186Y0163650D01*
X0237369Y0165248D02*
X0234981Y0165248D01*
X0234981Y0166847D02*
X0237369Y0166847D01*
X0238381Y0168445D02*
X0234981Y0168445D01*
X0234981Y0170044D02*
X0238550Y0170044D01*
X0238550Y0171642D02*
X0234600Y0171642D01*
X0234600Y0173241D02*
X0238550Y0173241D01*
X0238550Y0174839D02*
X0234600Y0174839D01*
X0233460Y0179700D02*
X0232200Y0179700D01*
X0232200Y0166186D01*
X0230159Y0160453D02*
X0229241Y0160453D01*
X0225159Y0160453D02*
X0224241Y0160453D01*
X0220159Y0160453D02*
X0219524Y0160453D01*
X0217200Y0160453D02*
X0217200Y0160453D01*
X0217200Y0160055D02*
X0217200Y0166186D01*
X0217200Y0166186D01*
X0214219Y0166186D01*
X0214219Y0161619D01*
X0214342Y0161161D01*
X0214579Y0160750D01*
X0214914Y0160415D01*
X0215324Y0160178D01*
X0215782Y0160056D01*
X0217200Y0160055D01*
X0217200Y0162051D02*
X0217200Y0162051D01*
X0217200Y0163650D02*
X0217200Y0163650D01*
X0217200Y0165248D02*
X0217200Y0165248D01*
X0217200Y0166186D02*
X0217200Y0166186D01*
X0214219Y0166186D01*
X0214219Y0170754D01*
X0214342Y0171212D01*
X0214579Y0171622D01*
X0214914Y0171957D01*
X0215324Y0172194D01*
X0215782Y0172317D01*
X0217200Y0172317D01*
X0217200Y0166186D01*
X0217200Y0166186D01*
X0217200Y0166847D02*
X0217200Y0166847D01*
X0217200Y0168445D02*
X0217200Y0168445D01*
X0217200Y0170044D02*
X0217200Y0170044D01*
X0217200Y0171642D02*
X0217200Y0171642D01*
X0214599Y0171642D02*
X0209818Y0171642D01*
X0209849Y0170044D02*
X0214219Y0170044D01*
X0214219Y0168445D02*
X0209849Y0168445D01*
X0209849Y0166847D02*
X0214219Y0166847D01*
X0214219Y0165248D02*
X0209849Y0165248D01*
X0209513Y0163650D02*
X0214219Y0163650D01*
X0214219Y0162051D02*
X0195330Y0162051D01*
X0195700Y0160453D02*
X0199589Y0160453D01*
X0199551Y0158854D02*
X0195700Y0158854D01*
X0195700Y0157256D02*
X0199551Y0157256D01*
X0199551Y0155657D02*
X0195700Y0155657D01*
X0193350Y0154059D02*
X0199551Y0154059D01*
X0204700Y0155950D02*
X0204700Y0156602D01*
X0204700Y0155950D02*
X0227200Y0155950D01*
X0234241Y0160453D02*
X0247300Y0160453D01*
X0246710Y0158854D02*
X0209849Y0158854D01*
X0209810Y0160453D02*
X0214876Y0160453D01*
X0204700Y0167798D02*
X0202842Y0165940D01*
X0190950Y0165940D01*
X0186200Y0165248D02*
X0185850Y0165248D01*
X0185850Y0163650D02*
X0186200Y0163650D01*
X0185850Y0162051D02*
X0186570Y0162051D01*
X0186200Y0160453D02*
X0185850Y0160453D01*
X0185850Y0166847D02*
X0186200Y0166847D01*
X0186200Y0168445D02*
X0185850Y0168445D01*
X0185850Y0170044D02*
X0187082Y0170044D01*
X0185850Y0171642D02*
X0199582Y0171642D01*
X0199551Y0170044D02*
X0194818Y0170044D01*
X0195700Y0168445D02*
X0199551Y0168445D01*
X0185850Y0173241D02*
X0219800Y0173241D01*
X0219800Y0174839D02*
X0185850Y0174839D01*
X0185850Y0176438D02*
X0219800Y0176438D01*
X0219800Y0178036D02*
X0185850Y0178036D01*
X0185850Y0179635D02*
X0219800Y0179635D01*
X0219773Y0181233D02*
X0185877Y0181233D01*
X0176050Y0181233D02*
X0170731Y0181233D01*
X0172031Y0179635D02*
X0176050Y0179635D01*
X0176050Y0178036D02*
X0172031Y0178036D01*
X0171502Y0176438D02*
X0176050Y0176438D01*
X0176050Y0174839D02*
X0151378Y0174839D01*
X0151953Y0173241D02*
X0176050Y0173241D01*
X0176050Y0171642D02*
X0151953Y0171642D01*
X0151953Y0170044D02*
X0176050Y0170044D01*
X0176050Y0168445D02*
X0151953Y0168445D01*
X0151061Y0166847D02*
X0176050Y0166847D01*
X0176050Y0155657D02*
X0075860Y0155657D01*
X0075860Y0154059D02*
X0110108Y0154059D01*
X0110108Y0152460D02*
X0075860Y0152460D01*
X0075860Y0150862D02*
X0110108Y0150862D01*
X0110108Y0149263D02*
X0104543Y0149263D01*
X0105450Y0147665D02*
X0110108Y0147665D01*
X0110108Y0146066D02*
X0105450Y0146066D01*
X0105450Y0144468D02*
X0110108Y0144468D01*
X0110108Y0142869D02*
X0105344Y0142869D01*
X0105250Y0141270D02*
X0110108Y0141270D01*
X0110108Y0139672D02*
X0105250Y0139672D01*
X0105250Y0138073D02*
X0110108Y0138073D01*
X0110108Y0136475D02*
X0105250Y0136475D01*
X0099400Y0138814D02*
X0089995Y0138814D01*
X0087387Y0141270D02*
X0075860Y0141270D01*
X0075860Y0139672D02*
X0086414Y0139672D01*
X0086414Y0138073D02*
X0075860Y0138073D01*
X0075860Y0136475D02*
X0087270Y0136475D01*
X0084788Y0134876D02*
X0093550Y0134876D01*
X0093550Y0133278D02*
X0090648Y0133278D01*
X0092246Y0131679D02*
X0093550Y0131679D01*
X0093550Y0130081D02*
X0092900Y0130081D01*
X0099400Y0138814D02*
X0099400Y0138900D01*
X0093550Y0141270D02*
X0092603Y0141270D01*
X0093456Y0142869D02*
X0075860Y0142869D01*
X0075860Y0144468D02*
X0093350Y0144468D01*
X0093350Y0146066D02*
X0075860Y0146066D01*
X0075860Y0147665D02*
X0093350Y0147665D01*
X0094257Y0149263D02*
X0075860Y0149263D01*
X0075860Y0166847D02*
X0102136Y0166847D01*
X0101296Y0168445D02*
X0075860Y0168445D01*
X0073460Y0175960D02*
X0075950Y0178450D01*
X0073460Y0175960D02*
X0073460Y0130950D01*
X0073450Y0130940D01*
X0069187Y0114096D02*
X0110108Y0114096D01*
X0110108Y0115694D02*
X0104907Y0115694D01*
X0105250Y0117293D02*
X0110108Y0117293D01*
X0110108Y0118891D02*
X0105250Y0118891D01*
X0105250Y0120490D02*
X0110108Y0120490D01*
X0110108Y0122088D02*
X0104724Y0122088D01*
X0105250Y0123687D02*
X0110108Y0123687D01*
X0110108Y0125285D02*
X0105250Y0125285D01*
X0105250Y0126884D02*
X0110108Y0126884D01*
X0110108Y0128482D02*
X0105030Y0128482D01*
X0108985Y0112497D02*
X0067588Y0112497D01*
X0067050Y0110899D02*
X0108100Y0110899D01*
X0108100Y0109300D02*
X0067050Y0109300D01*
X0067050Y0107702D02*
X0107939Y0107702D01*
X0106341Y0106103D02*
X0067050Y0106103D01*
X0067050Y0104505D02*
X0104742Y0104505D01*
X0103143Y0102906D02*
X0067050Y0102906D01*
X0067050Y0101308D02*
X0101545Y0101308D01*
X0099946Y0099709D02*
X0067050Y0099709D01*
X0067050Y0098111D02*
X0098348Y0098111D01*
X0098100Y0096512D02*
X0067050Y0096512D01*
X0067050Y0094914D02*
X0098100Y0094914D01*
X0098100Y0093315D02*
X0067050Y0093315D01*
X0067050Y0091717D02*
X0098100Y0091717D01*
X0098100Y0090118D02*
X0067050Y0090118D01*
X0067050Y0088520D02*
X0098100Y0088520D01*
X0098100Y0086921D02*
X0067050Y0086921D01*
X0067050Y0085323D02*
X0098100Y0085323D01*
X0098100Y0083724D02*
X0086543Y0083724D01*
X0086267Y0084000D02*
X0083650Y0084000D01*
X0083650Y0077400D01*
X0090250Y0077400D01*
X0090250Y0080017D01*
X0086267Y0084000D01*
X0083650Y0083724D02*
X0083250Y0083724D01*
X0083250Y0084000D02*
X0080633Y0084000D01*
X0076650Y0080017D01*
X0076650Y0077400D01*
X0083250Y0077400D01*
X0083250Y0084000D01*
X0083250Y0082126D02*
X0083650Y0082126D01*
X0083650Y0080527D02*
X0083250Y0080527D01*
X0083250Y0078929D02*
X0083650Y0078929D01*
X0083650Y0077400D02*
X0083250Y0077400D01*
X0083250Y0077000D01*
X0083650Y0077000D01*
X0083650Y0077400D01*
X0083650Y0077330D02*
X0098100Y0077330D01*
X0098100Y0075732D02*
X0090250Y0075732D01*
X0090250Y0077000D02*
X0090250Y0074383D01*
X0086267Y0070400D01*
X0083650Y0070400D01*
X0083650Y0077000D01*
X0090250Y0077000D01*
X0090250Y0078929D02*
X0098100Y0078929D01*
X0098100Y0080527D02*
X0089740Y0080527D01*
X0088141Y0082126D02*
X0098100Y0082126D01*
X0098100Y0074133D02*
X0090000Y0074133D01*
X0088401Y0072534D02*
X0098100Y0072534D01*
X0098100Y0070936D02*
X0086803Y0070936D01*
X0083650Y0070936D02*
X0083250Y0070936D01*
X0083250Y0070400D02*
X0083250Y0077000D01*
X0076650Y0077000D01*
X0076650Y0074383D01*
X0080633Y0070400D01*
X0083250Y0070400D01*
X0083250Y0072534D02*
X0083650Y0072534D01*
X0083650Y0074133D02*
X0083250Y0074133D01*
X0083250Y0075732D02*
X0083650Y0075732D01*
X0083250Y0077330D02*
X0070050Y0077330D01*
X0069986Y0075732D02*
X0076650Y0075732D01*
X0076900Y0074133D02*
X0069323Y0074133D01*
X0068118Y0072534D02*
X0078499Y0072534D01*
X0080097Y0070936D02*
X0065574Y0070936D01*
X0061326Y0070936D02*
X0008200Y0070936D01*
X0008200Y0072534D02*
X0058782Y0072534D01*
X0057684Y0080527D02*
X0038280Y0080527D01*
X0037240Y0082126D02*
X0059042Y0082126D01*
X0067050Y0083724D02*
X0080357Y0083724D01*
X0078759Y0082126D02*
X0067858Y0082126D01*
X0069216Y0080527D02*
X0077160Y0080527D01*
X0076650Y0078929D02*
X0069878Y0078929D01*
X0098100Y0069337D02*
X0008200Y0069337D01*
X0008200Y0067739D02*
X0025352Y0067739D01*
X0023803Y0066140D02*
X0008200Y0066140D01*
X0008200Y0064542D02*
X0023202Y0064542D01*
X0023202Y0062943D02*
X0008200Y0062943D01*
X0008200Y0061345D02*
X0023830Y0061345D01*
X0025507Y0059746D02*
X0008200Y0059746D01*
X0008200Y0058148D02*
X0156807Y0058148D01*
X0157027Y0059746D02*
X0036097Y0059746D01*
X0026833Y0053352D02*
X0008200Y0053352D01*
X0008200Y0051754D02*
X0024276Y0051754D01*
X0023395Y0050155D02*
X0008200Y0050155D01*
X0008200Y0048557D02*
X0023202Y0048557D01*
X0023576Y0046958D02*
X0008200Y0046958D01*
X0008200Y0045360D02*
X0024712Y0045360D01*
X0024889Y0037367D02*
X0008200Y0037367D01*
X0008200Y0035769D02*
X0023649Y0035769D01*
X0023202Y0034170D02*
X0008200Y0034170D01*
X0008200Y0032572D02*
X0023322Y0032572D01*
X0024099Y0030973D02*
X0008200Y0030973D01*
X0008200Y0029375D02*
X0026405Y0029375D01*
X0026555Y0074133D02*
X0008200Y0074133D01*
X0008200Y0075732D02*
X0024080Y0075732D01*
X0023225Y0077330D02*
X0008200Y0077330D01*
X0030602Y0077330D02*
X0031002Y0077330D01*
X0031002Y0075732D02*
X0030602Y0075732D01*
X0030602Y0074133D02*
X0031002Y0074133D01*
X0031002Y0080527D02*
X0030602Y0080527D01*
X0030602Y0082126D02*
X0031002Y0082126D01*
X0099150Y0146066D02*
X0099650Y0146066D01*
X0099650Y0147665D02*
X0099150Y0147665D01*
X0099150Y0149263D02*
X0099650Y0149263D01*
X0113450Y0149263D02*
X0150950Y0149263D01*
X0150950Y0147665D02*
X0113450Y0147665D01*
X0113450Y0150862D02*
X0150950Y0150862D01*
X0154292Y0150862D02*
X0176050Y0150862D01*
X0176050Y0152460D02*
X0154292Y0152460D01*
X0154292Y0154059D02*
X0176050Y0154059D01*
X0168440Y0178440D02*
X0168450Y0178450D01*
X0168440Y0178440D02*
X0147200Y0178440D01*
X0147184Y0178424D01*
X0133102Y0178424D01*
X0136670Y0181233D02*
X0142647Y0181233D01*
X0143022Y0174839D02*
X0136670Y0174839D01*
X0135878Y0182832D02*
X0176050Y0182832D01*
X0176050Y0184430D02*
X0008200Y0184430D01*
X0008200Y0186029D02*
X0176050Y0186029D01*
X0166169Y0181233D02*
X0151753Y0181233D01*
X0147680Y0170044D02*
X0146720Y0170044D01*
X0146720Y0168445D02*
X0147680Y0168445D01*
X0147680Y0166847D02*
X0146720Y0166847D01*
X0143339Y0166847D02*
X0128000Y0166847D01*
X0128000Y0165248D02*
X0126400Y0165248D01*
X0126400Y0163650D02*
X0128000Y0163650D01*
X0128000Y0162051D02*
X0126400Y0162051D01*
X0126400Y0160453D02*
X0128000Y0160453D01*
X0128000Y0158854D02*
X0126400Y0158854D01*
X0127016Y0173241D02*
X0127384Y0173241D01*
X0127384Y0174839D02*
X0127016Y0174839D01*
X0127016Y0176438D02*
X0127384Y0176438D01*
X0127384Y0178036D02*
X0127016Y0178036D01*
X0127016Y0179635D02*
X0127384Y0179635D01*
X0127384Y0181233D02*
X0127016Y0181233D01*
X0127016Y0182832D02*
X0127384Y0182832D01*
X0130222Y0182832D02*
X0130325Y0182832D01*
X0124178Y0182832D02*
X0124075Y0182832D01*
X0109750Y0187627D02*
X0008200Y0187627D01*
X0008200Y0189226D02*
X0108151Y0189226D01*
X0107600Y0190824D02*
X0008200Y0190824D01*
X0008200Y0208408D02*
X0060350Y0208408D01*
X0060350Y0210006D02*
X0008200Y0210006D01*
X0008200Y0211605D02*
X0060350Y0211605D01*
X0060350Y0213203D02*
X0008200Y0213203D01*
X0008200Y0214802D02*
X0060350Y0214802D01*
X0060350Y0216401D02*
X0008200Y0216401D01*
X0010767Y0217999D02*
X0060680Y0217999D01*
X0061342Y0219598D02*
X0012783Y0219598D01*
X0040816Y0197218D02*
X0110195Y0197218D01*
X0109527Y0198817D02*
X0041300Y0198817D01*
X0039954Y0195620D02*
X0108597Y0195620D01*
X0107600Y0194021D02*
X0038237Y0194021D01*
X0086134Y0200415D02*
X0107929Y0200415D01*
X0107400Y0202014D02*
X0087777Y0202014D01*
X0118424Y0217999D02*
X0129181Y0217999D01*
X0128917Y0216401D02*
X0125144Y0216401D01*
X0126742Y0214802D02*
X0128917Y0214802D01*
X0125950Y0212200D02*
X0123450Y0214700D01*
X0158810Y0214802D02*
X0166754Y0214802D01*
X0166197Y0213203D02*
X0163031Y0213203D01*
X0164939Y0211605D02*
X0166197Y0211605D01*
X0166197Y0210006D02*
X0165850Y0210006D01*
X0165850Y0208408D02*
X0166197Y0208408D01*
X0166525Y0206809D02*
X0165850Y0206809D01*
X0170470Y0211605D02*
X0171430Y0211605D01*
X0171430Y0213203D02*
X0170470Y0213203D01*
X0170470Y0214802D02*
X0171430Y0214802D01*
X0175146Y0214802D02*
X0180590Y0214802D01*
X0179950Y0213203D02*
X0175703Y0213203D01*
X0175703Y0211605D02*
X0179950Y0211605D01*
X0179950Y0210006D02*
X0175703Y0210006D01*
X0175703Y0208408D02*
X0179950Y0208408D01*
X0180078Y0206809D02*
X0175375Y0206809D01*
X0183079Y0224393D02*
X0159658Y0224393D01*
X0214567Y0192423D02*
X0229301Y0192423D01*
X0230007Y0194021D02*
X0216165Y0194021D01*
X0216850Y0195620D02*
X0247300Y0195620D01*
X0247300Y0197218D02*
X0216850Y0197218D01*
X0216850Y0198817D02*
X0247300Y0198817D01*
X0247300Y0194021D02*
X0244393Y0194021D01*
X0245099Y0192423D02*
X0247300Y0192423D01*
X0247300Y0190824D02*
X0245099Y0190824D01*
X0245099Y0189226D02*
X0247300Y0189226D01*
X0247300Y0187627D02*
X0245099Y0187627D01*
X0245044Y0186029D02*
X0247300Y0186029D01*
X0247300Y0184430D02*
X0244181Y0184430D01*
X0245099Y0182832D02*
X0247300Y0182832D01*
X0247300Y0181233D02*
X0245099Y0181233D01*
X0245099Y0179635D02*
X0247300Y0179635D01*
X0247300Y0178036D02*
X0245099Y0178036D01*
X0245099Y0176438D02*
X0247300Y0176438D01*
X0247300Y0174839D02*
X0243350Y0174839D01*
X0243350Y0173241D02*
X0247300Y0173241D01*
X0247300Y0171642D02*
X0243350Y0171642D01*
X0243350Y0170044D02*
X0247300Y0170044D01*
X0252300Y0150862D02*
X0234827Y0150862D01*
X0234981Y0149263D02*
X0252300Y0149263D01*
X0252300Y0147665D02*
X0234981Y0147665D01*
X0229800Y0139672D02*
X0224600Y0139672D01*
X0224600Y0138073D02*
X0229800Y0138073D01*
X0230781Y0136475D02*
X0224600Y0136475D01*
X0224600Y0134876D02*
X0232379Y0134876D01*
X0224600Y0133278D02*
X0264901Y0133278D01*
X0264901Y0134876D02*
X0254521Y0134876D01*
X0263494Y0131679D02*
X0264901Y0131679D01*
X0242300Y0117293D02*
X0227150Y0117293D01*
X0227150Y0115694D02*
X0237664Y0115694D01*
X0222680Y0115694D02*
X0221720Y0115694D01*
X0221720Y0117293D02*
X0222680Y0117293D01*
X0164130Y0083724D02*
X0163498Y0083724D01*
X0163498Y0082126D02*
X0164130Y0082126D01*
X0164733Y0080527D02*
X0162486Y0080527D01*
X0161243Y0074133D02*
X0160283Y0074133D01*
X0160283Y0072534D02*
X0161243Y0072534D01*
X0164550Y0059746D02*
X0180800Y0059746D01*
X0180800Y0058148D02*
X0164550Y0058148D01*
X0164550Y0056549D02*
X0180800Y0056549D01*
X0180800Y0054951D02*
X0163792Y0054951D01*
X0162194Y0053352D02*
X0180800Y0053352D01*
X0180800Y0051754D02*
X0160595Y0051754D01*
X0158653Y0050155D02*
X0180800Y0050155D01*
X0150449Y0088520D02*
X0148800Y0088520D01*
X0148800Y0090118D02*
X0150449Y0090118D01*
X0150449Y0091717D02*
X0148800Y0091717D01*
X0148800Y0093315D02*
X0151697Y0093315D01*
X0227200Y0189700D02*
X0233460Y0189700D01*
D39*
X0099400Y0125500D02*
X0091400Y0125500D01*
X0089700Y0127200D01*
X0089700Y0129700D01*
X0088450Y0130950D01*
X0080940Y0130950D01*
X0073450Y0130940D02*
X0073450Y0118450D01*
D40*
X0089995Y0138814D03*
X0162436Y0138814D03*
X0174700Y0137200D03*
X0199700Y0135950D03*
X0240950Y0165950D03*
X0184700Y0220950D03*
X0168450Y0178450D03*
X0199700Y0057200D03*
M02*
