G75*
%MOIN*%
%OFA0B0*%
%FSLAX25Y25*%
%IPPOS*%
%LPD*%
%AMOC8*
5,1,8,0,0,1.08239X$1,22.5*
%
%ADD10R,0.05906X0.05118*%
%ADD11R,0.05118X0.05906*%
%ADD12R,0.06299X0.13780*%
%ADD13R,0.09449X0.09449*%
%ADD14R,0.05512X0.03150*%
%ADD15R,0.08661X0.07087*%
%ADD16R,0.03500X0.03100*%
%ADD17R,0.02362X0.08661*%
%ADD18R,0.07098X0.06299*%
%ADD19R,0.06299X0.07098*%
%ADD20R,0.07874X0.03543*%
%ADD21R,0.07874X0.05118*%
%ADD22R,0.12598X0.07087*%
%ADD23R,0.03543X0.07874*%
%ADD24R,0.05118X0.07874*%
%ADD25R,0.06299X0.05118*%
%ADD26R,0.05118X0.06299*%
%ADD27R,0.42520X0.40984*%
%ADD28R,0.04200X0.08500*%
D10*
X0087200Y0112513D03*
X0087200Y0119993D03*
X0134887Y0062168D03*
X0134887Y0054688D03*
X0147200Y0195013D03*
X0147200Y0202493D03*
X0175950Y0202493D03*
X0175950Y0195013D03*
D11*
X0223460Y0181253D03*
X0230940Y0181253D03*
X0074326Y0120102D03*
X0066846Y0120102D03*
D12*
X0063588Y0081873D03*
X0063588Y0103133D03*
X0167525Y0080633D03*
X0167525Y0059373D03*
D13*
X0143224Y0077178D03*
X0125901Y0077178D03*
D14*
X0065655Y0135348D03*
X0065655Y0141253D03*
X0065655Y0147159D03*
D15*
X0077781Y0141253D03*
D16*
X0204450Y0195053D03*
X0212450Y0198853D03*
X0204450Y0202653D03*
D17*
X0207200Y0157739D03*
X0212200Y0157739D03*
X0217200Y0157739D03*
X0222200Y0157739D03*
X0222200Y0137267D03*
X0217200Y0137267D03*
X0212200Y0137267D03*
X0207200Y0137267D03*
D18*
X0194700Y0148155D03*
X0194700Y0159352D03*
X0164700Y0120602D03*
X0164700Y0109405D03*
D19*
X0221602Y0196253D03*
X0232798Y0196253D03*
D20*
X0232978Y0117090D03*
X0232978Y0106066D03*
D21*
X0250300Y0111578D03*
D22*
X0210950Y0062277D03*
X0210950Y0040230D03*
D23*
X0115812Y0202188D03*
X0104789Y0202188D03*
D24*
X0110300Y0184865D03*
D25*
X0133450Y0195013D03*
X0133450Y0202493D03*
X0162200Y0202493D03*
X0162200Y0195013D03*
X0189700Y0195013D03*
X0189700Y0202493D03*
X0182200Y0157493D03*
X0182200Y0150013D03*
X0177200Y0117493D03*
X0177200Y0110013D03*
X0197200Y0110013D03*
X0197200Y0117493D03*
X0212200Y0117493D03*
X0212200Y0110013D03*
D26*
X0223460Y0171253D03*
X0230940Y0171253D03*
D27*
X0123450Y0145003D03*
D28*
X0123450Y0112203D03*
X0116750Y0112203D03*
X0110050Y0112203D03*
X0130150Y0112203D03*
X0136850Y0112203D03*
M02*
